<?xml version="1.0" encoding="utf-8"?>
<!-- Generator: Adobe Illustrator 15.1.0, SVG Export Plug-In . SVG Version: 6.00 Build 0)  -->
<!DOCTYPE svg PUBLIC "-//W3C//DTD SVG 1.0//EN" "http://www.w3.org/TR/2001/REC-SVG-20010904/DTD/svg10.dtd">
<svg version="1.0" id="Layer_1" xmlns="http://www.w3.org/2000/svg" xmlns:xlink="http://www.w3.org/1999/xlink" x="0px" y="0px"
	 width="200px" height="89.343px" viewBox="0 0 200 89.343" enable-background="new 0 0 200 89.343" xml:space="preserve">
<path d="M8.194,35.124c0,2.303-1.285,3.799-4.221,3.799C1.074,38.923,0,37.444,0,35.124v-9.385c0-0.154,0.076-0.23,0.23-0.23h1.113
	c0.152,0,0.23,0.076,0.23,0.23v9.346c0,1.575,0.613,2.553,2.418,2.553c1.766,0,2.629-0.807,2.629-2.553v-9.346
	c0-0.154,0.076-0.23,0.23-0.23h1.113c0.152,0,0.229,0.076,0.229,0.23"/>
<path d="M18.328,38.425c0,0.152-0.076,0.229-0.23,0.229h-0.998c-0.152,0-0.229-0.076-0.229-0.229v-6.411
	c0-0.826-0.211-1.555-1.248-1.555c-1.249,0-2.053,0.748-2.534,1.17v6.795c0,0.152-0.076,0.229-0.23,0.229H11.86
	c-0.152,0-0.23-0.076-0.23-0.229v-6.622c0-0.633,0-0.846-0.076-1.133c-0.154-0.576-0.307-0.711-0.307-0.807
	c0-0.037,0.02-0.076,0.096-0.135l0.863-0.479c0.039-0.02,0.096-0.076,0.154-0.076c0.346,0,0.574,1.15,0.594,1.305
	c0.635-0.5,1.631-1.305,3.09-1.305c2.131,0,2.283,1.496,2.283,2.879"/>
<path d="M24.086,38.425c0,0.152-0.076,0.229-0.23,0.229h-0.998c-0.152,0-0.23-0.076-0.23-0.229v-7.793H21.13
	c-0.154,0-0.23-0.076-0.23-0.23v-0.729c0-0.154,0.076-0.23,0.23-0.23h2.706c0.211,0,0.25,0.115,0.25,0.287 M23.262,27.234
	c-0.654,0-1.172-0.518-1.172-1.17s0.518-1.17,1.172-1.17c0.652,0,1.17,0.537,1.17,1.17S23.914,27.234,23.262,27.234z"/>
<path d="M31.168,38.616c-0.059,0.135-0.078,0.172-0.25,0.172H30.17c-0.174,0-0.193-0.076-0.23-0.172l-3.225-8.752
	c0-0.037-0.039-0.076-0.039-0.135c0-0.076,0.039-0.096,0.174-0.133l0.939-0.25c0.059,0,0.115-0.039,0.193-0.039
	c0.077,0,0.077,0.078,0.133,0.154l2.131,6.237c0.135,0.404,0.25,0.846,0.346,1.209h0.039c0.096-0.461,0.172-0.729,0.344-1.189
	l2.266-6.256c0.057-0.076,0.057-0.154,0.135-0.154c0.076,0,0.133,0.039,0.191,0.039l0.94,0.25c0.135,0.037,0.174,0.057,0.174,0.133
	c0,0.059-0.039,0.098-0.039,0.135"/>
<path d="M43.162,37.771c0.02,0.059,0.059,0.098,0.059,0.154c0,0.211-1.611,0.998-3.032,0.998c-2.553-0.02-4.051-1.957-4.051-4.875
	c0-2.82,1.42-4.873,3.801-4.873c3.206,0,3.493,3.107,3.493,4.758c0,0.27,0,0.422-0.211,0.422h-5.508
	c0,1.172,0.461,3.284,2.648,3.284c1.249,0,2.247-0.787,2.36-0.787c0.059,0,0.078,0.057,0.117,0.115 M41.857,33.165
	c0-0.998-0.326-2.801-1.997-2.801c-1.766,0-2.148,1.842-2.148,2.801H41.857z"/>
<path d="M47.826,38.425c0,0.152-0.076,0.229-0.23,0.229h-0.999c-0.154,0-0.23-0.076-0.23-0.229V31.84
	c0-0.346-0.057-0.979-0.326-1.457c-0.152-0.27-0.211-0.424-0.211-0.48c0.02-0.115,0.096-0.174,0.135-0.191l0.709-0.441
	c0.078-0.059,0.155-0.096,0.194-0.096c0.346,0,0.67,1.189,0.748,1.611c0.498-0.537,1.189-1.611,2.303-1.611
	c0.441,0,0.939,0.152,0.939,0.326c0,0.037-0.037,0.096-0.057,0.152l-0.422,0.979c-0.02,0.039-0.039,0.135-0.115,0.135
	c-0.096,0-0.27-0.172-0.633-0.172c-0.672,0-1.344,0.998-1.805,1.496"/>
<path d="M57.288,30.709c-0.078,0.152-0.115,0.23-0.23,0.23c-0.135,0-0.941-0.52-1.939-0.52c-0.768,0-1.42,0.385-1.42,1.268
	c0,2.111,4.262,1.516,4.262,4.51c0,1.803-1.422,2.725-3.07,2.725c-0.922,0-2.918-0.537-2.918-0.922c0-0.096,0.039-0.152,0.076-0.23
	l0.27-0.594c0.057-0.135,0.115-0.174,0.172-0.174c0.174,0,1.172,0.672,2.477,0.672c0.824,0,1.535-0.459,1.535-1.381
	c0-1.997-4.26-1.555-4.26-4.454c0-1.553,1.209-2.666,2.897-2.666c0.652,0,1.766,0.307,2.266,0.574
	c0.152,0.078,0.211,0.154,0.211,0.25c0,0.059-0.059,0.115-0.078,0.191"/>
<path d="M62.929,38.425c0,0.152-0.076,0.229-0.23,0.229h-0.996c-0.154,0-0.23-0.076-0.23-0.229v-7.793h-1.498
	c-0.152,0-0.23-0.076-0.23-0.23v-0.729c0-0.154,0.078-0.23,0.23-0.23h2.707c0.211,0,0.248,0.115,0.248,0.287 M62.104,27.234
	c-0.652,0-1.172-0.518-1.172-1.17s0.52-1.17,1.172-1.17s1.17,0.537,1.17,1.17S62.757,27.234,62.104,27.234z"/>
<path d="M71.834,37.944c0.02,0.076,0.039,0.135,0.039,0.191c0,0.25-1.44,0.787-2.475,0.787c-0.826,0-1.518-0.307-1.805-0.672
	c-0.557-0.594-0.557-1.459-0.557-2.168v-5.452h-1.439c-0.135,0-0.135-0.133-0.135-0.23v-0.729c0-0.135,0-0.23,0.135-0.23h1.439
	v-2.629c0-0.115,0.076-0.191,0.211-0.23l1.018-0.287c0.057,0,0.096-0.02,0.135-0.02c0.096,0,0.096,0.096,0.096,0.211v2.956h2.84
	c0.115,0,0.211,0.02,0.211,0.135c0,0.039-0.02,0.076-0.02,0.135l-0.248,0.748c-0.039,0.096-0.135,0.172-0.25,0.172h-2.533v5.452
	c0,0.768,0,1.555,1.15,1.555c0.902,0,1.67-0.52,1.842-0.52c0.078,0,0.135,0.059,0.135,0.115"/>
<path d="M79.78,35.622c0,1.209,0.059,1.381,0.23,1.92c0.076,0.229,0.346,0.594,0.346,0.709c0,0.076-0.096,0.115-0.172,0.154
	l-0.75,0.461c-0.076,0.037-0.115,0.057-0.152,0.057c-0.289,0-0.635-1.018-0.73-1.285c-0.23,0.211-1.17,1.285-2.764,1.285
	c-1.516,0-2.494-0.998-2.494-2.705c0-3.245,3.838-3.301,5.028-3.34v-0.691c0-1.113-0.346-1.727-1.708-1.727
	c-1.287,0-2.168,0.613-2.342,0.613c-0.057,0-0.115-0.037-0.135-0.096l-0.25-0.672c-0.037-0.096-0.057-0.152-0.057-0.248
	c0-0.328,1.766-0.883,2.994-0.883c2.208,0,2.956,1.074,2.956,2.686 M74.885,27.6c-0.557,0-1.016-0.461-1.016-1.018
	s0.459-1.018,1.016-1.018c0.576,0,1.018,0.461,1.018,1.018S75.461,27.6,74.885,27.6z M78.321,34.067
	c-0.844,0.02-3.588,0.02-3.588,2.036c0,0.768,0.422,1.631,1.4,1.631c0.998,0,1.881-0.922,2.188-1.189V34.067z M78.667,25.564
	c0.557,0,1.018,0.461,1.018,1.018S79.223,27.6,78.667,27.6s-1.018-0.461-1.018-1.018S78.11,25.564,78.667,25.564z"/>
<path d="M88.513,37.944c0.018,0.076,0.037,0.135,0.037,0.191c0,0.25-1.439,0.787-2.475,0.787c-0.826,0-1.516-0.307-1.805-0.672
	c-0.557-0.594-0.557-1.459-0.557-2.168v-5.452h-1.439c-0.133,0-0.133-0.133-0.133-0.23v-0.729c0-0.135,0-0.23,0.133-0.23h1.439
	v-2.629c0-0.115,0.076-0.191,0.211-0.23l1.018-0.287c0.059,0,0.096-0.02,0.135-0.02c0.096,0,0.096,0.096,0.096,0.211v2.956h2.84
	c0.115,0,0.211,0.02,0.211,0.135c0,0.039-0.02,0.076-0.02,0.135l-0.248,0.748c-0.039,0.096-0.135,0.172-0.25,0.172h-2.533v5.452
	c0,0.768,0,1.555,1.15,1.555c0.902,0,1.67-0.52,1.844-0.52c0.076,0,0.135,0.059,0.135,0.115"/>
<path d="M24.008,59.18c-0.115,0.076-0.191,0.135-0.268,0.135c-0.078,0-0.174-0.078-0.25-0.174l-4.817-6.352h-0.039v6.025
	c0,0.154-0.076,0.23-0.23,0.23h-1.113c-0.152,0-0.229-0.076-0.229-0.23V46.128c0-0.152,0.076-0.229,0.229-0.229h1.113
	c0.154,0,0.23,0.076,0.23,0.229v6.296h0.039l4.893-6.64c0.039-0.039,0.115-0.154,0.23-0.154c0.078,0,0.115,0.059,0.23,0.135
	l0.615,0.422c0.096,0.076,0.172,0.115,0.172,0.191c0,0.059-0.076,0.154-0.115,0.211l-4.471,5.931l4.586,5.758
	c0.039,0.057,0.096,0.115,0.096,0.154c0,0.076-0.039,0.152-0.135,0.211"/>
<path d="M30.053,59.315c-2.59,0-3.704-2.092-3.704-4.836c0-2.648,1.113-4.915,3.897-4.915c2.629,0,3.742,2.112,3.742,4.819
	C33.989,57.069,32.856,59.315,30.053,59.315 M32.415,54.364c0-1.881-0.518-3.61-2.246-3.61c-1.727,0-2.245,1.651-2.245,3.552
	c0,2.188,0.499,3.818,2.264,3.818C31.897,58.124,32.415,56.569,32.415,54.364z"/>
<path d="M43.853,58.815c0,0.154-0.078,0.23-0.23,0.23h-0.998c-0.154,0-0.23-0.076-0.23-0.23v-6.41c0-0.824-0.211-1.554-1.248-1.554
	c-1.247,0-2.053,0.749-2.532,1.171v6.793c0,0.154-0.078,0.23-0.23,0.23h-0.998c-0.154,0-0.23-0.076-0.23-0.23v-6.621
	c0-0.633,0-0.844-0.076-1.131c-0.154-0.577-0.309-0.712-0.309-0.808c0-0.039,0.02-0.076,0.096-0.135l0.865-0.48
	c0.037-0.018,0.096-0.076,0.152-0.076c0.346,0,0.576,1.152,0.596,1.305c0.633-0.498,1.631-1.305,3.09-1.305
	c2.129,0,2.283,1.499,2.283,2.88"/>
<path d="M51.607,51.1c-0.078,0.154-0.115,0.23-0.23,0.23c-0.135,0-0.941-0.519-1.939-0.519c-0.768,0-1.42,0.384-1.42,1.267
	c0,2.111,4.26,1.518,4.26,4.51c0,1.805-1.42,2.727-3.07,2.727c-0.92,0-2.917-0.537-2.917-0.922c0-0.096,0.039-0.154,0.076-0.23
	l0.27-0.596c0.057-0.133,0.115-0.172,0.172-0.172c0.174,0,1.17,0.672,2.477,0.672c0.824,0,1.535-0.461,1.535-1.383
	c0-1.996-4.262-1.553-4.262-4.451c0-1.556,1.209-2.669,2.899-2.669c0.652,0,1.766,0.307,2.264,0.576
	c0.154,0.076,0.211,0.154,0.211,0.25c0,0.057-0.057,0.115-0.076,0.191"/>
<path d="M60.3,58.334c0.02,0.078,0.039,0.135,0.039,0.193c0,0.25-1.44,0.787-2.475,0.787c-0.826,0-1.518-0.309-1.805-0.672
	c-0.557-0.596-0.557-1.459-0.557-2.168v-5.451h-1.439c-0.135,0-0.135-0.136-0.135-0.231v-0.729c0-0.135,0-0.23,0.135-0.23h1.439
	v-2.629c0-0.115,0.076-0.193,0.211-0.23l1.018-0.289c0.057,0,0.096-0.018,0.135-0.018c0.096,0,0.096,0.096,0.096,0.211v2.955h2.84
	c0.115,0,0.211,0.02,0.211,0.135c0,0.037-0.02,0.076-0.02,0.133l-0.248,0.75c-0.039,0.097-0.137,0.173-0.25,0.173h-2.534v5.451
	c0,0.768,0,1.553,1.15,1.553c0.902,0,1.67-0.518,1.844-0.518c0.076,0,0.133,0.057,0.133,0.115"/>
<path d="M68.246,56.014c0,1.209,0.059,1.381,0.23,1.918c0.076,0.23,0.346,0.596,0.346,0.711c0,0.076-0.096,0.115-0.174,0.152
	L67.9,59.256c-0.076,0.039-0.115,0.059-0.154,0.059c-0.287,0-0.633-1.018-0.729-1.287c-0.23,0.211-1.17,1.287-2.764,1.287
	c-1.516,0-2.494-0.998-2.494-2.707c0-3.242,3.838-3.301,5.028-3.34v-0.689c0-1.113-0.346-1.728-1.708-1.728
	c-1.287,0-2.17,0.614-2.342,0.614c-0.057,0-0.115-0.039-0.135-0.096l-0.248-0.673c-0.039-0.096-0.059-0.154-0.059-0.25
	c0-0.326,1.766-0.883,2.994-0.883c2.208,0,2.956,1.074,2.956,2.688 M66.787,54.459c-0.844,0.02-3.588,0.02-3.588,2.033
	c0,0.768,0.422,1.631,1.4,1.631c0.999,0,1.881-0.92,2.188-1.189V54.459z"/>
<path d="M78.647,58.815c0,0.154-0.076,0.23-0.23,0.23h-0.999c-0.152,0-0.229-0.076-0.229-0.23v-6.41
	c0-0.824-0.213-1.554-1.248-1.554c-1.248,0-2.055,0.749-2.533,1.171v6.793c0,0.154-0.076,0.23-0.23,0.23H72.18
	c-0.152,0-0.23-0.076-0.23-0.23v-6.621c0-0.633,0-0.844-0.076-1.131c-0.155-0.577-0.307-0.712-0.307-0.808
	c0-0.039,0.02-0.076,0.096-0.135l0.864-0.48c0.037-0.018,0.096-0.076,0.154-0.076c0.344,0,0.574,1.152,0.594,1.305
	c0.633-0.498,1.631-1.305,3.09-1.305c2.131,0,2.284,1.499,2.284,2.88"/>
<path d="M83.254,57.797h4.739c0.174,0,0.27,0.02,0.27,0.078c0,0.057-0.039,0.115-0.076,0.211l-0.346,0.787
	c-0.059,0.152-0.135,0.172-0.25,0.172h-5.989c-0.191,0-0.211-0.02-0.211-0.23v-0.768l4.819-6.967h-4.204
	c-0.154,0-0.23-0.076-0.23-0.229v-0.787c0-0.193,0.039-0.23,0.23-0.23h5.795c0.191,0,0.23,0.037,0.23,0.23v0.787"/>
<path d="M199.721,0h-88.784h-0.279v0.279v88.785v0.279h0.279h88.784H200v-0.279V0.279V0 M199.443,55.491h-10.54v-10.54h10.54V55.491
	z M132.854,83.793v3.617c-0.994-1.938-3.005-3.227-5.271-3.227c-2.268,0-4.277,1.289-5.271,3.227v-3.617H132.854z M133.411,83.793
	h10.542v3.617c-0.995-1.938-3.005-3.227-5.271-3.227c-2.268,0-4.277,1.289-5.271,3.227V83.793z M144.51,11.897l9.898,6.6h-9.898
	V11.897z M188.345,29.594h-10.54v-6.598l5.116,3.41l0.154,0.104l0.154-0.104l5.115-3.41V29.594z M188.345,44.392h-10.54v-3.469
	h-0.559v2.211l-3.48-9.282h14.579V44.392z M149.328,67.146l-4.818,9.638v-9.638H149.328z M143.953,76.784l-4.819-9.638h4.819V76.784
	z M143.778,77.686h-10.193l5.098-10.196L143.778,77.686z M149.779,67.49l5.098,10.196h-10.195L149.779,67.49z M150.23,67.146h4.818
	v9.638L150.23,67.146z M155.607,67.146h3.142v10.54h-3.142V67.146z M138.403,11.099h-4.992V7.956h4.992V11.099z M132.854,10.856
	l-4.351-2.901h4.351V10.856z M132.854,11.526v3.271h-10.542V4.499L132.854,11.526z M133.411,11.897l4.35,2.9h-4.35V11.897z
	 M132.854,15.354v3.143h-10.542v-3.143H132.854z M132.854,19.054v3.141h-10.542v-3.141H132.854z M149.779,25.84l-4.627-3.086h9.256
	L149.779,25.84z M143.953,25.895h-4.991v-3.141h4.991V25.895z M138.403,25.895h-4.992v-3.141h4.992V25.895z M127.584,25.84
	l-4.629-3.086h9.257L127.584,25.84z M127.428,26.406l0.156,0.104l0.154-0.104l5.116-3.41v6.598h-10.542v-6.598L127.428,26.406z
	 M133.411,26.453h10.542v3.141h-10.542V26.453z M144.51,22.996l5.115,3.41l0.154,0.104l0.154-0.104l5.115-3.41v6.598H144.51V22.996z
	 M177.246,29.594h-4.99v-3.141h4.99V29.594z M173.557,33.293l-1.178-3.141h4.867v3.141H173.557z M180.945,61.04h-3.141v-4.992h3.141
	V61.04z M181.505,56.047h3.141v4.992h-3.141V56.047z M171.697,65.017v1.57h-1.291v-4.991h3.141v4.991h-1.291v-1.57H171.697z
	 M160.599,65.017v1.57h-1.291v-4.991h3.141v4.991h-1.291v-1.57H160.599z M155.607,56.047h3.142v4.992h-3.142V56.047z
	 M159.308,56.047h3.141v4.992h-3.141V56.047z M155.607,30.153h10.54v3.141h-10.54V30.153z M166.706,30.153h4.868l-1.178,3.141h-3.69
	V30.153z M170.406,55.491v-10.54h3.141v10.54H170.406z M173.547,56.047v4.992h-3.141v-4.992H173.547z M170.441,44.392l1.535-12.271
	l1.533,12.271H170.441z M171.406,32.19l-1.525,12.202h-3.052L171.406,32.19z M169.848,44.951v10.54h-3.142v-10.54H169.848z
	 M169.848,56.047v4.992h-3.142v-4.992H169.848z M166.147,61.04h-3.141v-4.992h3.141V61.04z M163.007,61.596h3.141v4.991h-3.141
	V61.596z M166.706,61.596h3.142v4.991h-3.142V61.596z M174.105,61.596h3.141v4.991h-3.141V61.596z M177.805,61.596h3.141v4.991
	h-3.141V61.596z M177.246,61.04h-3.141v-4.992h3.141V61.04z M174.105,55.491v-10.54h3.141v10.54H174.105z M174.072,44.392
	l-1.525-12.202l4.576,12.202H174.072z M171.697,29.594h-4.991v-3.141h4.991V29.594z M166.147,29.594h-10.54v-3.141h10.54V29.594z
	 M155.049,30.153v3.141H144.51v-3.141H155.049z M155.049,33.852v3.141H144.51v-3.141H155.049z M155.049,40.692H144.51v-3.141h10.539
	V40.692z M144.51,41.251h10.539v3.141H144.51V41.251z M155.607,33.852h14.58l-3.481,9.282v-2.211h-0.559v3.469h-10.54V33.852z
	 M166.147,44.951v10.54h-3.141v-3.469h-0.559v3.469h-3.141v-3.469h-0.559v3.469h-3.142v-10.54H166.147z M155.607,61.596h3.142v4.991
	h-3.142V61.596z M159.308,67.146h1.291v8.97h0.559v-8.97h1.291v10.54h-3.141V67.146z M163.007,67.146h3.141v10.54h-3.141V67.146z
	 M166.706,67.146h3.142v10.54h-3.142V67.146z M170.406,67.146h1.291v8.97h0.559v-8.97h1.291v10.54h-3.141V67.146z M174.105,67.146
	h3.141v10.54h-3.141V67.146z M177.805,67.146h3.141v10.54h-3.141V67.146z M181.505,67.146h1.291v8.97h0.559v-8.97h1.291v10.54
	h-3.141V67.146z M183.354,66.587v-1.57h-0.559v1.57h-1.291v-4.991h3.141v4.991H183.354z M185.204,61.596h3.141v4.991h-3.141V61.596z
	 M188.903,56.047h4.816l-4.816,9.638V56.047z M188.345,61.04h-3.141v-4.992h3.141V61.04z M185.204,55.491v-3.469h-0.559v3.469
	h-3.141v-3.469h-0.56v3.469h-3.141v-10.54h10.54v10.54H185.204z M177.805,33.293v-3.141h10.54v3.141H177.805z M183.075,25.84
	l-4.63-3.086h9.259L183.075,25.84z M177.246,25.895h-10.54v-3.141h10.54V25.895z M166.147,25.895h-10.54v-3.141h10.54V25.895z
	 M155.049,19.054v3.141H144.51v-3.141H155.049z M143.953,22.195h-4.991v-3.141h4.991V22.195z M138.403,22.195h-4.992v-3.141h4.992
	V22.195z M133.411,18.498v-3.143h4.992v3.143H133.411z M134.054,11.655h4.35v2.9L134.054,11.655z M138.403,7.399h-4.992V4.256h4.992
	V7.399z M132.854,7.399h-5.187l-4.713-3.143h9.899V7.399z M121.756,11.099h-4.991V7.956h4.991V11.099z M121.756,11.655v3.143h-4.991
	v-3.143H121.756z M121.756,15.354v3.143h-4.991v-3.143H121.756z M121.756,19.054v3.141h-4.991v-3.141H121.756z M121.756,22.753
	v3.141h-4.991v-3.141H121.756z M122.313,30.153h10.542v3.141h-10.542V30.153z M133.411,30.153h10.542v3.141h-10.542V30.153z
	 M143.953,33.852v10.54h-10.542v-10.54H143.953z M155.049,44.951v21.637h-21.638V44.951H155.049z M138.231,67.146l-4.82,9.638
	v-9.638H138.231z M133.411,78.245h10.542v4.99h-10.542V78.245z M144.51,83.793h10.539v3.615c-0.992-1.936-3.002-3.225-5.27-3.225
	c-2.266,0-4.275,1.289-5.27,3.227V83.793z M144.51,83.235v-4.99h10.539v4.99H144.51z M155.607,78.245h3.142v4.99h-3.142V78.245z
	 M159.308,78.245h3.141v4.99h-3.141V78.245z M163.007,78.245h3.141v4.99h-3.141V78.245z M166.706,78.245h3.142v4.99h-3.142V78.245z
	 M170.406,78.245h3.141v4.99h-3.141V78.245z M174.105,78.245h3.141v4.99h-3.141V78.245z M177.805,78.245h3.141v4.99h-3.141V78.245z
	 M181.505,78.245h3.141v4.99h-3.141V78.245z M185.204,78.245h3.141v4.99h-3.141V78.245z M185.204,77.686v-10.54h3.141v10.54H185.204
	z M194.174,56.393l5.096,10.194h-10.194L194.174,56.393z M199.443,44.392h-10.54v-6.84h10.54V44.392z M199.443,36.993h-10.54v-3.141
	h10.54V36.993z M199.443,33.293h-10.54v-3.141h10.54V33.293z M199.443,29.594h-10.54v-3.141h10.54V29.594z M199.443,25.895h-10.54
	v-3.141h10.54V25.895z M199.443,22.195h-21.639V0.557h21.639V22.195z M177.246,22.195h-21.639V0.557h21.639V22.195z M155.049,18.255
	l-10.662-7.11l-0.434-0.289v0.52v7.122h-4.991V3.977V3.699h-0.279h-5.271V0.557h21.638V18.255z M132.854,3.699h-10.819h-0.279v0.277
	v3.422h-4.991V0.557h16.09V3.699z M116.206,3.699h-4.99V0.557h4.99V3.699z M116.206,4.256v3.143h-4.99V4.256H116.206z
	 M116.206,7.956v3.143h-4.99V7.956H116.206z M116.206,11.655v3.143h-4.99v-3.143H116.206z M116.206,15.354v3.143h-4.99v-3.143
	H116.206z M116.206,19.054v3.141h-4.99v-3.141H116.206z M116.206,22.753v3.141h-4.99v-3.141H116.206z M121.756,26.453v6.84h-10.54
	v-6.84H121.756z M132.854,33.852v10.54h-21.639v-10.54H132.854z M132.854,44.951v21.637h-21.639V44.951H132.854z M132.854,67.146
	v16.089h-21.639V67.146H132.854z M121.756,83.793v3.617c-0.994-1.938-3.005-3.227-5.271-3.227c-2.268,0-4.277,1.289-5.27,3.225
	v-3.615H121.756z M116.485,84.743c2.464,0,4.597,1.682,5.198,4.042h-10.396C111.89,86.424,114.021,84.743,116.485,84.743z
	 M127.584,84.743c2.463,0,4.595,1.682,5.198,4.042h-10.396C122.988,86.424,125.119,84.743,127.584,84.743z M138.683,84.743
	c2.463,0,4.594,1.682,5.196,4.042h-10.394C134.087,86.424,136.218,84.743,138.683,84.743z M149.779,84.743
	c2.465,0,4.596,1.682,5.197,4.042h-10.393C145.186,86.424,147.316,84.743,149.779,84.743z M155.607,83.793h10.54v4.991h-10.54
	V83.793z M166.706,83.793h10.54v4.991h-10.54V83.793z M177.805,83.793h10.54v4.991h-10.54V83.793z M188.903,83.793h10.54v4.991
	h-10.54V83.793z M188.903,83.235v-4.99h10.54v4.99H188.903z M188.903,77.686v-10.54h10.54v10.54H188.903z M194.625,56.047h4.818
	v9.638L194.625,56.047z"/>
</svg>
