<?xml version="1.0" encoding="UTF-8" standalone="no"?><!DOCTYPE svg PUBLIC "-//W3C//DTD SVG 1.1//EN" "http://www.w3.org/Graphics/SVG/1.1/DTD/svg11.dtd"><svg width="100%" height="100%" viewBox="0 0 195 135" version="1.1" xmlns="http://www.w3.org/2000/svg" xmlns:xlink="http://www.w3.org/1999/xlink" xml:space="preserve" xmlns:serif="http://www.serif.com/" style="fill-rule:evenodd;clip-rule:evenodd;stroke-miterlimit:10;"><rect x="0" y="0" width="195" height="135" style="fill:#4e4e4e;"/><g><rect x="82.604" y="95.244" width="29.787" height="24.092" style="fill:#d2d2d2;"/><path d="M75.386,118.747c0,0 7.207,0.494 22.113,0.494c14.812,0 22.112,-0.494 22.112,-0.494c0.207,0.11 0.379,0.377 0.379,0.59c0,0.212 -0.379,0.59 -0.379,0.59c0,0 -29.481,-0.141 -44.226,0c0,0 -0.378,-0.378 -0.378,-0.59c0,-0.213 0.172,-0.48 0.378,-0.59l0.001,0Z" style="fill:#f4f4f4;fill-rule:nonzero;"/><path d="M163.32,20.123c0,-2.786 -2.262,-5.048 -5.048,-5.048l-121.544,0c-2.786,0 -5.048,2.262 -5.048,5.048l0,77.663c0,2.786 2.262,5.048 5.048,5.048l121.544,0c2.786,0 5.048,-2.262 5.048,-5.048l0,-77.663Z"/><path d="M36.484,15.075c-2.662,0 -4.804,2.142 -4.804,4.803l0,67.455l131.64,0l0,-67.455c0,-2.661 -2.143,-4.803 -4.805,-4.803l-122.029,0l-0.002,0Z" style="fill:#2b2b2b;fill-rule:nonzero;"/><path d="M36.484,15.075c-2.662,0 -4.804,2.142 -4.804,4.803l0,67.455l131.64,0l0,-67.455c0,-2.661 -2.143,-4.803 -4.805,-4.803l-122.029,0l-0.002,0Z" style="fill:#b3b3b3;fill-rule:nonzero;"/><circle cx="97.5" cy="95.085" r="3.844" style="fill:#b1b1b1;"/><path d="M36.484,15.075c-2.662,0 -4.804,2.142 -4.804,4.803l0,67.455l129.79,-71.244c-0.814,-0.635 -1.836,-1.016 -2.953,-1.016l-122.03,0l-0.003,0.002Z" style="fill:#1c1c1c;fill-opacity:0.0745098;fill-rule:nonzero;"/><rect x="34.733" y="17.92" width="125.296" height="66.682" style="fill:#0b0021;"/></g><g><path d="M67.162,10.138l-22.546,0c-0.566,0 -1.025,-0.468 -1.025,-1.044c0,-0.577 0.459,-1.044 1.025,-1.044l22.546,0c0.566,0 1.025,0.467 1.025,1.044c0,0.576 -0.459,1.044 -1.025,1.044Z" style="fill:#c7cfe2;fill-rule:nonzero;"/><path d="M32.318,10.138l-22.546,0c-0.566,0 -1.025,-0.468 -1.025,-1.044c0,-0.577 0.459,-1.044 1.025,-1.044l22.546,0c0.566,0 1.025,0.467 1.025,1.044c0,0.576 -0.459,1.044 -1.025,1.044Z" style="fill:#c7cfe2;fill-rule:nonzero;"/><path d="M21.045,5.963c-0.566,0 -1.025,0.467 -1.025,1.043l0,5.219l2.049,0l0,-5.219c0.001,-0.576 -0.458,-1.043 -1.024,-1.043Z" style="fill:#959cb3;fill-rule:nonzero;"/><path d="M55.889,5.963c-0.566,0 -1.025,0.467 -1.025,1.043l0,5.219l2.05,0l0,-5.219c0,-0.576 -0.459,-1.043 -1.025,-1.043Z" style="fill:#959cb3;fill-rule:nonzero;"/><path d="M34.88,26.838c-0.849,0 -1.537,-0.701 -1.537,-1.565l0,-3.132c0,-0.864 0.688,-1.565 1.537,-1.565c0.849,0 1.537,0.701 1.537,1.565l0,3.132c0,0.864 -0.688,1.565 -1.537,1.565Z" style="fill:#464655;fill-rule:nonzero;"/><path d="M42.054,26.838c-0.849,0 -1.537,-0.701 -1.537,-1.565l0,-3.132c0,-0.864 0.688,-1.565 1.537,-1.565c0.849,0 1.537,0.701 1.537,1.565l0,3.132c0,0.864 -0.688,1.565 -1.537,1.565Z" style="fill:#464655;fill-rule:nonzero;"/><rect x="36.417" y="22.663" width="4.099" height="10.438" style="fill:#5b5d6e;"/><path d="M26.169,41.451c-0.566,0 -1.025,-0.467 -1.025,-1.044c0,-9.297 1.674,-13.633 2.671,-15.389c0.264,-0.465 0.403,-1 0.403,-1.548l0,-2.894c0,-0.577 0.459,-1.044 1.025,-1.044c0.566,0 1.025,0.467 1.025,1.044l0,2.894c0,0.915 -0.235,1.812 -0.679,2.593c-0.72,1.268 -2.395,5.205 -2.395,14.344c0,0.577 -0.459,1.044 -1.025,1.044Z" style="fill:#c7cfe2;fill-rule:nonzero;"/><path d="M50.765,41.451c-0.566,0 -1.025,-0.467 -1.025,-1.044c0,-9.139 -1.675,-13.076 -2.396,-14.344c-0.444,-0.781 -0.679,-1.678 -0.679,-2.593l0,-2.894c0,-0.577 0.459,-1.044 1.025,-1.044c0.566,0 1.025,0.467 1.025,1.044l0,2.894c0,0.548 0.14,1.084 0.403,1.547c0.998,1.757 2.672,6.093 2.672,15.39c0,0.577 -0.459,1.044 -1.025,1.044Z" style="fill:#c7cfe2;fill-rule:nonzero;"/><path d="M29.243,19.532l-1.025,0l0,1.044c0,0.576 0.459,1.043 1.025,1.043l3.075,0l0,-2.087l-3.075,0Z" style="fill:#afb9d2;fill-rule:nonzero;"/><path d="M47.69,19.532l-3.074,0l0,2.087l3.074,0c0.566,0 1.025,-0.467 1.025,-1.043l0,-1.044l-1.025,0l0,0Z" style="fill:#afb9d2;fill-rule:nonzero;"/><path d="M24.119,13.269l-6.149,0l0.742,-1.511c0.173,-0.353 0.528,-0.576 0.916,-0.576l2.833,0c0.388,0 0.743,0.223 0.916,0.576l0.742,1.511Z" style="fill:#82889d;fill-rule:nonzero;"/><rect x="17.97" y="13.269" width="6.149" height="2.088" style="fill:#5b5d6e;"/><path d="M58.963,13.269l-6.149,0l0.742,-1.511c0.174,-0.353 0.528,-0.576 0.917,-0.576l2.832,0c0.388,0 0.743,0.223 0.917,0.576l0.741,1.511Z" style="fill:#82889d;fill-rule:nonzero;"/><rect x="52.814" y="13.269" width="6.149" height="2.088" style="fill:#5b5d6e;"/><path d="M59.988,17.444l-43.043,0c-0.566,0 -1.025,-0.467 -1.025,-1.044c0,-0.576 0.459,-1.043 1.025,-1.043l43.043,0c0.566,0 1.025,0.467 1.025,1.043c0,0.577 -0.459,1.044 -1.025,1.044Z" style="fill:#e4eaf6;fill-rule:nonzero;"/><path d="M47.623,13.158l-4.058,-0.413c-3.39,-0.346 -6.806,-0.346 -10.197,0l-4.058,0.413c-0.706,0.072 -1.366,0.39 -1.868,0.902l-1.273,1.297l24.596,0l-1.274,-1.297c-0.502,-0.512 -1.162,-0.83 -1.868,-0.902Z" style="fill:#d7deed;fill-rule:nonzero;"/><path d="M23.094,17.444l1.15,1.171c0.576,0.587 1.358,0.917 2.174,0.917l2.313,0c0.968,0 1.879,0.464 2.459,1.252l0.923,1.253c0.774,1.051 1.989,1.67 3.279,1.67l6.149,0c1.291,0 2.506,-0.619 3.28,-1.67l0.922,-1.253c0.581,-0.788 1.492,-1.252 2.46,-1.252l2.313,0c0.815,0 1.598,-0.33 2.174,-0.917l1.149,-1.171l-30.745,0Z" style="fill:#d7deed;fill-rule:nonzero;"/><rect x="31.549" y="34.667" width="3.459" height="3.131" style="fill:#5b5d6e;"/><path d="M45.641,40.407l-10.249,0c-0.566,0 -1.025,-0.467 -1.025,-1.043l0,-6.263c0,-0.577 0.459,-1.044 1.025,-1.044l10.249,0c0.566,0 1.024,0.467 1.024,1.044l0,6.263c0,0.576 -0.458,1.043 -1.024,1.043Z" style="fill:#959cb3;fill-rule:nonzero;"/><path d="M31.293,38.32l-1.025,0c-0.566,0 -1.025,-0.468 -1.025,-1.044l0,-2.088c0,-0.576 0.459,-1.043 1.025,-1.043l1.025,0c0.566,0 1.025,0.467 1.025,1.043l0,2.088c0,0.577 -0.459,1.044 -1.025,1.044Z" style="fill:#c5d0e4;fill-rule:nonzero;"/><ellipse cx="42.566" cy="36.232" rx="3.075" ry="3.131" style="fill:#464655;"/><ellipse cx="42.566" cy="36.232" rx="1.025" ry="1.044" style="fill:#e4eaf6;"/><ellipse cx="36.93" cy="37.798" rx="1.025" ry="1.044" style="fill:#e4eaf6;"/><path d="M37.442,35.71l-1.025,0c-0.283,0 -0.512,-0.233 -0.512,-0.522l0,-1.043c0,-0.289 0.229,-0.522 0.512,-0.522l1.025,0c0.283,0 0.512,0.233 0.512,0.522l0,1.043c0,0.289 -0.229,0.522 -0.512,0.522Z" style="fill:#789178;fill-rule:nonzero;"/><path d="M26.169,17.444l-1.025,0c-0.566,0 -1.025,-0.467 -1.025,-1.044l0,-1.043l3.075,0l0,1.043c0,0.577 -0.459,1.044 -1.025,1.044Z" style="fill:#ff6464;fill-rule:nonzero;"/><path d="M52.814,17.444l-1.024,0c-0.566,0 -1.025,-0.467 -1.025,-1.044l0,-1.043l3.074,0l0,1.043c0,0.577 -0.459,1.044 -1.025,1.044Z" style="fill:#ff6464;fill-rule:nonzero;"/><path d="M35.415,13.158l1.352,-0.413c0.279,-0.086 1.932,-0.15 4.276,-0.193c-2.558,-0.131 -5.124,-0.067 -7.675,0.193l-4.058,0.413c-0.706,0.072 -1.366,0.39 -1.868,0.901l-1.273,1.298l8.198,0l0.425,-1.297c0.167,-0.512 0.387,-0.83 0.623,-0.902Z" style="fill:#c7cfe2;fill-rule:nonzero;"/><path d="M36.349,22.037l-0.308,-1.253c-0.193,-0.788 -0.497,-1.252 -0.819,-1.252l-0.772,0c-0.271,0 -0.532,-0.33 -0.724,-0.917l-0.383,-1.171l-10.249,0l1.15,1.171c0.576,0.587 1.358,0.917 2.174,0.917l2.313,0c0.968,0 1.879,0.464 2.46,1.252l0.922,1.253c0.774,1.051 1.989,1.67 3.279,1.67l2.05,0c-0.43,0 -0.835,-0.619 -1.093,-1.67Z" style="fill:#c7cfe2;fill-rule:nonzero;"/></g><g><clipPath id="_clip1"><rect x="54.616" y="28.868" width="20.23" height="20.23"/></clipPath><g clip-path="url(#_clip1)"><path id="rect34754" d="M60.556,29.083c-0.101,0.003 -0.197,0.045 -0.268,0.116l-1.187,1.187c-0.156,0.153 -0.159,0.403 -0.007,0.56c0.153,0.156 0.404,0.159 0.56,0.006c0.002,-0.002 0.004,-0.004 0.007,-0.007l0.511,-0.511l0,3.397l-0.791,0c-0.219,-0.003 -0.398,0.172 -0.402,0.39c-0.003,0.219 0.172,0.398 0.39,0.401c0.004,0.001 0.008,0.001 0.012,0l1.122,0c0.042,0.007 0.085,0.007 0.128,0l0.728,0c0.219,0.004 0.398,-0.171 0.401,-0.39c0.003,-0.218 -0.171,-0.398 -0.39,-0.401c-0.003,0 -0.007,0 -0.011,0l-0.396,0l0,-4.352c0,-0.219 -0.177,-0.396 -0.395,-0.396c-0.004,0 -0.008,0 -0.012,0Zm4.364,0c-0.101,0.003 -0.197,0.045 -0.268,0.116l-1.187,1.187c-0.158,0.151 -0.163,0.402 -0.012,0.559c0.152,0.158 0.402,0.163 0.56,0.012c0.004,-0.004 0.007,-0.008 0.011,-0.012l0.512,-0.511l0,3.397l-0.792,0c-0.218,-0.003 -0.398,0.172 -0.401,0.39c-0.003,0.219 0.172,0.398 0.39,0.401c0.004,0.001 0.008,0.001 0.011,0l1.123,0c0.042,0.007 0.085,0.007 0.128,0l0.728,0c0.218,0.004 0.398,-0.171 0.401,-0.39c0.003,-0.218 -0.171,-0.398 -0.39,-0.401c-0.004,0 -0.007,0 -0.011,0l-0.396,0l0,-4.352c0,-0.219 -0.177,-0.396 -0.396,-0.396c-0.003,0 -0.007,0 -0.011,0Zm-8.914,0.003c-0.76,0 -1.385,0.624 -1.385,1.385l0,2.77c0,0.76 0.625,1.385 1.385,1.385c0.761,0 1.385,-0.625 1.385,-1.385l0,-2.77c0,-0.761 -0.624,-1.385 -1.385,-1.385Zm13.091,0c-0.76,0 -1.384,0.624 -1.384,1.385l0,2.77c0,0.76 0.624,1.385 1.384,1.385c0.761,0 1.385,-0.625 1.385,-1.385l0,-2.77c0,-0.761 -0.624,-1.385 -1.385,-1.385Zm4.364,0c-0.76,0 -1.385,0.624 -1.385,1.385l0,2.77c0,0.76 0.625,1.385 1.385,1.385c0.761,0 1.385,-0.625 1.385,-1.385l0,-2.77c0,-0.761 -0.625,-1.385 -1.385,-1.385Zm-17.455,0.791c0.336,0 0.594,0.258 0.594,0.594l0,2.77c0,0.335 -0.258,0.593 -0.594,0.593c-0.335,0 -0.593,-0.258 -0.593,-0.593l0,-2.77c0,-0.336 0.258,-0.594 0.593,-0.594Zm13.091,0c0.336,0 0.594,0.258 0.594,0.594l0,2.77c0,0.335 -0.258,0.593 -0.594,0.593c-0.335,0 -0.593,-0.258 -0.593,-0.593l0,-2.77c0,-0.336 0.258,-0.594 0.593,-0.594Zm4.364,0c0.336,0 0.594,0.258 0.594,0.594l0,2.77c0,0.335 -0.258,0.593 -0.594,0.593c-0.335,0 -0.593,-0.258 -0.593,-0.593l0,-2.77c0,-0.336 0.257,-0.594 0.593,-0.594Zm-17.268,6.334c-0.101,0.003 -0.197,0.044 -0.269,0.116l-1.187,1.187c-0.154,0.154 -0.154,0.405 0.001,0.559c0.154,0.155 0.404,0.155 0.559,0l0.511,-0.511l0,3.397l-0.791,0c-0.218,-0.003 -0.398,0.172 -0.401,0.39c-0.003,0.219 0.171,0.398 0.39,0.401c0.004,0.001 0.007,0.001 0.011,0l1.122,0c0.043,0.007 0.086,0.007 0.129,0l0.727,0c0.219,0.004 0.399,-0.171 0.402,-0.39c0.003,-0.218 -0.172,-0.398 -0.39,-0.401c-0.004,0 -0.008,0 -0.012,0l-0.395,0l0,-4.352c0,-0.219 -0.177,-0.396 -0.396,-0.396c-0.004,0 -0.008,0 -0.011,0Zm8.727,0c-0.101,0.003 -0.197,0.044 -0.268,0.116l-1.187,1.187c-0.157,0.153 -0.16,0.403 -0.007,0.559c0.153,0.157 0.403,0.16 0.56,0.007c0.002,-0.002 0.004,-0.004 0.006,-0.007l0.512,-0.511l0,3.397l-0.792,0c-0.218,-0.003 -0.398,0.172 -0.401,0.39c-0.003,0.219 0.172,0.398 0.39,0.401c0.004,0.001 0.008,0.001 0.011,0l1.123,0c0.042,0.007 0.085,0.007 0.128,0l0.728,0c0.218,0.004 0.398,-0.171 0.401,-0.39c0.003,-0.218 -0.171,-0.398 -0.39,-0.401c-0.004,0 -0.007,0 -0.011,0l-0.396,0l0,-4.352c0,-0.219 -0.177,-0.396 -0.396,-0.396c-0.003,0 -0.007,0 -0.011,0Zm4.364,0c-0.101,0.003 -0.197,0.044 -0.269,0.116l-1.187,1.187c-0.156,0.153 -0.159,0.403 -0.006,0.559c0.152,0.157 0.403,0.16 0.559,0.007c0.003,-0.002 0.005,-0.004 0.007,-0.007l0.511,-0.511l0,3.397l-0.791,0c-0.218,-0.003 -0.398,0.172 -0.401,0.39c-0.003,0.219 0.171,0.398 0.39,0.401c0.004,0.001 0.007,0.001 0.011,0l1.122,0c0.043,0.007 0.086,0.007 0.129,0l0.727,0c0.219,0.004 0.399,-0.171 0.402,-0.39c0.003,-0.218 -0.172,-0.398 -0.39,-0.401c-0.004,0 -0.008,0 -0.011,0l-0.396,0l0,-4.352c0,-0.219 -0.177,-0.396 -0.396,-0.396c-0.004,0 -0.008,0 -0.011,0Zm-8.914,0.003c-0.76,0 -1.385,0.624 -1.385,1.385l0,2.769c0,0.761 0.625,1.385 1.385,1.385c0.76,0 1.385,-0.624 1.385,-1.385l0,-2.769c0,-0.761 -0.625,-1.385 -1.385,-1.385Zm13.091,0c-0.76,0 -1.385,0.624 -1.385,1.385l0,2.769c0,0.761 0.625,1.385 1.385,1.385c0.761,0 1.385,-0.624 1.385,-1.385l0,-2.769c0,-0.761 -0.625,-1.385 -1.385,-1.385Zm-13.091,0.791c0.336,0 0.594,0.258 0.594,0.594l0,2.769c0,0.336 -0.258,0.594 -0.594,0.594c-0.336,0 -0.594,-0.258 -0.594,-0.594l0,-2.769c0,-0.336 0.258,-0.594 0.594,-0.594Zm13.091,0c0.336,0 0.594,0.258 0.594,0.594l0,2.769c0,0.336 -0.258,0.594 -0.594,0.594c-0.335,0 -0.593,-0.258 -0.593,-0.594l0,-2.769c0,-0.336 0.257,-0.594 0.593,-0.594Zm-17.268,6.334c-0.101,0.003 -0.197,0.044 -0.269,0.115l-1.187,1.187c-0.154,0.155 -0.154,0.406 0,0.56c0.155,0.155 0.405,0.155 0.56,0l0.511,-0.511l0,3.397l-0.791,0c-0.218,-0.003 -0.398,0.171 -0.401,0.39c-0.003,0.218 0.171,0.398 0.39,0.401c0.004,0 0.007,0 0.011,0l1.122,0c0.043,0.007 0.086,0.007 0.129,0l0.727,0c0.219,0.003 0.399,-0.172 0.402,-0.39c0.003,-0.219 -0.172,-0.398 -0.39,-0.401c-0.004,0 -0.008,0 -0.012,0l-0.395,0l0,-4.353c0,-0.218 -0.178,-0.395 -0.396,-0.395c-0.004,0 -0.008,0 -0.011,0Zm4.363,0c-0.101,0.003 -0.197,0.044 -0.268,0.115l-1.187,1.187c-0.155,0.155 -0.155,0.406 0,0.56c0.155,0.155 0.405,0.155 0.56,0l0.511,-0.511l0,3.397l-0.791,0c-0.219,-0.003 -0.398,0.171 -0.402,0.39c-0.003,0.218 0.172,0.398 0.39,0.401c0.004,0 0.008,0 0.012,0l1.122,0c0.042,0.007 0.085,0.007 0.128,0l0.728,0c0.219,0.003 0.398,-0.172 0.401,-0.39c0.003,-0.219 -0.171,-0.398 -0.39,-0.401c-0.003,0 -0.007,0 -0.011,0l-0.396,0l0,-4.353c0,-0.218 -0.177,-0.395 -0.395,-0.395c-0.004,0 -0.008,0 -0.012,0Zm4.364,0c-0.101,0.003 -0.197,0.044 -0.268,0.115l-1.187,1.187c-0.157,0.153 -0.16,0.404 -0.007,0.56c0.153,0.156 0.403,0.159 0.56,0.007c0.002,-0.002 0.004,-0.005 0.006,-0.007l0.512,-0.511l0,3.397l-0.792,0c-0.218,-0.003 -0.398,0.171 -0.401,0.39c-0.003,0.218 0.172,0.398 0.39,0.401c0.004,0 0.008,0 0.011,0l1.123,0c0.042,0.007 0.085,0.007 0.128,0l0.728,0c0.218,0.003 0.398,-0.172 0.401,-0.39c0.003,-0.219 -0.171,-0.398 -0.39,-0.401c-0.004,0 -0.007,0 -0.011,0l-0.396,0l0,-4.353c0,-0.218 -0.177,-0.395 -0.396,-0.395c-0.003,0 -0.007,0 -0.011,0Zm4.364,0c-0.101,0.003 -0.197,0.044 -0.269,0.115l-1.187,1.187c-0.156,0.153 -0.159,0.404 -0.006,0.56c0.152,0.156 0.403,0.159 0.559,0.007c0.003,-0.002 0.005,-0.005 0.007,-0.007l0.511,-0.511l0,3.397l-0.791,0c-0.218,-0.003 -0.398,0.171 -0.401,0.39c-0.003,0.218 0.171,0.398 0.39,0.401c0.004,0 0.007,0 0.011,0l1.122,0c0.043,0.007 0.086,0.007 0.129,0l0.727,0c0.219,0.003 0.399,-0.172 0.402,-0.39c0.003,-0.219 -0.172,-0.398 -0.39,-0.401c-0.004,0 -0.008,0 -0.011,0l-0.396,0l0,-4.353c0,-0.218 -0.177,-0.395 -0.396,-0.395c-0.004,0 -0.008,0 -0.011,0Zm4.177,0.002c-0.76,0 -1.385,0.625 -1.385,1.385l0,2.77c0,0.76 0.625,1.385 1.385,1.385c0.761,0 1.385,-0.625 1.385,-1.385l0,-2.77c0,-0.76 -0.625,-1.385 -1.385,-1.385Zm0,0.792c0.336,0 0.594,0.258 0.594,0.593l0,2.77c0,0.336 -0.258,0.594 -0.594,0.594c-0.335,0 -0.593,-0.258 -0.593,-0.594l0,-2.77c0,-0.335 0.257,-0.593 0.593,-0.593Z" style="fill:#f2f2f2;fill-rule:nonzero;"/></g><clipPath id="_clip2"><rect x="70.678" y="36.713" width="15.644" height="15.644"/></clipPath><g clip-path="url(#_clip2)"><path id="rect347541" serif:id="rect34754" d="M75.272,36.879c-0.078,0.002 -0.152,0.034 -0.207,0.089l-0.918,0.918c-0.121,0.118 -0.123,0.312 -0.005,0.433c0.118,0.121 0.312,0.123 0.432,0.005c0.002,-0.002 0.004,-0.003 0.006,-0.005l0.395,-0.395l0,2.626l-0.612,0c-0.169,-0.002 -0.308,0.133 -0.31,0.302c-0.003,0.169 0.132,0.308 0.301,0.31c0.003,0 0.006,0 0.009,0l0.868,0c0.033,0.006 0.066,0.006 0.099,0l0.563,0c0.169,0.003 0.308,-0.132 0.31,-0.301c0.003,-0.169 -0.132,-0.308 -0.301,-0.311c-0.003,0 -0.006,0 -0.009,0l-0.306,0l0,-3.365c0,-0.169 -0.137,-0.306 -0.306,-0.306c-0.003,0 -0.006,0 -0.009,0Zm3.375,0c-0.078,0.002 -0.153,0.034 -0.208,0.089l-0.918,0.918c-0.122,0.117 -0.126,0.311 -0.009,0.433c0.118,0.122 0.311,0.126 0.433,0.009c0.003,-0.003 0.006,-0.006 0.009,-0.009l0.396,-0.396l0,2.627l-0.612,0c-0.169,-0.002 -0.308,0.133 -0.311,0.302c-0.002,0.169 0.133,0.308 0.302,0.31c0.003,0 0.006,0 0.009,0l0.867,0c0.033,0.006 0.067,0.006 0.1,0l0.562,0c0.169,0.003 0.308,-0.132 0.311,-0.301c0.002,-0.169 -0.133,-0.308 -0.302,-0.311c-0.003,0 -0.006,0 -0.009,0l-0.306,0l0,-3.365c0,-0.169 -0.137,-0.306 -0.306,-0.306c-0.003,0 -0.006,0 -0.008,0Zm-6.893,0.002c-0.588,0 -1.071,0.483 -1.071,1.071l0,2.142c0,0.588 0.483,1.071 1.071,1.071c0.588,0 1.071,-0.483 1.071,-1.071l0,-2.142c0,-0.588 -0.483,-1.071 -1.071,-1.071Zm10.123,0c-0.588,0 -1.071,0.483 -1.071,1.071l0,2.142c0,0.588 0.483,1.071 1.071,1.071c0.588,0 1.071,-0.483 1.071,-1.071l0,-2.142c0,-0.588 -0.483,-1.071 -1.071,-1.071Zm3.374,0c-0.588,0 -1.07,0.483 -1.07,1.071l0,2.142c0,0.588 0.482,1.071 1.07,1.071c0.588,0 1.071,-0.483 1.071,-1.071l0,-2.142c0,-0.588 -0.483,-1.071 -1.071,-1.071Zm-13.497,0.612c0.259,0 0.459,0.2 0.459,0.459l0,2.142c0,0.259 -0.2,0.459 -0.459,0.459c-0.26,0 -0.459,-0.2 -0.459,-0.459l0,-2.142c0,-0.26 0.199,-0.459 0.459,-0.459Zm10.123,0c0.259,0 0.459,0.2 0.459,0.459l0,2.142c0,0.259 -0.2,0.459 -0.459,0.459c-0.26,0 -0.459,-0.2 -0.459,-0.459l0,-2.142c0,-0.26 0.199,-0.459 0.459,-0.459Zm3.374,0c0.26,0 0.459,0.2 0.459,0.459l0,2.142c0,0.259 -0.199,0.459 -0.459,0.459c-0.259,0 -0.459,-0.2 -0.459,-0.459l0,-2.142c0,-0.26 0.2,-0.459 0.459,-0.459Zm-13.353,4.898c-0.078,0.002 -0.152,0.034 -0.208,0.089l-0.918,0.918c-0.119,0.12 -0.119,0.314 0.001,0.433c0.119,0.119 0.313,0.119 0.432,0l0.396,-0.396l0,2.627l-0.612,0c-0.169,-0.002 -0.308,0.133 -0.311,0.302c-0.002,0.169 0.133,0.308 0.302,0.31c0.003,0 0.006,0 0.009,0l0.868,0c0.032,0.006 0.066,0.006 0.099,0l0.563,0c0.168,0.003 0.307,-0.132 0.31,-0.301c0.002,-0.169 -0.133,-0.308 -0.302,-0.311c-0.003,0 -0.006,0 -0.008,0l-0.306,0l0,-3.365c0,-0.169 -0.137,-0.306 -0.306,-0.306c-0.003,0 -0.006,0 -0.009,0Zm6.749,0c-0.078,0.002 -0.153,0.034 -0.208,0.089l-0.918,0.918c-0.121,0.118 -0.123,0.312 -0.005,0.433c0.118,0.121 0.312,0.123 0.433,0.005c0.002,-0.002 0.003,-0.003 0.005,-0.005l0.396,-0.396l0,2.627l-0.612,0c-0.169,-0.002 -0.308,0.133 -0.311,0.302c-0.002,0.169 0.133,0.308 0.302,0.31c0.003,0 0.006,0 0.009,0l0.867,0c0.033,0.006 0.067,0.006 0.1,0l0.562,0c0.169,0.003 0.308,-0.132 0.311,-0.301c0.002,-0.169 -0.133,-0.308 -0.302,-0.311c-0.003,0 -0.006,0 -0.009,0l-0.306,0l0,-3.365c0,-0.169 -0.137,-0.306 -0.306,-0.306c-0.003,0 -0.006,0 -0.008,0Zm3.374,0c-0.078,0.002 -0.152,0.034 -0.207,0.089l-0.918,0.918c-0.121,0.118 -0.124,0.312 -0.005,0.433c0.118,0.121 0.311,0.123 0.432,0.005c0.002,-0.002 0.004,-0.003 0.005,-0.005l0.396,-0.396l0,2.627l-0.612,0c-0.169,-0.002 -0.308,0.133 -0.31,0.302c-0.003,0.169 0.132,0.308 0.301,0.31c0.003,0 0.006,0 0.009,0l0.868,0c0.033,0.006 0.066,0.006 0.099,0l0.563,0c0.169,0.003 0.308,-0.132 0.31,-0.301c0.002,-0.169 -0.133,-0.308 -0.302,-0.311c-0.002,0 -0.005,0 -0.008,0l-0.306,0l0,-3.365c0,-0.169 -0.137,-0.306 -0.306,-0.306c-0.003,0 -0.006,0 -0.009,0Zm-6.893,0.002c-0.588,0 -1.071,0.483 -1.071,1.071l0,2.142c0,0.588 0.483,1.071 1.071,1.071c0.588,0 1.071,-0.483 1.071,-1.071l0,-2.142c0,-0.588 -0.483,-1.071 -1.071,-1.071Zm10.123,0c-0.588,0 -1.07,0.483 -1.07,1.071l0,2.142c0,0.588 0.482,1.071 1.07,1.071c0.588,0 1.071,-0.483 1.071,-1.071l0,-2.142c0,-0.588 -0.483,-1.071 -1.071,-1.071Zm-10.123,0.612c0.26,0 0.459,0.199 0.459,0.459l0,2.142c0,0.259 -0.199,0.459 -0.459,0.459c-0.259,0 -0.459,-0.2 -0.459,-0.459l0,-2.142c0,-0.26 0.2,-0.459 0.459,-0.459Zm10.123,0c0.26,0 0.459,0.199 0.459,0.459l0,2.142c0,0.259 -0.199,0.459 -0.459,0.459c-0.259,0 -0.459,-0.2 -0.459,-0.459l0,-2.142c0,-0.26 0.2,-0.459 0.459,-0.459Zm-13.353,4.898c-0.078,0.002 -0.152,0.034 -0.208,0.089l-0.918,0.918c-0.119,0.12 -0.119,0.313 0,0.433c0.12,0.119 0.314,0.119 0.433,0l0.396,-0.396l0,2.627l-0.612,0c-0.169,-0.002 -0.308,0.133 -0.311,0.302c-0.002,0.169 0.133,0.308 0.302,0.31c0.003,0 0.006,0 0.009,0l0.868,0c0.032,0.005 0.066,0.005 0.099,0l0.563,0c0.168,0.002 0.307,-0.133 0.31,-0.302c0.002,-0.169 -0.133,-0.307 -0.302,-0.31c-0.003,0 -0.006,0 -0.008,0l-0.306,0l0,-3.366c0,-0.169 -0.138,-0.305 -0.307,-0.305c-0.002,0 -0.005,0 -0.008,0Zm3.374,0c-0.078,0.002 -0.152,0.034 -0.207,0.089l-0.918,0.918c-0.12,0.12 -0.12,0.313 0,0.433c0.119,0.119 0.313,0.119 0.433,0l0.395,-0.396l0,2.627l-0.612,0c-0.169,-0.002 -0.308,0.133 -0.31,0.302c-0.003,0.169 0.132,0.308 0.301,0.31c0.003,0 0.006,0 0.009,0l0.868,0c0.033,0.005 0.066,0.005 0.099,0l0.563,0c0.169,0.002 0.308,-0.133 0.31,-0.302c0.003,-0.169 -0.132,-0.307 -0.301,-0.31c-0.003,0 -0.006,0 -0.009,0l-0.306,0l0,-3.366c0,-0.169 -0.137,-0.305 -0.306,-0.305c-0.003,0 -0.006,0 -0.009,0Zm3.375,0c-0.078,0.002 -0.153,0.034 -0.208,0.089l-0.918,0.918c-0.121,0.118 -0.123,0.312 -0.005,0.433c0.118,0.121 0.312,0.123 0.433,0.005c0.002,-0.002 0.003,-0.003 0.005,-0.005l0.396,-0.396l0,2.627l-0.612,0c-0.169,-0.002 -0.308,0.133 -0.311,0.302c-0.002,0.169 0.133,0.308 0.302,0.31c0.003,0 0.006,0 0.009,0l0.867,0c0.033,0.005 0.067,0.005 0.1,0l0.562,0c0.169,0.002 0.308,-0.133 0.311,-0.302c0.002,-0.169 -0.133,-0.307 -0.302,-0.31c-0.003,0 -0.006,0 -0.009,0l-0.306,0l0,-3.366c0,-0.169 -0.137,-0.305 -0.306,-0.305c-0.003,0 -0.006,0 -0.008,0Zm3.374,0c-0.078,0.002 -0.152,0.034 -0.207,0.089l-0.918,0.918c-0.121,0.118 -0.124,0.312 -0.005,0.433c0.118,0.121 0.311,0.123 0.432,0.005c0.002,-0.002 0.004,-0.003 0.005,-0.005l0.396,-0.396l0,2.627l-0.612,0c-0.169,-0.002 -0.308,0.133 -0.31,0.302c-0.003,0.169 0.132,0.308 0.301,0.31c0.003,0 0.006,0 0.009,0l0.868,0c0.033,0.005 0.066,0.005 0.099,0l0.563,0c0.169,0.002 0.308,-0.133 0.31,-0.302c0.002,-0.169 -0.133,-0.307 -0.302,-0.31c-0.002,0 -0.005,0 -0.008,0l-0.306,0l0,-3.366c0,-0.169 -0.137,-0.305 -0.306,-0.305c-0.003,0 -0.006,0 -0.009,0Zm3.23,0.002c-0.588,0 -1.07,0.483 -1.07,1.071l0,2.141c0,0.588 0.482,1.071 1.07,1.071c0.588,0 1.071,-0.483 1.071,-1.071l0,-2.141c0,-0.588 -0.483,-1.071 -1.071,-1.071Zm0,0.612c0.26,0 0.459,0.199 0.459,0.459l0,2.141c0,0.26 -0.199,0.459 -0.459,0.459c-0.259,0 -0.459,-0.199 -0.459,-0.459l0,-2.141c0,-0.26 0.2,-0.459 0.459,-0.459Z" style="fill:#f2f2f2;fill-rule:nonzero;"/></g><clipPath id="_clip3"><rect x="82.875" y="43.986" width="10.067" height="10.067"/></clipPath><g clip-path="url(#_clip3)"><path id="rect347542" serif:id="rect34754" d="M85.831,44.093c-0.05,0.002 -0.098,0.022 -0.134,0.058l-0.59,0.591c-0.078,0.076 -0.08,0.2 -0.004,0.278c0.076,0.078 0.201,0.079 0.279,0.003c0.001,-0.001 0.002,-0.002 0.003,-0.003l0.255,-0.255l0,1.691l-0.394,0c-0.109,-0.002 -0.198,0.085 -0.2,0.194c-0.001,0.109 0.086,0.198 0.194,0.2c0.002,0 0.004,0 0.006,0l0.558,0c0.021,0.003 0.043,0.003 0.064,0l0.362,0c0.109,0.001 0.198,-0.086 0.2,-0.194c0.002,-0.109 -0.085,-0.199 -0.194,-0.2c-0.002,0 -0.004,0 -0.006,0l-0.197,0l0,-2.166c0,-0.109 -0.088,-0.197 -0.197,-0.197c-0.001,0 -0.003,0 -0.005,0Zm2.171,0c-0.05,0.002 -0.098,0.022 -0.133,0.058l-0.591,0.591c-0.078,0.075 -0.081,0.199 -0.006,0.278c0.076,0.078 0.2,0.081 0.279,0.006c0.002,-0.002 0.004,-0.004 0.006,-0.006l0.254,-0.255l0,1.691l-0.394,0c-0.108,-0.002 -0.198,0.085 -0.199,0.194c-0.002,0.109 0.085,0.198 0.194,0.2c0.002,0 0.003,0 0.005,0l0.559,0c0.021,0.003 0.042,0.003 0.064,0l0.362,0c0.108,0.001 0.198,-0.086 0.199,-0.194c0.002,-0.109 -0.085,-0.199 -0.194,-0.2c-0.001,0 -0.003,0 -0.005,0l-0.197,0l0,-2.166c0,-0.109 -0.088,-0.197 -0.197,-0.197c-0.002,0 -0.004,0 -0.006,0Zm-4.435,0.002c-0.379,0 -0.689,0.31 -0.689,0.689l0,1.378c0,0.378 0.31,0.689 0.689,0.689c0.378,0 0.689,-0.311 0.689,-0.689l0,-1.378c0,-0.379 -0.311,-0.689 -0.689,-0.689Zm6.514,0c-0.378,0 -0.689,0.31 -0.689,0.689l0,1.378c0,0.378 0.311,0.689 0.689,0.689c0.378,0 0.689,-0.311 0.689,-0.689l0,-1.378c0,-0.379 -0.311,-0.689 -0.689,-0.689Zm2.171,0c-0.378,0 -0.689,0.31 -0.689,0.689l0,1.378c0,0.378 0.311,0.689 0.689,0.689c0.379,0 0.69,-0.311 0.69,-0.689l0,-1.378c0,-0.379 -0.311,-0.689 -0.69,-0.689Zm-8.685,0.393c0.167,0 0.295,0.129 0.295,0.296l0,1.378c0,0.167 -0.128,0.295 -0.295,0.295c-0.167,0 -0.296,-0.128 -0.296,-0.295l0,-1.378c0,-0.167 0.129,-0.296 0.296,-0.296Zm6.514,0c0.167,0 0.295,0.129 0.295,0.296l0,1.378c0,0.167 -0.128,0.295 -0.295,0.295c-0.167,0 -0.295,-0.128 -0.295,-0.295l0,-1.378c0,-0.167 0.128,-0.296 0.295,-0.296Zm2.171,0c0.167,0 0.296,0.129 0.296,0.296l0,1.378c0,0.167 -0.129,0.295 -0.296,0.295c-0.167,0 -0.295,-0.128 -0.295,-0.295l0,-1.378c0,-0.167 0.128,-0.296 0.295,-0.296Zm-8.593,3.152c-0.05,0.002 -0.098,0.022 -0.133,0.058l-0.591,0.59c-0.077,0.077 -0.076,0.202 0,0.279c0.077,0.077 0.202,0.077 0.279,0l0.254,-0.255l0,1.691l-0.394,0c-0.108,-0.002 -0.198,0.085 -0.199,0.194c-0.002,0.109 0.085,0.198 0.194,0.2c0.002,0 0.004,0 0.005,0l0.559,0c0.021,0.003 0.043,0.003 0.064,0l0.362,0c0.109,0.001 0.198,-0.086 0.2,-0.195c0.001,-0.108 -0.086,-0.198 -0.194,-0.199c-0.002,0 -0.004,0 -0.006,0l-0.197,0l0,-2.166c0,-0.109 -0.088,-0.197 -0.197,-0.197c-0.002,0 -0.004,0 -0.006,0Zm4.343,0c-0.05,0.002 -0.098,0.022 -0.133,0.058l-0.591,0.59c-0.078,0.076 -0.079,0.201 -0.003,0.279c0.076,0.078 0.2,0.079 0.278,0.003c0.001,-0.001 0.002,-0.002 0.004,-0.003l0.254,-0.255l0,1.691l-0.394,0c-0.108,-0.002 -0.198,0.085 -0.199,0.194c-0.002,0.109 0.085,0.198 0.194,0.2c0.002,0 0.003,0 0.005,0l0.559,0c0.021,0.003 0.042,0.003 0.064,0l0.362,0c0.108,0.001 0.198,-0.086 0.199,-0.195c0.002,-0.108 -0.085,-0.198 -0.194,-0.199c-0.001,0 -0.003,0 -0.005,0l-0.197,0l0,-2.166c0,-0.109 -0.088,-0.197 -0.197,-0.197c-0.002,0 -0.004,0 -0.006,0Zm2.172,0c-0.051,0.002 -0.098,0.022 -0.134,0.058l-0.59,0.59c-0.078,0.076 -0.08,0.201 -0.004,0.279c0.076,0.078 0.201,0.079 0.279,0.003c0.001,-0.001 0.002,-0.002 0.003,-0.003l0.255,-0.255l0,1.691l-0.394,0c-0.109,-0.002 -0.198,0.085 -0.2,0.194c-0.001,0.109 0.085,0.198 0.194,0.2c0.002,0 0.004,0 0.006,0l0.558,0c0.021,0.003 0.043,0.003 0.064,0l0.362,0c0.109,0.001 0.198,-0.086 0.2,-0.195c0.001,-0.108 -0.086,-0.198 -0.194,-0.199c-0.002,0 -0.004,0 -0.006,0l-0.197,0l0,-2.166c0,-0.109 -0.088,-0.197 -0.197,-0.197c-0.001,0 -0.003,0 -0.005,0Zm-4.436,0.001c-0.378,0 -0.689,0.311 -0.689,0.69l0,1.378c0,0.378 0.311,0.689 0.689,0.689c0.379,0 0.689,-0.311 0.689,-0.689l0,-1.378c0,-0.379 -0.31,-0.69 -0.689,-0.69Zm6.514,0c-0.378,0 -0.689,0.311 -0.689,0.69l0,1.378c0,0.378 0.311,0.689 0.689,0.689c0.379,0 0.69,-0.311 0.69,-0.689l0,-1.378c0,-0.379 -0.311,-0.69 -0.69,-0.69Zm-6.514,0.394c0.167,0 0.296,0.129 0.296,0.296l0,1.378c0,0.167 -0.129,0.295 -0.296,0.295c-0.167,0 -0.295,-0.128 -0.295,-0.295l0,-1.378c0,-0.167 0.128,-0.296 0.295,-0.296Zm6.514,0c0.167,0 0.296,0.129 0.296,0.296l0,1.378c0,0.167 -0.129,0.295 -0.296,0.295c-0.167,0 -0.295,-0.128 -0.295,-0.295l0,-1.378c0,-0.167 0.128,-0.296 0.295,-0.296Zm-8.593,3.152c-0.05,0.001 -0.098,0.022 -0.133,0.058l-0.591,0.59c-0.077,0.077 -0.077,0.202 0,0.279c0.077,0.077 0.202,0.077 0.279,0l0.254,-0.255l0,1.691l-0.394,0c-0.108,-0.002 -0.198,0.085 -0.199,0.194c-0.002,0.108 0.085,0.198 0.194,0.199c0.002,0 0.004,0 0.005,0l0.559,0c0.021,0.004 0.043,0.004 0.064,0l0.362,0c0.109,0.002 0.198,-0.085 0.2,-0.194c0.001,-0.109 -0.086,-0.198 -0.194,-0.199c-0.002,-0.001 -0.004,-0.001 -0.006,0l-0.197,0l0,-2.166c0,-0.109 -0.088,-0.197 -0.197,-0.197c-0.002,0 -0.004,0 -0.006,0Zm2.172,0c-0.05,0.001 -0.098,0.022 -0.134,0.058l-0.59,0.59c-0.077,0.077 -0.077,0.202 0,0.279c0.077,0.077 0.201,0.077 0.278,0l0.255,-0.255l0,1.691l-0.394,0c-0.109,-0.002 -0.198,0.085 -0.2,0.194c-0.001,0.108 0.086,0.198 0.194,0.199c0.002,0 0.004,0 0.006,0l0.558,0c0.021,0.004 0.043,0.004 0.064,0l0.362,0c0.109,0.002 0.198,-0.085 0.2,-0.194c0.002,-0.109 -0.085,-0.198 -0.194,-0.199c-0.002,-0.001 -0.004,-0.001 -0.006,0l-0.197,0l0,-2.166c0,-0.109 -0.088,-0.197 -0.197,-0.197c-0.001,0 -0.003,0 -0.005,0Zm2.171,0c-0.05,0.001 -0.098,0.022 -0.133,0.058l-0.591,0.59c-0.078,0.076 -0.079,0.201 -0.003,0.279c0.076,0.077 0.2,0.079 0.278,0.003c0.001,-0.001 0.002,-0.002 0.004,-0.003l0.254,-0.255l0,1.691l-0.394,0c-0.108,-0.002 -0.198,0.085 -0.199,0.194c-0.002,0.108 0.085,0.198 0.194,0.199c0.002,0 0.003,0 0.005,0l0.559,0c0.021,0.004 0.042,0.004 0.064,0l0.362,0c0.108,0.002 0.198,-0.085 0.199,-0.194c0.002,-0.109 -0.085,-0.198 -0.194,-0.199c-0.001,-0.001 -0.003,-0.001 -0.005,0l-0.197,0l0,-2.166c0,-0.109 -0.088,-0.197 -0.197,-0.197c-0.002,0 -0.004,0 -0.006,0Zm2.172,0c-0.051,0.001 -0.098,0.022 -0.134,0.058l-0.59,0.59c-0.078,0.076 -0.08,0.201 -0.004,0.279c0.076,0.077 0.201,0.079 0.279,0.003c0.001,-0.001 0.002,-0.002 0.003,-0.003l0.255,-0.255l0,1.691l-0.394,0c-0.109,-0.002 -0.198,0.085 -0.2,0.194c-0.001,0.108 0.085,0.198 0.194,0.199c0.002,0 0.004,0 0.006,0l0.558,0c0.021,0.004 0.043,0.004 0.064,0l0.362,0c0.109,0.002 0.198,-0.085 0.2,-0.194c0.001,-0.109 -0.086,-0.198 -0.194,-0.199c-0.002,-0.001 -0.004,-0.001 -0.006,0l-0.197,0l0,-2.166c0,-0.109 -0.088,-0.197 -0.197,-0.197c-0.002,0 -0.003,0 -0.005,0Zm2.078,0.001c-0.378,0 -0.689,0.311 -0.689,0.689l0,1.379c0,0.378 0.311,0.689 0.689,0.689c0.379,0 0.69,-0.311 0.69,-0.689l0,-1.379c0,-0.378 -0.311,-0.689 -0.69,-0.689Zm0,0.394c0.167,0 0.296,0.128 0.296,0.295l0,1.379c0,0.167 -0.129,0.295 -0.296,0.295c-0.167,0 -0.295,-0.128 -0.295,-0.295l0,-1.379c0,-0.167 0.128,-0.295 0.295,-0.295Z" style="fill:#f2f2f2;fill-rule:nonzero;"/></g><clipPath id="_clip4"><rect x="90.941" y="48.7" width="6.277" height="6.277"/></clipPath><g clip-path="url(#_clip4)"><path id="rect347543" serif:id="rect34754" d="M92.784,48.767c-0.031,0.001 -0.061,0.014 -0.083,0.036l-0.368,0.368c-0.049,0.048 -0.05,0.125 -0.002,0.174c0.047,0.048 0.125,0.049 0.173,0.002c0.001,-0.001 0.002,-0.001 0.002,-0.002l0.159,-0.159l0,1.054l-0.246,0c-0.067,-0.001 -0.123,0.054 -0.124,0.121c-0.001,0.068 0.053,0.124 0.121,0.125c0.001,0 0.002,0 0.003,0l0.349,0c0.013,0.002 0.026,0.002 0.039,0l0.226,0c0.068,0.001 0.124,-0.053 0.125,-0.121c0.001,-0.068 -0.053,-0.124 -0.121,-0.125c-0.001,0 -0.003,0 -0.004,0l-0.123,0l0,-1.35c0,-0.068 -0.055,-0.123 -0.122,-0.123c-0.002,0 -0.003,0 -0.004,0Zm1.354,0c-0.031,0.001 -0.061,0.014 -0.083,0.036l-0.368,0.368c-0.049,0.047 -0.051,0.125 -0.004,0.174c0.047,0.049 0.125,0.05 0.174,0.003c0.001,-0.001 0.002,-0.002 0.003,-0.003l0.159,-0.159l0,1.054l-0.246,0c-0.067,-0.001 -0.123,0.054 -0.124,0.121c-0.001,0.068 0.053,0.124 0.121,0.125c0.001,0 0.002,0 0.003,0l0.349,0c0.013,0.002 0.026,0.002 0.039,0l0.226,0c0.068,0.001 0.124,-0.053 0.125,-0.121c0.001,-0.068 -0.053,-0.124 -0.121,-0.125c-0.001,0 -0.002,0 -0.004,0l-0.122,0l0,-1.35c0,-0.068 -0.055,-0.123 -0.123,-0.123c-0.001,0 -0.003,0 -0.004,0Zm-2.766,0.001c-0.236,0 -0.429,0.194 -0.429,0.43l0,0.859c0,0.236 0.193,0.43 0.429,0.43c0.236,0 0.43,-0.194 0.43,-0.43l0,-0.859c0,-0.236 -0.194,-0.43 -0.43,-0.43Zm4.062,0c-0.235,0 -0.429,0.194 -0.429,0.43l0,0.859c0,0.236 0.194,0.43 0.429,0.43c0.236,0 0.43,-0.194 0.43,-0.43l0,-0.859c0,-0.236 -0.194,-0.43 -0.43,-0.43Zm1.355,0c-0.236,0 -0.43,0.194 -0.43,0.43l0,0.859c0,0.236 0.194,0.43 0.43,0.43c0.236,0 0.429,-0.194 0.429,-0.43l0,-0.859c0,-0.236 -0.194,-0.43 -0.429,-0.43Zm-5.417,0.245c0.104,0 0.184,0.081 0.184,0.185l0,0.859c0,0.104 -0.08,0.184 -0.184,0.184c-0.104,0 -0.184,-0.08 -0.184,-0.184l0,-0.859c0,-0.105 0.08,-0.185 0.184,-0.185Zm4.062,0c0.105,0 0.185,0.081 0.185,0.185l0,0.859c0,0.104 -0.08,0.184 -0.185,0.184c-0.104,0 -0.184,-0.08 -0.184,-0.184l0,-0.859c0,-0.105 0.08,-0.185 0.184,-0.185Zm1.355,0c0.104,0 0.184,0.081 0.184,0.185l0,0.859c0,0.104 -0.08,0.184 -0.184,0.184c-0.105,0 -0.185,-0.08 -0.185,-0.184l0,-0.859c0,-0.105 0.08,-0.185 0.185,-0.185Zm-5.359,1.966c-0.031,0.001 -0.061,0.014 -0.083,0.036l-0.368,0.368c-0.048,0.048 -0.048,0.126 0,0.174c0.048,0.048 0.125,0.048 0.173,0l0.159,-0.159l0,1.054l-0.246,0c-0.067,-0.001 -0.123,0.053 -0.124,0.121c-0.001,0.068 0.053,0.124 0.121,0.125c0.001,0 0.002,0 0.003,0l0.349,0c0.013,0.002 0.026,0.002 0.039,0l0.226,0c0.068,0.001 0.124,-0.054 0.125,-0.121c0.001,-0.068 -0.054,-0.124 -0.121,-0.125c-0.001,0 -0.003,0 -0.004,0l-0.123,0l0,-1.35c0,-0.068 -0.055,-0.123 -0.122,-0.123c-0.002,0 -0.003,0 -0.004,0Zm2.708,0c-0.031,0.001 -0.061,0.014 -0.083,0.036l-0.368,0.368c-0.049,0.047 -0.05,0.125 -0.002,0.174c0.047,0.048 0.125,0.049 0.173,0.002c0.001,-0.001 0.002,-0.002 0.002,-0.002l0.159,-0.159l0,1.054l-0.246,0c-0.067,-0.001 -0.123,0.053 -0.124,0.121c-0.001,0.068 0.053,0.124 0.121,0.125c0.001,0 0.002,0 0.003,0l0.349,0c0.013,0.002 0.026,0.002 0.039,0l0.226,0c0.068,0.001 0.124,-0.054 0.125,-0.121c0.001,-0.068 -0.053,-0.124 -0.121,-0.125c-0.001,0 -0.002,0 -0.004,0l-0.122,0l0,-1.35c0,-0.068 -0.055,-0.123 -0.123,-0.123c-0.001,0 -0.003,0 -0.004,0Zm1.354,0c-0.031,0.001 -0.061,0.014 -0.083,0.036l-0.368,0.368c-0.049,0.047 -0.05,0.125 -0.002,0.174c0.047,0.048 0.125,0.049 0.173,0.002c0.001,-0.001 0.002,-0.002 0.002,-0.002l0.159,-0.159l0,1.054l-0.245,0c-0.068,-0.001 -0.124,0.053 -0.125,0.121c-0.001,0.068 0.053,0.124 0.121,0.125c0.001,0 0.002,0 0.003,0l0.349,0c0.013,0.002 0.026,0.002 0.04,0l0.225,0c0.068,0.001 0.124,-0.054 0.125,-0.121c0.001,-0.068 -0.053,-0.124 -0.121,-0.125c-0.001,0 -0.002,0 -0.004,0l-0.122,0l0,-1.35c0,-0.068 -0.055,-0.123 -0.123,-0.123c-0.001,0 -0.003,0 -0.004,0Zm-2.766,0.001c-0.236,0 -0.429,0.193 -0.429,0.429l0,0.86c0,0.236 0.193,0.43 0.429,0.43c0.236,0 0.43,-0.194 0.43,-0.43l0,-0.86c0,-0.236 -0.194,-0.429 -0.43,-0.429Zm4.063,0c-0.236,0 -0.43,0.193 -0.43,0.429l0,0.86c0,0.236 0.194,0.43 0.43,0.43c0.236,0 0.429,-0.194 0.429,-0.43l0,-0.86c0,-0.236 -0.194,-0.429 -0.429,-0.429Zm-4.063,0.245c0.104,0 0.185,0.08 0.185,0.184l0,0.86c0,0.104 -0.081,0.184 -0.185,0.184c-0.104,0 -0.184,-0.08 -0.184,-0.184l0,-0.86c0,-0.104 0.08,-0.184 0.184,-0.184Zm4.063,0c0.104,0 0.184,0.08 0.184,0.184l0,0.86c0,0.104 -0.08,0.184 -0.184,0.184c-0.105,0 -0.185,-0.08 -0.185,-0.184l0,-0.86c0,-0.104 0.08,-0.184 0.185,-0.184Zm-5.359,1.966c-0.031,0 -0.061,0.013 -0.083,0.035l-0.368,0.369c-0.048,0.048 -0.048,0.125 0,0.173c0.047,0.048 0.125,0.048 0.173,0l0.159,-0.158l0,1.054l-0.246,0c-0.067,-0.001 -0.123,0.053 -0.124,0.121c-0.001,0.068 0.053,0.123 0.121,0.124c0.001,0 0.002,0 0.003,0l0.349,0c0.013,0.003 0.026,0.003 0.039,0l0.226,0c0.068,0.001 0.124,-0.053 0.125,-0.121c0.001,-0.067 -0.054,-0.123 -0.121,-0.124c-0.001,0 -0.003,0 -0.004,0l-0.123,0l0,-1.351c0,-0.068 -0.055,-0.122 -0.122,-0.122c-0.002,0 -0.003,0 -0.004,0Zm1.354,0c-0.031,0 -0.061,0.013 -0.083,0.035l-0.368,0.369c-0.048,0.048 -0.048,0.125 0,0.173c0.048,0.048 0.125,0.048 0.173,0l0.159,-0.158l0,1.054l-0.246,0c-0.067,-0.001 -0.123,0.053 -0.124,0.121c-0.001,0.068 0.053,0.123 0.121,0.124c0.001,0 0.002,0 0.003,0l0.349,0c0.013,0.003 0.026,0.003 0.039,0l0.226,0c0.068,0.001 0.124,-0.053 0.125,-0.121c0.001,-0.067 -0.053,-0.123 -0.121,-0.124c-0.001,0 -0.003,0 -0.004,0l-0.123,0l0,-1.351c0,-0.068 -0.055,-0.122 -0.122,-0.122c-0.002,0 -0.003,0 -0.004,0Zm1.354,0c-0.031,0 -0.061,0.013 -0.083,0.035l-0.368,0.369c-0.049,0.047 -0.05,0.125 -0.002,0.173c0.047,0.049 0.125,0.05 0.173,0.002c0.001,0 0.002,-0.001 0.002,-0.002l0.159,-0.158l0,1.054l-0.246,0c-0.067,-0.001 -0.123,0.053 -0.124,0.121c-0.001,0.068 0.053,0.123 0.121,0.124c0.001,0 0.002,0 0.003,0l0.349,0c0.013,0.003 0.026,0.003 0.039,0l0.226,0c0.068,0.001 0.124,-0.053 0.125,-0.121c0.001,-0.067 -0.053,-0.123 -0.121,-0.124c-0.001,0 -0.002,0 -0.004,0l-0.122,0l0,-1.351c0,-0.068 -0.055,-0.122 -0.123,-0.122c-0.001,0 -0.003,0 -0.004,0Zm1.354,0c-0.031,0 -0.061,0.013 -0.083,0.035l-0.368,0.369c-0.049,0.047 -0.05,0.125 -0.002,0.173c0.047,0.049 0.125,0.05 0.173,0.002c0.001,0 0.002,-0.001 0.002,-0.002l0.159,-0.158l0,1.054l-0.245,0c-0.068,-0.001 -0.124,0.053 -0.125,0.121c-0.001,0.068 0.053,0.123 0.121,0.124c0.001,0 0.002,0 0.003,0l0.349,0c0.013,0.003 0.026,0.003 0.04,0l0.225,0c0.068,0.001 0.124,-0.053 0.125,-0.121c0.001,-0.067 -0.053,-0.123 -0.121,-0.124c-0.001,0 -0.002,0 -0.004,0l-0.122,0l0,-1.351c0,-0.068 -0.055,-0.122 -0.123,-0.122c-0.001,0 -0.003,0 -0.004,0Zm1.297,0c-0.236,0 -0.43,0.194 -0.43,0.43l0,0.86c0,0.236 0.194,0.429 0.43,0.429c0.236,0 0.429,-0.193 0.429,-0.429l0,-0.86c0,-0.236 -0.194,-0.43 -0.429,-0.43Zm0,0.246c0.104,0 0.184,0.08 0.184,0.184l0,0.86c0,0.104 -0.08,0.184 -0.184,0.184c-0.105,0 -0.185,-0.08 -0.185,-0.184l0,-0.86c0,-0.104 0.08,-0.184 0.185,-0.184Z" style="fill:#f2f2f2;fill-rule:nonzero;"/></g><clipPath id="_clip5"><rect x="96.132" y="52.142" width="3.541" height="3.541"/></clipPath><g clip-path="url(#_clip5)"><path id="rect347544" serif:id="rect34754" d="M97.172,52.179c-0.017,0.001 -0.034,0.008 -0.047,0.021l-0.208,0.207c-0.027,0.027 -0.027,0.071 -0.001,0.098c0.027,0.028 0.071,0.028 0.098,0.002c0.001,-0.001 0.001,-0.001 0.001,-0.002l0.09,-0.089l0,0.594l-0.139,0c-0.038,0 -0.069,0.03 -0.07,0.069c0,0.038 0.03,0.069 0.068,0.07c0.001,0 0.002,0 0.002,0l0.197,0c0.007,0.001 0.015,0.001 0.022,0l0.128,0c0.038,0 0.069,-0.03 0.07,-0.068c0,-0.039 -0.03,-0.07 -0.068,-0.071c-0.001,0 -0.002,0 -0.002,0l-0.07,0l0,-0.761c0,-0.039 -0.031,-0.07 -0.069,-0.07c-0.001,0 -0.001,0 -0.002,0Zm0.764,0c-0.018,0.001 -0.035,0.008 -0.047,0.021l-0.208,0.207c-0.027,0.027 -0.028,0.071 -0.002,0.098c0.027,0.028 0.071,0.029 0.098,0.002c0.001,0 0.001,-0.001 0.002,-0.002l0.09,-0.089l0,0.594l-0.139,0c-0.038,0 -0.07,0.03 -0.07,0.069c-0.001,0.038 0.03,0.069 0.068,0.07c0.001,0 0.001,0 0.002,0l0.197,0c0.007,0.001 0.015,0.001 0.022,0l0.127,0c0.039,0 0.07,-0.03 0.071,-0.068c0,-0.039 -0.03,-0.07 -0.069,-0.071c0,0 -0.001,0 -0.002,0l-0.069,0l0,-0.761c0,-0.039 -0.031,-0.07 -0.069,-0.07c-0.001,0 -0.001,0 -0.002,0Zm-1.56,0.001c-0.133,0 -0.243,0.109 -0.243,0.242l0,0.485c0,0.133 0.11,0.242 0.243,0.242c0.133,0 0.242,-0.109 0.242,-0.242l0,-0.485c0,-0.133 -0.109,-0.242 -0.242,-0.242Zm2.291,0c-0.133,0 -0.242,0.109 -0.242,0.242l0,0.485c0,0.133 0.109,0.242 0.242,0.242c0.133,0 0.242,-0.109 0.242,-0.242l0,-0.485c0,-0.133 -0.109,-0.242 -0.242,-0.242Zm0.764,0c-0.133,0 -0.243,0.109 -0.243,0.242l0,0.485c0,0.133 0.11,0.242 0.243,0.242c0.133,0 0.242,-0.109 0.242,-0.242l0,-0.485c0,-0.133 -0.109,-0.242 -0.242,-0.242Zm-3.055,0.138c0.059,0 0.104,0.046 0.104,0.104l0,0.485c0,0.059 -0.045,0.104 -0.104,0.104c-0.059,0 -0.104,-0.045 -0.104,-0.104l0,-0.485c0,-0.058 0.045,-0.104 0.104,-0.104Zm2.291,0c0.059,0 0.104,0.046 0.104,0.104l0,0.485c0,0.059 -0.045,0.104 -0.104,0.104c-0.059,0 -0.104,-0.045 -0.104,-0.104l0,-0.485c0,-0.058 0.045,-0.104 0.104,-0.104Zm0.764,0c0.058,0 0.104,0.046 0.104,0.104l0,0.485c0,0.059 -0.046,0.104 -0.104,0.104c-0.059,0 -0.104,-0.045 -0.104,-0.104l0,-0.485c0,-0.058 0.045,-0.104 0.104,-0.104Zm-3.023,1.109c-0.017,0 -0.034,0.008 -0.046,0.02l-0.208,0.208c-0.027,0.027 -0.027,0.071 0,0.098c0.027,0.027 0.071,0.027 0.098,0l0.089,-0.09l0,0.595l-0.138,0c-0.039,-0.001 -0.07,0.03 -0.071,0.068c0,0.038 0.031,0.07 0.069,0.07c0,0 0.001,0 0.002,0l0.196,0c0.008,0.002 0.015,0.002 0.023,0l0.127,0c0.038,0.001 0.07,-0.03 0.07,-0.068c0.001,-0.038 -0.03,-0.07 -0.068,-0.07c-0.001,0 -0.001,0 -0.002,0l-0.069,0l0,-0.762c0,-0.038 -0.031,-0.069 -0.07,-0.069c0,0 -0.001,0 -0.002,0Zm1.528,0c-0.018,0 -0.035,0.008 -0.047,0.02l-0.208,0.208c-0.027,0.027 -0.028,0.071 -0.001,0.098c0.027,0.027 0.071,0.028 0.098,0.001c0,0 0.001,-0.001 0.001,-0.001l0.09,-0.09l0,0.595l-0.139,0c-0.038,-0.001 -0.07,0.03 -0.07,0.068c-0.001,0.038 0.03,0.07 0.068,0.07c0.001,0 0.001,0 0.002,0l0.197,0c0.007,0.002 0.015,0.002 0.022,0l0.127,0c0.039,0.001 0.07,-0.03 0.071,-0.068c0,-0.038 -0.03,-0.07 -0.069,-0.07c0,0 -0.001,0 -0.002,0l-0.069,0l0,-0.762c0,-0.038 -0.031,-0.069 -0.069,-0.069c-0.001,0 -0.001,0 -0.002,0Zm0.764,0c-0.018,0 -0.035,0.008 -0.047,0.02l-0.208,0.208c-0.027,0.027 -0.028,0.071 -0.001,0.098c0.026,0.027 0.07,0.028 0.098,0.001c0,0 0,-0.001 0.001,-0.001l0.089,-0.09l0,0.595l-0.138,0c-0.038,-0.001 -0.07,0.03 -0.07,0.068c-0.001,0.038 0.03,0.07 0.068,0.07c0.001,0 0.001,0 0.002,0l0.196,0c0.008,0.002 0.015,0.002 0.023,0l0.127,0c0.038,0.001 0.07,-0.03 0.07,-0.068c0.001,-0.038 -0.03,-0.07 -0.068,-0.07c-0.001,0 -0.001,0 -0.002,0l-0.069,0l0,-0.762c0,-0.038 -0.031,-0.069 -0.069,-0.069c-0.001,0 -0.002,0 -0.002,0Zm-1.56,0c-0.134,0 -0.243,0.11 -0.243,0.243l0,0.485c0,0.133 0.109,0.242 0.243,0.242c0.133,0 0.242,-0.109 0.242,-0.242l0,-0.485c0,-0.133 -0.109,-0.243 -0.242,-0.243Zm2.291,0c-0.133,0 -0.243,0.11 -0.243,0.243l0,0.485c0,0.133 0.11,0.242 0.243,0.242c0.133,0 0.242,-0.109 0.242,-0.242l0,-0.485c0,-0.133 -0.109,-0.243 -0.242,-0.243Zm-2.291,0.139c0.058,0 0.103,0.045 0.103,0.104l0,0.485c0,0.058 -0.045,0.103 -0.103,0.103c-0.059,0 -0.104,-0.045 -0.104,-0.103l0,-0.485c0,-0.059 0.045,-0.104 0.104,-0.104Zm2.291,0c0.058,0 0.104,0.045 0.104,0.104l0,0.485c0,0.058 -0.046,0.103 -0.104,0.103c-0.059,0 -0.104,-0.045 -0.104,-0.103l0,-0.485c0,-0.059 0.045,-0.104 0.104,-0.104Zm-3.023,1.108c-0.017,0.001 -0.034,0.008 -0.046,0.021l-0.208,0.207c-0.027,0.027 -0.027,0.071 0,0.098c0.027,0.027 0.071,0.027 0.098,0l0.089,-0.089l0,0.594l-0.138,0c-0.039,0 -0.07,0.03 -0.071,0.069c0,0.038 0.031,0.069 0.069,0.07c0,0 0.001,0 0.002,0l0.196,0c0.008,0.001 0.015,0.001 0.023,0l0.127,0c0.038,0 0.07,-0.03 0.07,-0.068c0.001,-0.039 -0.03,-0.07 -0.068,-0.071c-0.001,0 -0.001,0 -0.002,0l-0.069,0l0,-0.761c0,-0.039 -0.031,-0.07 -0.07,-0.07c0,0 -0.001,0 -0.002,0Zm0.764,0c-0.017,0.001 -0.034,0.008 -0.047,0.021l-0.208,0.207c-0.027,0.027 -0.027,0.071 0,0.098c0.028,0.027 0.071,0.027 0.098,0l0.09,-0.089l0,0.594l-0.139,0c-0.038,0 -0.069,0.03 -0.07,0.069c0,0.038 0.03,0.069 0.068,0.07c0.001,0 0.002,0 0.002,0l0.197,0c0.007,0.001 0.015,0.001 0.022,0l0.128,0c0.038,0 0.069,-0.03 0.07,-0.068c0,-0.039 -0.03,-0.07 -0.068,-0.071c-0.001,0 -0.002,0 -0.002,0l-0.07,0l0,-0.761c0,-0.039 -0.031,-0.07 -0.069,-0.07c-0.001,0 -0.001,0 -0.002,0Zm0.764,0c-0.018,0.001 -0.035,0.008 -0.047,0.021l-0.208,0.207c-0.027,0.027 -0.028,0.071 -0.001,0.098c0.027,0.028 0.071,0.028 0.098,0.002c0,-0.001 0.001,-0.001 0.001,-0.002l0.09,-0.089l0,0.594l-0.139,0c-0.038,0 -0.07,0.03 -0.07,0.069c-0.001,0.038 0.03,0.069 0.068,0.07c0.001,0 0.001,0 0.002,0l0.197,0c0.007,0.001 0.015,0.001 0.022,0l0.127,0c0.039,0 0.07,-0.03 0.071,-0.068c0,-0.039 -0.03,-0.07 -0.069,-0.071c0,0 -0.001,0 -0.002,0l-0.069,0l0,-0.761c0,-0.039 -0.031,-0.07 -0.069,-0.07c-0.001,0 -0.001,0 -0.002,0Zm0.764,0c-0.018,0.001 -0.035,0.008 -0.047,0.021l-0.208,0.207c-0.027,0.027 -0.028,0.071 -0.001,0.098c0.026,0.028 0.07,0.028 0.098,0.002c0,-0.001 0,-0.001 0.001,-0.002l0.089,-0.089l0,0.594l-0.138,0c-0.038,0 -0.07,0.03 -0.07,0.069c-0.001,0.038 0.03,0.069 0.068,0.07c0.001,0 0.001,0 0.002,0l0.196,0c0.008,0.001 0.015,0.001 0.023,0l0.127,0c0.038,0 0.07,-0.03 0.07,-0.068c0.001,-0.039 -0.03,-0.07 -0.068,-0.071c-0.001,0 -0.001,0 -0.002,0l-0.069,0l0,-0.761c0,-0.039 -0.031,-0.07 -0.069,-0.07c-0.001,0 -0.002,0 -0.002,0Zm0.731,0.001c-0.133,0 -0.243,0.109 -0.243,0.242l0,0.485c0,0.133 0.11,0.242 0.243,0.242c0.133,0 0.242,-0.109 0.242,-0.242l0,-0.485c0,-0.133 -0.109,-0.242 -0.242,-0.242Zm0,0.138c0.058,0 0.104,0.046 0.104,0.104l0,0.485c0,0.059 -0.046,0.104 -0.104,0.104c-0.059,0 -0.104,-0.045 -0.104,-0.104l0,-0.485c0,-0.058 0.045,-0.104 0.104,-0.104Z" style="fill:#f2f2f2;fill-rule:nonzero;"/></g></g><g><path d="M42.826,57.854l2.716,0l0,-2.716l2.717,-2.717" style="fill:none;stroke:#41aaaa;stroke-width:0.66px;"/><path d="M48.259,55.138l2.716,-2.717l2.716,-2.716l2.716,0l2.717,-2.716" style="fill:none;stroke:#41aaaa;stroke-width:0.66px;"/><path d="M132.916,47.442l2.264,2.263l2.716,0l5.432,5.433l5.433,0" style="fill:none;stroke:#41aaaa;stroke-width:0.66px;"/><path d="M50.975,74.152l0,-2.717l-2.716,-2.716l-2.717,0l-2.716,-2.716" style="fill:none;stroke:#41aaaa;stroke-width:0.66px;"/><path d="M69.989,57.854l2.716,0" style="fill:none;stroke:#41aaaa;stroke-width:0.66px;"/><path d="M59.124,55.138l2.716,0l2.716,-2.717" style="fill:none;stroke:#41aaaa;stroke-width:0.66px;"/><path d="M116.618,51.969l2.264,-2.264l5.432,0" style="fill:none;stroke:#41aaaa;stroke-width:0.66px;"/><path d="M137.896,57.854l2.263,2.263" style="fill:none;stroke:#41aaaa;stroke-width:0.66px;"/><path d="M148.761,66.003l-2.716,0l-7.697,7.696" style="fill:none;stroke:#41aaaa;stroke-width:0.66px;"/><path d="M141.065,60.57l2.264,0" style="fill:none;stroke:#41aaaa;stroke-width:0.66px;"/><path d="M137.443,74.152l-2.263,0" style="fill:none;stroke:#41aaaa;stroke-width:0.66px;"/><path d="M50.975,63.286l2.716,0l2.716,2.717l2.717,0l2.263,2.263" style="fill:none;stroke:#41aaaa;stroke-width:0.66px;"/><path d="M67.273,68.719l-4.98,0" style="fill:none;stroke:#41aaaa;stroke-width:0.66px;"/><path d="M75.874,44.725l2.264,2.264l8.149,0l2.716,2.716l2.716,0l2.716,-2.716l2.717,0l2.716,2.716l5.432,0l2.717,-2.716l2.716,2.716l2.716,-2.716l2.717,0" style="fill:none;stroke:#41aaaa;stroke-width:0.66px;"/><path d="M56.86,44.273l2.264,0l2.716,2.716l2.716,-2.716l5.433,0l2.716,-2.717l2.264,2.264" style="fill:none;stroke:#41aaaa;stroke-width:0.66px;"/><path d="M66.82,74.152l-4.98,0" style="fill:none;stroke:#41aaaa;stroke-width:0.66px;"/><path d="M83.57,68.719l-8.149,8.149l-2.716,-2.716l-2.716,2.716l-2.264,-2.264" style="fill:none;stroke:#41aaaa;stroke-width:0.66px;"/><path d="M116.166,68.719l5.432,0l2.716,2.716l2.717,0" style="fill:none;stroke:#41aaaa;stroke-width:0.66px;"/><path d="M115.713,71.888l-2.264,2.264l-5.432,0" style="fill:none;stroke:#41aaaa;stroke-width:0.66px;"/><path d="M116.618,71.888l4.98,4.98" style="fill:none;stroke:#41aaaa;stroke-width:0.66px;"/><path d="M99.415,68.719l-4.98,0l-5.432,5.433l-2.716,-2.717" style="fill:none;stroke:#41aaaa;stroke-width:0.66px;"/><path d="M102.584,68.719l-2.264,0" style="fill:none;stroke:#41aaaa;stroke-width:0.66px;"/><path d="M146.045,60.57l-2.717,2.716l-2.716,0" style="fill:none;stroke:#41aaaa;stroke-width:0.66px;"/><rect x="45.316" y="46.762" width="0.453" height="0.453" style="fill:#41aaaa;"/><rect x="42.6" y="46.762" width="0.453" height="0.453" style="fill:#41aaaa;"/><rect x="39.883" y="52.195" width="0.453" height="0.453" style="fill:#41aaaa;"/><rect x="42.6" y="52.195" width="0.453" height="0.453" style="fill:#41aaaa;"/><rect x="48.032" y="57.627" width="0.453" height="0.453" style="fill:#41aaaa;"/><rect x="53.465" y="57.627" width="0.453" height="0.453" style="fill:#41aaaa;"/><rect x="45.316" y="60.344" width="0.453" height="0.453" style="fill:#41aaaa;"/><rect x="50.748" y="65.776" width="0.453" height="0.453" style="fill:#41aaaa;"/><rect x="53.465" y="68.493" width="0.453" height="0.453" style="fill:#41aaaa;"/><rect x="45.316" y="63.06" width="0.453" height="0.453" style="fill:#41aaaa;"/><rect x="42.6" y="68.492" width="0.453" height="0.453" style="fill:#41aaaa;"/><rect x="39.883" y="63.06" width="0.453" height="0.453" style="fill:#41aaaa;"/><rect x="56.181" y="52.195" width="0.453" height="0.453" style="fill:#41aaaa;"/><rect x="61.613" y="60.344" width="0.453" height="0.453" style="fill:#41aaaa;"/><rect x="61.613" y="44.046" width="0.453" height="0.453" style="fill:#41aaaa;"/><rect x="64.33" y="41.33" width="0.453" height="0.453" style="fill:#41aaaa;"/><rect x="69.762" y="41.33" width="0.453" height="0.453" style="fill:#41aaaa;"/><rect x="75.195" y="49.479" width="0.453" height="0.453" style="fill:#41aaaa;"/><rect x="80.628" y="44.046" width="0.453" height="0.453" style="fill:#41aaaa;"/><rect x="88.776" y="46.762" width="0.453" height="0.453" style="fill:#41aaaa;"/><rect x="94.209" y="41.33" width="0.453" height="0.453" style="fill:#41aaaa;"/><rect x="96.925" y="41.33" width="0.453" height="0.453" style="fill:#41aaaa;"/><rect x="115.939" y="41.33" width="0.453" height="0.453" style="fill:#41aaaa;"/><rect x="118.655" y="44.046" width="0.453" height="0.453" style="fill:#41aaaa;"/><rect x="124.088" y="54.911" width="0.453" height="0.453" style="fill:#41aaaa;"/><rect x="118.655" y="60.344" width="0.453" height="0.453" style="fill:#41aaaa;"/><rect x="118.655" y="65.776" width="0.453" height="0.453" style="fill:#41aaaa;"/><rect x="121.372" y="60.344" width="0.453" height="0.453" style="fill:#41aaaa;"/><rect x="126.804" y="57.627" width="0.453" height="0.453" style="fill:#41aaaa;"/><rect x="126.804" y="63.06" width="0.453" height="0.453" style="fill:#41aaaa;"/><rect x="99.641" y="52.195" width="0.453" height="0.453" style="fill:#41aaaa;"/><rect x="88.776" y="52.195" width="0.453" height="0.453" style="fill:#41aaaa;"/><rect x="77.911" y="41.33" width="0.453" height="0.453" style="fill:#41aaaa;"/><rect x="77.911" y="44.046" width="0.453" height="0.453" style="fill:#41aaaa;"/><rect x="75.195" y="52.195" width="0.453" height="0.453" style="fill:#41aaaa;"/><rect x="134.953" y="52.195" width="0.453" height="0.453" style="fill:#41aaaa;"/><rect x="137.669" y="54.911" width="0.453" height="0.453" style="fill:#41aaaa;"/><rect x="143.102" y="49.479" width="0.453" height="0.453" style="fill:#41aaaa;"/><rect x="145.818" y="46.762" width="0.453" height="0.453" style="fill:#41aaaa;"/><rect x="151.251" y="49.479" width="0.453" height="0.453" style="fill:#41aaaa;"/><rect x="151.251" y="54.911" width="0.453" height="0.453" style="fill:#41aaaa;"/><rect x="143.102" y="52.195" width="0.453" height="0.453" style="fill:#41aaaa;"/><rect x="126.804" y="68.493" width="0.453" height="0.453" style="fill:#41aaaa;"/><rect x="118.655" y="76.641" width="0.453" height="0.453" style="fill:#41aaaa;"/><rect x="113.223" y="71.209" width="0.453" height="0.453" style="fill:#41aaaa;"/><rect x="96.925" y="76.641" width="0.453" height="0.453" style="fill:#41aaaa;"/><rect x="80.627" y="76.641" width="0.453" height="0.453" style="fill:#41aaaa;"/><rect x="72.479" y="71.209" width="0.453" height="0.453" style="fill:#41aaaa;"/><rect x="64.33" y="79.358" width="0.453" height="0.453" style="fill:#41aaaa;"/><rect x="64.33" y="76.641" width="0.453" height="0.453" style="fill:#41aaaa;"/><rect x="72.479" y="65.776" width="0.453" height="0.453" style="fill:#41aaaa;"/><rect x="67.046" y="71.209" width="0.453" height="0.453" style="fill:#41aaaa;"/><rect x="61.613" y="71.209" width="0.453" height="0.453" style="fill:#41aaaa;"/><rect x="69.762" y="63.06" width="0.453" height="0.453" style="fill:#41aaaa;"/><rect x="72.479" y="60.344" width="0.453" height="0.453" style="fill:#41aaaa;"/><rect x="132.237" y="68.493" width="0.453" height="0.453" style="fill:#41aaaa;"/><rect x="134.953" y="71.209" width="0.453" height="0.453" style="fill:#41aaaa;"/><rect x="132.237" y="73.925" width="0.453" height="0.453" style="fill:#41aaaa;"/><rect x="129.521" y="76.641" width="0.453" height="0.453" style="fill:#41aaaa;"/><rect x="126.804" y="76.641" width="0.453" height="0.453" style="fill:#41aaaa;"/><rect x="129.521" y="79.358" width="0.453" height="0.453" style="fill:#41aaaa;"/><rect x="124.088" y="76.641" width="0.453" height="0.453" style="fill:#41aaaa;"/><rect x="134.953" y="68.493" width="0.453" height="0.453" style="fill:#41aaaa;"/><rect x="143.102" y="65.776" width="0.453" height="0.453" style="fill:#41aaaa;"/><rect x="143.102" y="57.627" width="0.453" height="0.453" style="fill:#41aaaa;"/><rect x="145.818" y="68.493" width="0.453" height="0.453" style="fill:#41aaaa;"/><rect x="151.251" y="68.493" width="0.453" height="0.453" style="fill:#41aaaa;"/><rect x="124.088" y="68.493" width="0.453" height="0.453" style="fill:#41aaaa;"/><rect x="69.762" y="38.613" width="0.453" height="0.453" style="fill:#41aaaa;"/><rect x="47.858" y="49.305" width="0.792" height="0.792" style="fill:#41aaaa;"/><rect x="45.146" y="57.458" width="0.792" height="0.792" style="fill:#41aaaa;"/><rect x="42.43" y="57.458" width="0.792" height="0.792" style="fill:#41aaaa;"/><rect x="47.862" y="54.741" width="0.792" height="0.792" style="fill:#41aaaa;"/><rect x="47.862" y="52.025" width="0.792" height="0.792" style="fill:#41aaaa;"/><rect x="50.579" y="57.458" width="0.792" height="0.792" style="fill:#41aaaa;"/><rect x="53.295" y="52.025" width="0.792" height="0.792" style="fill:#41aaaa;"/><rect x="53.295" y="54.741" width="0.792" height="0.792" style="fill:#41aaaa;"/><rect x="58.728" y="52.025" width="0.792" height="0.792" style="fill:#41aaaa;"/><rect x="53.295" y="46.593" width="0.792" height="0.792" style="fill:#41aaaa;"/><rect x="56.011" y="46.593" width="0.792" height="0.792" style="fill:#41aaaa;"/><rect x="58.728" y="46.593" width="0.792" height="0.792" style="fill:#41aaaa;"/><rect x="58.727" y="54.741" width="0.792" height="0.792" style="fill:#41aaaa;"/><rect x="53.295" y="60.174" width="0.792" height="0.792" style="fill:#41aaaa;"/><rect x="58.728" y="43.876" width="0.792" height="0.792" style="fill:#41aaaa;"/><rect x="61.444" y="49.309" width="0.792" height="0.792" style="fill:#41aaaa;"/><rect x="64.16" y="49.309" width="0.792" height="0.792" style="fill:#41aaaa;"/><rect x="66.876" y="46.592" width="0.792" height="0.792" style="fill:#41aaaa;"/><rect x="72.309" y="41.16" width="0.792" height="0.792" style="fill:#41aaaa;"/><rect x="69.593" y="46.592" width="0.792" height="0.792" style="fill:#41aaaa;"/><rect x="64.16" y="52.025" width="0.792" height="0.792" style="fill:#41aaaa;"/><rect x="72.309" y="43.876" width="0.792" height="0.792" style="fill:#41aaaa;"/><rect x="75.025" y="46.593" width="0.792" height="0.792" style="fill:#41aaaa;"/><rect x="75.025" y="41.16" width="0.792" height="0.792" style="fill:#41aaaa;"/><rect x="66.876" y="41.16" width="0.792" height="0.792" style="fill:#41aaaa;"/><rect x="66.876" y="43.876" width="0.792" height="0.792" style="fill:#41aaaa;"/><rect x="77.741" y="49.309" width="0.792" height="0.792" style="fill:#41aaaa;"/><rect x="80.458" y="46.593" width="0.792" height="0.792" style="fill:#41aaaa;"/><rect x="83.174" y="46.593" width="0.792" height="0.792" style="fill:#41aaaa;"/><rect x="85.89" y="49.309" width="0.792" height="0.792" style="fill:#41aaaa;"/><rect x="80.458" y="52.025" width="0.792" height="0.792" style="fill:#41aaaa;"/><rect x="85.89" y="46.593" width="0.792" height="0.792" style="fill:#41aaaa;"/><rect x="88.607" y="49.309" width="0.792" height="0.792" style="fill:#41aaaa;"/><rect x="91.323" y="52.025" width="0.792" height="0.792" style="fill:#41aaaa;"/><rect x="96.755" y="46.593" width="0.792" height="0.792" style="fill:#41aaaa;"/><rect x="99.472" y="46.593" width="0.792" height="0.792" style="fill:#41aaaa;"/><rect x="102.188" y="46.593" width="0.792" height="0.792" style="fill:#41aaaa;"/><rect x="104.904" y="46.593" width="0.792" height="0.792" style="fill:#41aaaa;"/><rect x="102.188" y="49.309" width="0.792" height="0.792" style="fill:#41aaaa;"/><rect x="107.621" y="49.309" width="0.792" height="0.792" style="fill:#41aaaa;"/><rect x="104.904" y="52.025" width="0.792" height="0.792" style="fill:#41aaaa;"/><rect x="107.621" y="46.593" width="0.792" height="0.792" style="fill:#41aaaa;"/><rect x="104.904" y="49.309" width="0.792" height="0.792" style="fill:#41aaaa;"/><rect x="107.621" y="52.025" width="0.792" height="0.792" style="fill:#41aaaa;"/><rect x="110.337" y="46.593" width="0.792" height="0.792" style="fill:#41aaaa;"/><rect x="110.337" y="49.309" width="0.792" height="0.792" style="fill:#41aaaa;"/><rect x="113.053" y="46.593" width="0.792" height="0.792" style="fill:#41aaaa;"/><rect x="115.77" y="49.309" width="0.792" height="0.792" style="fill:#41aaaa;"/><rect x="118.486" y="52.025" width="0.792" height="0.792" style="fill:#41aaaa;"/><rect x="118.486" y="46.593" width="0.792" height="0.792" style="fill:#41aaaa;"/><rect x="121.202" y="49.309" width="0.792" height="0.792" style="fill:#41aaaa;"/><rect x="132.067" y="49.309" width="0.792" height="0.792" style="fill:#41aaaa;"/><rect x="113.053" y="49.309" width="0.792" height="0.792" style="fill:#41aaaa;"/><rect x="115.77" y="46.593" width="0.792" height="0.792" style="fill:#41aaaa;"/><rect x="118.486" y="49.309" width="0.792" height="0.792" style="fill:#41aaaa;"/><rect x="129.351" y="49.309" width="0.792" height="0.792" style="fill:#41aaaa;"/><rect x="121.202" y="54.741" width="0.792" height="0.792" style="fill:#41aaaa;"/><rect x="129.351" y="46.593" width="0.792" height="0.792" style="fill:#41aaaa;"/><rect x="126.635" y="49.309" width="0.792" height="0.792" style="fill:#41aaaa;"/><rect x="132.067" y="52.025" width="0.792" height="0.792" style="fill:#41aaaa;"/><rect x="137.5" y="52.025" width="0.792" height="0.792" style="fill:#41aaaa;"/><rect x="140.216" y="49.309" width="0.792" height="0.792" style="fill:#41aaaa;"/><rect x="137.5" y="46.593" width="0.792" height="0.792" style="fill:#41aaaa;"/><rect x="134.783" y="62.89" width="0.792" height="0.792" style="fill:#41aaaa;"/><rect x="137.5" y="62.89" width="0.792" height="0.792" style="fill:#41aaaa;"/><rect x="137.5" y="65.607" width="0.792" height="0.792" style="fill:#41aaaa;"/><rect x="140.216" y="65.607" width="0.792" height="0.792" style="fill:#41aaaa;"/><rect x="140.216" y="62.89" width="0.792" height="0.792" style="fill:#41aaaa;"/><rect x="142.932" y="60.174" width="0.792" height="0.792" style="fill:#41aaaa;"/><rect x="140.216" y="57.458" width="0.792" height="0.792" style="fill:#41aaaa;"/><rect x="142.932" y="54.741" width="0.792" height="0.792" style="fill:#41aaaa;"/><rect x="148.365" y="54.741" width="0.792" height="0.792" style="fill:#41aaaa;"/><rect x="140.216" y="52.025" width="0.792" height="0.792" style="fill:#41aaaa;"/><rect x="142.932" y="62.89" width="0.792" height="0.792" style="fill:#41aaaa;"/><rect x="148.365" y="65.607" width="0.792" height="0.792" style="fill:#41aaaa;"/><rect x="145.649" y="65.606" width="0.792" height="0.792" style="fill:#41aaaa;"/><rect x="140.216" y="68.323" width="0.792" height="0.792" style="fill:#41aaaa;"/><rect x="137.5" y="71.039" width="0.792" height="0.792" style="fill:#41aaaa;"/><rect x="134.783" y="73.755" width="0.792" height="0.792" style="fill:#41aaaa;"/><rect x="132.067" y="79.188" width="0.792" height="0.792" style="fill:#41aaaa;"/><rect x="123.918" y="79.188" width="0.792" height="0.792" style="fill:#41aaaa;"/><rect x="118.486" y="73.755" width="0.792" height="0.792" style="fill:#41aaaa;"/><rect x="121.202" y="71.039" width="0.792" height="0.792" style="fill:#41aaaa;"/><rect x="118.486" y="68.323" width="0.792" height="0.792" style="fill:#41aaaa;"/><rect x="121.202" y="68.323" width="0.792" height="0.792" style="fill:#41aaaa;"/><rect x="123.918" y="71.039" width="0.792" height="0.792" style="fill:#41aaaa;"/><rect x="126.634" y="71.039" width="0.792" height="0.792" style="fill:#41aaaa;"/><rect x="123.918" y="73.755" width="0.792" height="0.792" style="fill:#41aaaa;"/><rect x="126.635" y="73.755" width="0.792" height="0.792" style="fill:#41aaaa;"/><rect x="129.351" y="71.039" width="0.792" height="0.792" style="fill:#41aaaa;"/><rect x="118.486" y="71.039" width="0.792" height="0.792" style="fill:#41aaaa;"/><rect x="113.053" y="73.755" width="0.792" height="0.792" style="fill:#41aaaa;"/><rect x="110.337" y="71.039" width="0.792" height="0.792" style="fill:#41aaaa;"/><rect x="110.337" y="73.755" width="0.792" height="0.792" style="fill:#41aaaa;"/><rect x="107.621" y="68.323" width="0.792" height="0.792" style="fill:#41aaaa;"/><rect x="102.188" y="68.323" width="0.792" height="0.792" style="fill:#41aaaa;"/><rect x="96.755" y="68.323" width="0.792" height="0.792" style="fill:#41aaaa;"/><rect x="94.039" y="71.039" width="0.792" height="0.792" style="fill:#41aaaa;"/><rect x="91.323" y="68.323" width="0.792" height="0.792" style="fill:#41aaaa;"/><rect x="94.039" y="68.323" width="0.792" height="0.792" style="fill:#41aaaa;"/><rect x="91.323" y="71.039" width="0.792" height="0.792" style="fill:#41aaaa;"/><rect x="88.607" y="71.039" width="0.792" height="0.792" style="fill:#41aaaa;"/><rect x="88.607" y="73.755" width="0.792" height="0.792" style="fill:#41aaaa;"/><rect x="85.89" y="68.323" width="0.792" height="0.792" style="fill:#41aaaa;"/><rect x="83.174" y="71.039" width="0.792" height="0.792" style="fill:#41aaaa;"/><rect x="80.458" y="68.323" width="0.792" height="0.792" style="fill:#41aaaa;"/><rect x="77.741" y="71.039" width="0.792" height="0.792" style="fill:#41aaaa;"/><rect x="75.025" y="68.323" width="0.792" height="0.792" style="fill:#41aaaa;"/><rect x="75.025" y="73.755" width="0.792" height="0.792" style="fill:#41aaaa;"/><rect x="72.309" y="76.472" width="0.792" height="0.792" style="fill:#41aaaa;"/><rect x="80.458" y="71.039" width="0.792" height="0.792" style="fill:#41aaaa;"/><rect x="75.025" y="76.472" width="0.792" height="0.792" style="fill:#41aaaa;"/><rect x="69.593" y="71.039" width="0.792" height="0.792" style="fill:#41aaaa;"/><rect x="72.309" y="73.755" width="0.792" height="0.792" style="fill:#41aaaa;"/><rect x="69.593" y="76.472" width="0.792" height="0.792" style="fill:#41aaaa;"/><rect x="75.025" y="71.039" width="0.792" height="0.792" style="fill:#41aaaa;"/><rect x="69.593" y="65.607" width="0.792" height="0.792" style="fill:#41aaaa;"/><rect x="66.876" y="68.323" width="0.792" height="0.792" style="fill:#41aaaa;"/><rect x="64.16" y="68.323" width="0.792" height="0.792" style="fill:#41aaaa;"/><rect x="64.16" y="71.039" width="0.792" height="0.792" style="fill:#41aaaa;"/><rect x="64.16" y="73.755" width="0.792" height="0.792" style="fill:#41aaaa;"/><rect x="61.444" y="76.472" width="0.792" height="0.792" style="fill:#41aaaa;"/><rect x="50.579" y="68.323" width="0.792" height="0.792" style="fill:#41aaaa;"/><rect x="47.862" y="65.607" width="0.792" height="0.792" style="fill:#41aaaa;"/><rect x="45.146" y="68.323" width="0.792" height="0.792" style="fill:#41aaaa;"/><rect x="42.43" y="65.607" width="0.792" height="0.792" style="fill:#41aaaa;"/><rect x="47.862" y="60.174" width="0.792" height="0.792" style="fill:#41aaaa;"/><rect x="42.43" y="62.89" width="0.792" height="0.792" style="fill:#41aaaa;"/><rect x="58.728" y="68.323" width="0.792" height="0.792" style="fill:#41aaaa;"/><rect x="50.579" y="71.039" width="0.792" height="0.792" style="fill:#41aaaa;"/><rect x="50.579" y="73.755" width="0.792" height="0.792" style="fill:#41aaaa;"/><rect x="85.89" y="71.039" width="0.792" height="0.792" style="fill:#41aaaa;"/><rect x="107.621" y="73.755" width="0.792" height="0.792" style="fill:#41aaaa;"/><rect x="110.337" y="68.323" width="0.792" height="0.792" style="fill:#41aaaa;"/><rect x="113.053" y="76.472" width="0.792" height="0.792" style="fill:#41aaaa;"/><rect x="115.77" y="68.323" width="0.792" height="0.792" style="fill:#41aaaa;"/><rect x="115.77" y="76.472" width="0.792" height="0.792" style="fill:#41aaaa;"/><rect x="132.067" y="62.89" width="0.792" height="0.792" style="fill:#41aaaa;"/><rect x="129.351" y="65.607" width="0.792" height="0.792" style="fill:#41aaaa;"/><rect x="123.918" y="60.174" width="0.792" height="0.792" style="fill:#41aaaa;"/><rect x="121.202" y="62.89" width="0.792" height="0.792" style="fill:#41aaaa;"/><rect x="126.634" y="60.174" width="0.792" height="0.792" style="fill:#41aaaa;"/><rect x="121.202" y="57.458" width="0.792" height="0.792" style="fill:#41aaaa;"/><rect x="123.918" y="57.458" width="0.792" height="0.792" style="fill:#41aaaa;"/><rect x="123.918" y="65.607" width="0.792" height="0.792" style="fill:#41aaaa;"/><rect x="129.351" y="52.025" width="0.792" height="0.792" style="fill:#41aaaa;"/><rect x="132.067" y="43.876" width="0.792" height="0.792" style="fill:#41aaaa;"/><rect x="121.202" y="52.025" width="0.792" height="0.792" style="fill:#41aaaa;"/><rect x="123.918" y="49.309" width="0.792" height="0.792" style="fill:#41aaaa;"/><rect x="113.053" y="52.025" width="0.792" height="0.792" style="fill:#41aaaa;"/><rect x="94.039" y="46.593" width="0.792" height="0.792" style="fill:#41aaaa;"/><rect x="94.039" y="52.025" width="0.792" height="0.792" style="fill:#41aaaa;"/><rect x="96.755" y="52.025" width="0.792" height="0.792" style="fill:#41aaaa;"/><rect x="80.458" y="49.309" width="0.792" height="0.792" style="fill:#41aaaa;"/><rect x="77.741" y="46.593" width="0.792" height="0.792" style="fill:#41aaaa;"/><rect x="77.741" y="52.025" width="0.792" height="0.792" style="fill:#41aaaa;"/><rect x="69.593" y="57.458" width="0.792" height="0.792" style="fill:#41aaaa;"/><rect x="72.309" y="57.458" width="0.792" height="0.792" style="fill:#41aaaa;"/><rect x="64.16" y="57.458" width="0.792" height="0.792" style="fill:#41aaaa;"/><rect x="66.876" y="57.458" width="0.792" height="0.792" style="fill:#41aaaa;"/><rect x="66.876" y="60.174" width="0.792" height="0.792" style="fill:#41aaaa;"/><rect x="66.876" y="62.89" width="0.792" height="0.792" style="fill:#41aaaa;"/><rect x="61.444" y="62.89" width="0.792" height="0.792" style="fill:#41aaaa;"/><rect x="56.011" y="57.458" width="0.792" height="0.792" style="fill:#41aaaa;"/><rect x="58.728" y="60.174" width="0.792" height="0.792" style="fill:#41aaaa;"/><rect x="56.011" y="60.174" width="0.792" height="0.792" style="fill:#41aaaa;"/><rect x="56.011" y="62.89" width="0.792" height="0.792" style="fill:#41aaaa;"/><rect x="69.593" y="60.174" width="0.792" height="0.792" style="fill:#41aaaa;"/><rect x="72.309" y="79.188" width="0.792" height="0.792" style="fill:#41aaaa;"/><rect x="50.579" y="52.025" width="0.792" height="0.792" style="fill:#41aaaa;"/><rect x="61.157" y="46.306" width="1.358" height="1.358" style="fill:#41aaaa;"/><rect x="55.728" y="65.324" width="1.358" height="1.358" style="fill:#41aaaa;"/><rect x="47.58" y="68.04" width="1.358" height="1.358" style="fill:#41aaaa;"/><rect x="53.295" y="62.89" width="0.792" height="0.792" style="fill:#41aaaa;"/><rect x="50.579" y="62.89" width="0.792" height="0.792" style="fill:#41aaaa;"/><rect x="44.863" y="54.459" width="1.358" height="1.358" style="fill:#41aaaa;"/><rect x="61.161" y="73.472" width="1.358" height="1.358" style="fill:#41aaaa;"/><rect x="63.877" y="65.324" width="1.358" height="1.358" style="fill:#41aaaa;"/><rect x="82.896" y="68.04" width="1.358" height="1.358" style="fill:#41aaaa;"/><rect x="112.77" y="68.04" width="1.358" height="1.358" style="fill:#41aaaa;"/><rect x="120.919" y="76.189" width="1.358" height="1.358" style="fill:#41aaaa;"/><rect x="134.5" y="65.324" width="1.358" height="1.358" style="fill:#41aaaa;"/><rect x="126.352" y="65.324" width="1.358" height="1.358" style="fill:#41aaaa;"/><rect x="131.784" y="76.189" width="1.358" height="1.358" style="fill:#41aaaa;"/><rect x="145.366" y="59.891" width="1.358" height="1.358" style="fill:#41aaaa;"/><rect x="137.217" y="57.175" width="1.358" height="1.358" style="fill:#41aaaa;"/><rect x="58.445" y="49.026" width="1.358" height="1.358" style="fill:#41aaaa;"/><rect x="63.877" y="43.593" width="1.358" height="1.358" style="fill:#41aaaa;"/><rect x="69.31" y="43.593" width="1.358" height="1.358" style="fill:#41aaaa;"/><rect x="61.161" y="54.459" width="1.358" height="1.358" style="fill:#41aaaa;"/><rect x="63.877" y="59.891" width="1.358" height="1.358" style="fill:#41aaaa;"/><rect x="91.04" y="49.026" width="1.358" height="1.358" style="fill:#41aaaa;"/><rect x="99.189" y="49.026" width="1.358" height="1.358" style="fill:#41aaaa;"/><rect x="129.068" y="43.593" width="1.358" height="1.358" style="fill:#41aaaa;"/><rect x="134.5" y="49.026" width="1.358" height="1.358" style="fill:#41aaaa;"/><rect x="137.217" y="49.026" width="1.358" height="1.358" style="fill:#41aaaa;"/><rect x="118.203" y="57.175" width="1.358" height="1.358" style="fill:#41aaaa;"/><rect x="56.011" y="49.309" width="0.792" height="0.792" style="fill:#41aaaa;"/><rect x="53.295" y="49.309" width="0.792" height="0.792" style="fill:#41aaaa;"/><path d="M111.125,44.665l-0.792,0l0,-0.793l0.792,0l0,0.793Zm-1.075,0.282l1.358,0l0,-1.358l-1.358,0l0,1.358Z" style="fill:#41aaaa;fill-rule:nonzero;"/><path d="M56.803,44.669l-0.792,0l0,-0.793l0.792,0l0,0.793Zm-1.075,0.283l1.358,0l0,-1.359l-1.358,0l0,1.359Z" style="fill:#41aaaa;fill-rule:nonzero;"/><path d="M51.371,50.101l-0.792,0l0,-0.792l0.792,0l0,0.792Zm-1.075,0.283l1.358,0l0,-1.358l-1.358,0l0,1.358Z" style="fill:#41aaaa;fill-rule:nonzero;"/><path d="M59.52,58.25l-0.792,0l0,-0.792l0.792,0l0,0.792Zm-1.075,0.283l1.358,0l0,-1.358l-1.358,0l0,1.358Z" style="fill:#41aaaa;fill-rule:nonzero;"/><path d="M62.236,69.115l-0.792,0l0,-0.792l0.792,0l0,0.792Zm-1.075,0.283l1.358,0l0,-1.358l-1.358,0l0,1.358Z" style="fill:#41aaaa;fill-rule:nonzero;"/><path d="M67.669,74.548l-0.793,0l0,-0.793l0.793,0l0,0.793Zm-1.076,0.283l1.359,0l0,-1.359l-1.359,0l0,1.359Z" style="fill:#41aaaa;fill-rule:nonzero;"/><path d="M73.101,69.115l-0.792,0l0,-0.792l0.792,0l0,0.792Zm-1.075,0.283l1.358,0l0,-1.358l-1.358,0l0,1.358Z" style="fill:#41aaaa;fill-rule:nonzero;"/><path d="M100.264,69.115l-0.792,0l0,-0.792l0.792,0l0,0.792Zm-1.075,0.283l1.358,0l0,-1.358l-1.358,0l0,1.358Z" style="fill:#41aaaa;fill-rule:nonzero;"/><path d="M116.562,71.831l-0.793,0l0,-0.792l0.793,0l0,0.792Zm-1.075,0.283l1.358,0l0,-1.358l-1.358,0l0,1.358Z" style="fill:#41aaaa;fill-rule:nonzero;"/><path d="M132.859,71.831l-0.792,0l0,-0.792l0.792,0l0,0.792Zm-1.075,0.283l1.358,0l0,-1.358l-1.358,0l0,1.358Z" style="fill:#41aaaa;fill-rule:nonzero;"/><path d="M141.008,60.966l-0.792,0l0,-0.792l0.792,0l0,0.792Zm-1.075,0.283l1.358,0l0,-1.358l-1.358,0l0,1.358Z" style="fill:#41aaaa;fill-rule:nonzero;"/><path d="M138.292,74.548l-0.792,0l0,-0.792l0.792,0l0,0.792Zm-1.075,0.283l1.358,0l0,-1.359l-1.358,0l0,1.359Z" style="fill:#41aaaa;fill-rule:nonzero;"/><path d="M132.859,47.385l-0.792,0l0,-0.792l0.792,0l0,0.792Zm-1.075,0.283l1.358,0l0,-1.358l-1.358,0l0,1.358Z" style="fill:#41aaaa;fill-rule:nonzero;"/><path d="M127.427,52.817l-0.793,0l0,-0.792l0.793,0l0,0.792Zm-1.075,0.283l1.358,0l0,-1.358l-1.358,0l0,1.358Z" style="fill:#41aaaa;fill-rule:nonzero;"/><path d="M116.562,52.817l-0.793,0l0,-0.792l0.793,0l0,0.792Zm-1.075,0.283l1.358,0l0,-1.358l-1.358,0l0,1.358Z" style="fill:#41aaaa;fill-rule:nonzero;"/><path d="M83.966,50.101l-0.792,0l0,-0.792l0.792,0l0,0.792Zm-1.075,0.283l1.358,0l0,-1.358l-1.358,0l0,1.358Z" style="fill:#41aaaa;fill-rule:nonzero;"/><path d="M75.817,44.669l-0.792,0l0,-0.792l0.792,0l0,0.792Zm-1.075,0.283l1.358,0l0,-1.358l-1.358,0l0,1.358Z" style="fill:#41aaaa;fill-rule:nonzero;"/><rect x="58.728" y="65.607" width="0.792" height="0.792" style="fill:#41aaaa;"/><path d="M129.747,60.57l0,-5.432l5.433,0l0,2.716l1.358,0l-1.358,1.358l0,1.358l-5.433,0Z" style="fill:#41aaaa;fill-rule:nonzero;"/><path d="M133.213,58.014c-0.038,0.015 -0.08,0.031 -0.125,0.048c-0.062,0.024 -0.072,0.079 -0.054,0.137c0.016,0.049 0.134,0.428 0.169,0.54c0.013,0.008 0.025,0.015 0.031,0.015c0.012,0 0.047,-0.027 0.072,-0.046c0.072,-0.054 0.17,-0.128 0.324,-0.128c0.153,0 0.251,0.074 0.322,0.128c0.026,0.019 0.061,0.046 0.073,0.046c0.006,0 0.018,-0.007 0.031,-0.016c0.035,-0.112 0.153,-0.49 0.169,-0.539c0.018,-0.058 0.008,-0.113 -0.054,-0.137c-0.045,-0.017 -0.087,-0.033 -0.125,-0.048l0,-0.493l0,-0.167l-0.312,0l0,-0.207l-0.209,0l0,0.207l-0.312,0l0,0.66Zm0.167,-0.493l0.499,0l0,0.429c-0.249,-0.096 -0.249,-0.096 -0.249,-0.096l0,0l0,0c0,0 -0.001,0 -0.25,0.096l0,-0.429Zm-0.345,-0.452c0,0 -1.644,0.775 -1.75,0.825c-0.127,0.06 -0.324,-0.042 -0.452,-0.166l-0.328,-0.319l0.081,-0.1l0.574,0.22l0.471,-0.222l-0.511,-0.528l0.105,-0.133l1.135,0.317l0.512,-0.241c0.096,-0.046 0.342,-0.088 0.395,0.025c0.054,0.113 -0.136,0.276 -0.232,0.322m1.386,1.653l0,0.167c-0.135,0 -0.199,0.173 -0.396,0.173c-0.196,0 -0.261,-0.173 -0.395,-0.173c-0.135,0 -0.2,0.173 -0.396,0.173c-0.197,0 -0.261,-0.173 -0.396,-0.173l0,-0.167c0.193,0 0.264,0.173 0.396,0.173c0.132,0 0.201,-0.173 0.396,-0.173c0.194,0 0.263,0.173 0.395,0.173c0.132,0 0.202,-0.173 0.396,-0.173m-2,-1.16l-0.042,0l-0.353,0.167l0.347,0c0.073,0 0.132,0.059 0.132,0.132l0,0.368l-0.833,0l0,-0.333l-0.167,0.079l0,0.795c0,0.092 0.075,0.167 0.167,0.167l0,0.125l0.166,0l0,-0.125l0.5,0l0,0.125l0.167,0l0,-0.125c0.092,0 0.166,-0.075 0.166,-0.167l0,-0.958c0,-0.138 -0.112,-0.25 -0.25,-0.25m-0.623,1.219c-0.074,0.001 -0.136,-0.059 -0.137,-0.134c-0.001,-0.075 0.059,-0.136 0.134,-0.137c0.075,-0.001 0.136,0.059 0.137,0.134c0.001,0.074 -0.059,0.136 -0.134,0.137m0.584,0c-0.075,0.001 -0.137,-0.059 -0.137,-0.134c-0.001,-0.075 0.058,-0.136 0.133,-0.137c0.075,-0.001 0.136,0.059 0.137,0.134c0.001,0.074 -0.059,0.136 -0.133,0.137" style="fill:#fff;fill-rule:nonzero;"/><path d="M121.598,46.989l0,-5.433l5.433,0l0,2.717l1.358,0l-1.358,1.358l0,1.358l-5.433,0Z" style="fill:#41aaaa;fill-rule:nonzero;"/><path d="M126.256,43.398c-0.064,-0.222 -0.294,-0.349 -0.515,-0.286l-2.163,0.62c-0.105,0.03 -0.189,0.099 -0.242,0.186l-0.606,-0.201l-0.357,0.471c-0.027,0.036 -0.02,0.088 0.017,0.116c0.036,0.028 0.089,0.021 0.116,-0.016l0.285,-0.375l0.178,0.059l0.208,0.669l-0.118,0.156l-0.447,-0.148c-0.044,-0.015 -0.091,0.009 -0.106,0.053c-0.014,0.043 0.009,0.091 0.053,0.105l0.56,0.186c0,0 0.001,0 0.001,-0.001l0.239,-0.315c0.047,-0.062 0.094,-0.125 0.135,-0.179c0.093,0.051 0.205,0.066 0.314,0.035l1.496,-0.429l-0.286,1.345l0.852,0l0.392,-1.846c0,-0.001 0,-0.001 0,-0.001l0.001,-0.002c0.014,-0.065 0.012,-0.134 -0.007,-0.202m-2.494,0.975c-0.132,0.038 -0.271,-0.039 -0.309,-0.172c-0.038,-0.132 0.039,-0.271 0.171,-0.309c0.133,-0.038 0.271,0.039 0.309,0.171c0.038,0.133 -0.038,0.272 -0.171,0.31m2.162,-0.62c-0.132,0.038 -0.271,-0.039 -0.309,-0.172c-0.038,-0.132 0.039,-0.271 0.172,-0.309c0.132,-0.038 0.271,0.039 0.309,0.172c0.038,0.132 -0.039,0.271 -0.172,0.309" style="fill:#fff;fill-rule:nonzero;"/><path d="M53.691,76.868l0,-1.358l0,0l-1.358,-1.358l1.358,0l0,-2.717l5.433,0l0,5.433l-5.433,0Z" style="fill:#41aaaa;fill-rule:nonzero;"/><path d="M56.448,74.845l0.043,0.614l-0.502,0l0.042,-0.599l0.417,-0.015Zm-1.169,-2.227l-0.167,0l-0.226,0.978c-0.263,0.084 -0.443,0.251 -0.443,0.442c0,0.192 0.18,0.359 0.443,0.443l0.226,0.978l0.167,0l0,-0.919l0.167,0l0,-1.003l-0.167,0l0,-0.919Zm3.093,1.42c0,0.328 -0.265,0.581 -0.594,0.593l-2.165,0.076l0,-1.337l2.165,0.075c0.329,0.012 0.594,0.266 0.594,0.593m-0.586,-0.418l-0.835,0l0,0.333l-0.167,0l0,-0.333l-0.168,0l0,0.132l-0.25,0.036l0,0.165l-0.335,0l0,-0.165l-0.25,-0.036l0,0.572l0.25,-0.035l0,-0.165l0.335,0l0,0.165l0.25,0.035l0,0.132l0.168,0l0,-0.332l0.167,0l0,0.332l0.835,0l0,-0.836Z" style="fill:#fff;fill-rule:nonzero;"/><path d="M67.273,55.138l0,-1.358l-1.359,-1.359l1.359,0l0,-2.716l5.432,0l0,5.433l-5.432,0Z" style="fill:#41aaaa;fill-rule:nonzero;"/><path d="M71.284,53.478l0.502,0l0,0.251l0.167,0l0,-2.006l-0.502,0l0,0.669l-0.334,0l-0.334,0.334l0,1.003l0.501,0l0,-0.251Zm0.334,-1.253l0.168,0l0,0.167l-0.168,0l0,-0.167Zm0,0.334l0.168,0l0,0.167l-0.168,0l0,-0.167Zm0,0.334l0.168,0l0,0.167l-0.168,0l0,-0.167Zm-0.334,-0.334l0.167,0l0,0.167l-0.167,0l0,-0.167Zm-0.167,0.501l-0.167,0l0,-0.167l0.167,0l0,0.167Zm-2.089,0.251l0.334,0l0,0.418l1.254,0l0,-2.712l-0.92,-0.13l0,1.254l-0.167,0l0,-0.836l-0.669,0l0,1.505l-0.167,0l0,-0.585l-0.501,0l0,0.585l-0.167,0l0,0.919l1.003,0l0,-0.418Zm1.253,-1.839l0.167,0l0,0.167l-0.167,0l0,-0.167Zm0,0.335l0.167,0l0,0.167l-0.167,0l0,-0.167Zm0,0.334l0.167,0l0,0.167l-0.167,0l0,-0.167Zm0,0.334l0.167,0l0,0.168l-0.167,0l0,-0.168Zm-0.334,-0.334l0.167,0l0,0.167l-0.167,0l0,-0.167Zm0,0.334l0.167,0l0,0.168l-0.167,0l0,-0.168Zm0,0.335l0.167,0l0,0.167l-0.167,0l0,-0.167Zm-0.585,-0.335l0.167,0l0,0.168l-0.167,0l0,-0.168Zm-0.334,-0.668l0.167,0l0,0.167l-0.167,0l0,-0.167Zm0,0.334l0.167,0l0,0.167l-0.167,0l0,-0.167Zm-0.502,1.087l-0.167,0l0,-0.168l0.167,0l0,0.168Zm0,-0.335l-0.167,0l0,-0.167l0.167,0l0,0.167Zm0,-0.334l-0.167,0l0,-0.167l0.167,0l0,0.167Z" style="fill:#fff;fill-rule:nonzero;"/><path d="M99.868,76.868l0,-5.433l2.716,0l0,-1.358l1.358,1.358l1.359,0l0,5.433l-5.433,0Z" style="fill:#41aaaa;fill-rule:nonzero;"/><path d="M103.875,74.031c0.07,0 0.125,-0.054 0.125,-0.121c0,-0.067 -0.055,-0.121 -0.125,-0.121l-0.208,0l0,-0.241l0.208,0c0.07,0 0.125,-0.054 0.125,-0.121c0,-0.066 -0.055,-0.12 -0.125,-0.12l-0.208,0l0,-0.202l-0.208,0l0,-0.201c0,-0.067 -0.056,-0.121 -0.125,-0.121c-0.069,0 -0.125,0.054 -0.125,0.121l0,0.201l-0.25,0l0,-0.201c0,-0.067 -0.056,-0.121 -0.125,-0.121c-0.069,0 -0.125,0.054 -0.125,0.121l0,0.201l-0.25,0l0,-0.201c0,-0.067 -0.056,-0.121 -0.125,-0.121c-0.069,0 -0.125,0.054 -0.125,0.121l0,0.201l-0.25,0l0,-0.201c0,-0.067 -0.056,-0.121 -0.125,-0.121c-0.069,0 -0.125,0.054 -0.125,0.121l0,0.201l-0.208,0l0,0.202l-0.208,0c-0.069,0 -0.125,0.054 -0.125,0.12c0,0.067 0.056,0.121 0.125,0.121l0.208,0l0,0.241l-0.208,0c-0.069,0 -0.125,0.054 -0.125,0.121c0,0.067 0.056,0.121 0.125,0.121l0.208,0l0,0.241l-0.208,0c-0.069,0 -0.125,0.054 -0.125,0.121c0,0.067 0.056,0.121 0.125,0.121l0.208,0l0,0.241l-0.208,0c-0.069,0 -0.125,0.054 -0.125,0.121c0,0.067 0.056,0.121 0.125,0.121l0.208,0l0,0.201l0.208,0l0,0.201c0,0.067 0.056,0.121 0.125,0.121c0.069,0 0.125,-0.054 0.125,-0.121l0,-0.201l0.25,0l0,0.201c0,0.067 0.056,0.121 0.125,0.121c0.069,0 0.125,-0.054 0.125,-0.121l0,-0.201l0.25,0l0,0.201c0,0.067 0.056,0.121 0.125,0.121c0.069,0 0.125,-0.054 0.125,-0.121l0,-0.201l0.25,0l0,0.201c0,0.067 0.056,0.121 0.125,0.121c0.069,0 0.125,-0.054 0.125,-0.121l0,-0.201l0.208,0l0,-0.201l0.208,0c0.07,0 0.125,-0.054 0.125,-0.121c0,-0.067 -0.055,-0.121 -0.125,-0.121l-0.208,0l0,-0.241l0.208,0c0.07,0 0.125,-0.054 0.125,-0.121c0,-0.067 -0.055,-0.121 -0.125,-0.121l-0.208,0l0,-0.241l0.208,0Zm-0.458,0.925l-1.666,0l0,-1.609l1.666,0l0,1.609Zm-0.25,-0.241l-1.166,0l0,-1.127l1.166,0l0,1.127Z" style="fill:#fff;fill-rule:nonzero;"/><path d="M77.685,57.374l1.158,0l1.02,2.889c0.092,0.283 0.158,0.507 0.244,0.797c0.079,-0.297 0.151,-0.514 0.243,-0.797l1.007,-2.889l1.139,0l0,4.554l-0.777,0l0,-3.731c-0.112,0.401 -0.158,0.539 -0.309,0.994l-0.948,2.737l-0.756,0l-0.942,-2.678c-0.164,-0.474 -0.164,-0.481 -0.336,-1.053l0,3.731l-0.743,0l0,-4.554Z" style="fill:#41aaaa;fill-rule:nonzero;"/><path d="M84.43,57.486c0,0.276 -0.197,0.48 -0.474,0.48c-0.276,0 -0.473,-0.197 -0.473,-0.487c0,-0.269 0.204,-0.473 0.473,-0.473c0.277,0 0.474,0.204 0.474,0.48m-0.855,1.086l0.77,0l0,3.356l-0.77,0l0,-3.356Z" style="fill:#41aaaa;fill-rule:nonzero;"/><path d="M85.417,59.75c-0.006,-0.612 -0.006,-0.671 -0.033,-1.178l0.724,0l0.027,0.494c0.408,-0.422 0.717,-0.567 1.185,-0.567c0.427,0 0.75,0.165 0.914,0.474c0.105,0.198 0.152,0.454 0.152,0.935l0,2.02l-0.77,0l0,-1.981c0,-0.296 -0.02,-0.44 -0.066,-0.566c-0.079,-0.184 -0.25,-0.289 -0.481,-0.289c-0.302,0 -0.612,0.197 -0.882,0.566l0,2.27l-0.77,0l0,-2.178Z" style="fill:#41aaaa;fill-rule:nonzero;"/><path d="M92.242,57.117l0,3.634c0,0.526 0.006,0.862 0.033,1.178l-0.744,0l-0.026,-0.481c-0.29,0.402 -0.566,0.553 -1.014,0.553c-0.441,0 -0.763,-0.165 -1.013,-0.52c-0.218,-0.316 -0.336,-0.744 -0.336,-1.237c0,-1.053 0.533,-1.744 1.349,-1.744c0.402,0 0.718,0.157 0.981,0.493l0,-1.876l0.77,0Zm-0.77,2.534c-0.204,-0.362 -0.481,-0.559 -0.777,-0.559c-0.46,0 -0.757,0.441 -0.757,1.145c0,0.711 0.29,1.172 0.737,1.172c0.303,0 0.553,-0.178 0.797,-0.573l0,-1.185Z" style="fill:#41aaaa;fill-rule:nonzero;"/><path d="M93.248,61.073c0.547,0.211 0.863,0.283 1.225,0.283c0.487,0 0.79,-0.25 0.79,-0.658c0,-0.336 -0.126,-0.448 -0.883,-0.77c-0.539,-0.231 -0.697,-0.31 -0.881,-0.454c-0.251,-0.205 -0.375,-0.481 -0.375,-0.836c0,-0.823 0.579,-1.336 1.52,-1.336c0.401,0 0.763,0.065 1.277,0.23l-0.158,0.678c-0.448,-0.191 -0.764,-0.263 -1.086,-0.263c-0.441,0 -0.724,0.224 -0.724,0.572c0,0.303 0.164,0.448 0.822,0.718c0.547,0.223 0.764,0.335 0.955,0.493c0.243,0.211 0.375,0.52 0.375,0.909c0,0.862 -0.593,1.362 -1.606,1.362c-0.481,0 -0.875,-0.066 -1.356,-0.231l0.105,-0.697Z" style="fill:#41aaaa;fill-rule:nonzero;"/><path d="M96.835,59.915c0,-0.678 -0.007,-0.968 -0.033,-1.343l0.737,0l0.027,0.461c0.309,-0.382 0.599,-0.533 1.02,-0.533c0.809,0 1.349,0.691 1.349,1.744c0,0.539 -0.145,0.993 -0.401,1.316c-0.244,0.302 -0.54,0.441 -0.955,0.441c-0.421,0 -0.711,-0.145 -0.974,-0.5l0,1.843l-0.77,0l0,-3.429Zm0.77,0.921c0.244,0.395 0.487,0.573 0.79,0.573c0.447,0 0.744,-0.461 0.744,-1.172c0,-0.704 -0.297,-1.145 -0.757,-1.145c-0.296,0 -0.547,0.177 -0.777,0.553l0,1.191Z" style="fill:#41aaaa;fill-rule:nonzero;"/><path d="M100.718,57.117l0.77,0l0,1.903c0.309,-0.343 0.691,-0.52 1.138,-0.52c0.428,0 0.757,0.164 0.922,0.473c0.105,0.198 0.144,0.455 0.144,0.935l0,2.021l-0.77,0l0,-1.982c0,-0.296 -0.019,-0.441 -0.065,-0.565c-0.073,-0.185 -0.251,-0.29 -0.481,-0.29c-0.303,0 -0.618,0.197 -0.888,0.566l0,2.271l-0.77,0l0,-4.812Z" style="fill:#41aaaa;fill-rule:nonzero;"/><path d="M105.272,60.494c0.059,0.632 0.368,0.928 0.967,0.928c0.336,0 0.658,-0.106 1,-0.323l0.27,0.566c-0.401,0.23 -0.803,0.336 -1.29,0.336c-1.125,0 -1.757,-0.625 -1.757,-1.744c0,-1.093 0.612,-1.757 1.606,-1.757c0.698,0 1.178,0.289 1.382,0.822c0.118,0.309 0.158,0.593 0.165,1.172l-2.343,0Zm1.553,-0.54c-0.013,-0.566 -0.29,-0.888 -0.757,-0.888c-0.467,0 -0.77,0.335 -0.796,0.888l1.553,0Z" style="fill:#41aaaa;fill-rule:nonzero;"/><path d="M108.437,59.836c0,-0.402 -0.007,-0.56 -0.02,-1.113l-0.006,-0.151l0.723,0l0.02,0.632c0.198,-0.461 0.494,-0.685 0.889,-0.685c0.105,0 0.171,0.007 0.296,0.04l-0.046,0.678c-0.119,-0.02 -0.171,-0.027 -0.264,-0.027c-0.381,0 -0.684,0.277 -0.829,0.77l0,1.949l-0.763,0l0,-2.093Z" style="fill:#41aaaa;fill-rule:nonzero;"/><path d="M111.444,60.494c0.059,0.632 0.369,0.928 0.968,0.928c0.335,0 0.658,-0.106 1,-0.323l0.27,0.566c-0.401,0.23 -0.803,0.336 -1.29,0.336c-1.125,0 -1.757,-0.625 -1.757,-1.744c0,-1.093 0.612,-1.757 1.606,-1.757c0.697,0 1.178,0.289 1.382,0.822c0.118,0.309 0.158,0.593 0.164,1.172l-2.343,0Zm1.554,-0.54c-0.013,-0.566 -0.29,-0.888 -0.757,-0.888c-0.468,0 -0.77,0.335 -0.797,0.888l1.554,0Z" style="fill:#41aaaa;fill-rule:nonzero;"/></g></svg>