<?xml version="1.0" encoding="UTF-8" standalone="no"?><!DOCTYPE svg PUBLIC "-//W3C//DTD SVG 1.1//EN"
        "http://www.w3.org/Graphics/SVG/1.1/DTD/svg11.dtd">
<svg width="100%" height="100%" viewBox="0 0 195 135" version="1.1" xmlns="http://www.w3.org/2000/svg"
     xmlns:xlink="http://www.w3.org/1999/xlink" xml:space="preserve" xmlns:serif="http://www.serif.com/"
     style="fill-rule:evenodd;clip-rule:evenodd;stroke-linejoin:round;stroke-miterlimit:1.41421;"><rect x="0" y="0" width="195" height="135" style="fill:#4e4e4e;"/>
    <g><rect x="82.604" y="95.244" width="29.787" height="24.092" style="fill:#d2d2d2;"/>
        <path d="M75.386,118.747c0,0 7.207,0.494 22.113,0.494c14.812,0 22.112,-0.494 22.112,-0.494c0.207,0.11 0.379,0.377 0.379,0.59c0,0.212 -0.379,0.59 -0.379,0.59c0,0 -29.481,-0.141 -44.226,0c0,0 -0.378,-0.378 -0.378,-0.59c0,-0.213 0.172,-0.48 0.378,-0.59l0.001,0Z"
              style="fill:#f4f4f4;fill-rule:nonzero;"/>
        <path d="M163.32,20.123c0,-2.786 -2.262,-5.048 -5.048,-5.048l-121.544,0c-2.786,0 -5.048,2.262 -5.048,5.048l0,77.663c0,2.786 2.262,5.048 5.048,5.048l121.544,0c2.786,0 5.048,-2.262 5.048,-5.048l0,-77.663Z"/>
        <path d="M36.484,15.075c-2.662,0 -4.804,2.142 -4.804,4.803l0,67.455l131.64,0l0,-67.455c0,-2.661 -2.143,-4.803 -4.805,-4.803l-122.029,0l-0.002,0Z"
              style="fill:#2b2b2b;fill-rule:nonzero;"/>
        <path d="M36.484,15.075c-2.662,0 -4.804,2.142 -4.804,4.803l0,67.455l131.64,0l0,-67.455c0,-2.661 -2.143,-4.803 -4.805,-4.803l-122.029,0l-0.002,0Z"
              style="fill:#b3b3b3;fill-rule:nonzero;"/>
        <circle cx="97.5" cy="95.085" r="3.844" style="fill:#b1b1b1;"/>
        <path d="M36.484,15.075c-2.662,0 -4.804,2.142 -4.804,4.803l0,67.455l129.79,-71.244c-0.814,-0.635 -1.836,-1.016 -2.953,-1.016l-122.03,0l-0.003,0.002Z"
              style="fill:#1c1c1c;fill-opacity:0.0745098;fill-rule:nonzero;"/>
        <rect x="34.733" y="17.92" width="125.296" height="66.682" style="fill:#595959;"/></g>
    <g><g><rect x="50.832" y="18.182" width="93.905" height="66.42" style="fill:#fff;"/><rect x="50.832" y="18.182"
                                                                                              width="93.905"
                                                                                              height="10.422"
                                                                                              style="fill:#404040;"/><path
            d="M50.766,28.279l0,22.16l94.045,0l0,-22.16l-94.045,0Z" style="fill:url(#_Linear1);"/><g
            transform="matrix(0.200834,0,0,0.200834,31.7148,17.811)"><text x="247.058px" y="106.397px" style="font-family:'ArialMT', 'Arial', sans-serif;font-size:32px;fill:#fff;">Das bin ich.</text>
        <text x="221.276px" y="139.444px" style="font-family:'ArialMT', 'Arial', sans-serif;font-size:32px;fill:#fff;">Qendrim Vllasa</text></g><g><ellipse cx="115.87" cy="24.133" rx="1.351" ry="1.339" style="fill:#fff;"/>
        <ellipse cx="120.756" cy="24.133" rx="1.351" ry="1.339" style="fill:#fff;"/>
        <ellipse cx="125.431" cy="24.133" rx="1.351" ry="1.339" style="fill:#fff;"/>
        <ellipse cx="130.109" cy="24.133" rx="1.351" ry="1.339" style="fill:#fff;"/>
        <ellipse cx="135.098" cy="24.133" rx="1.351" ry="1.339" style="fill:#fff;"/></g></g></g>
    <path d="M74.339,78.752c-0.795,0.426 -1.528,0.815 -2.053,1.589c-0.467,0.69 -0.723,1.512 -0.723,2.346l0,1.665c0,0.186 0.15,0.336 0.336,0.336l11.057,0c0.186,0 0.336,-0.15 0.336,-0.336l0,-1.665c0,-0.834 -0.256,-1.656 -0.723,-2.346c-0.525,-0.774 -1.259,-1.163 -2.054,-1.589c-0.511,-0.274 -0.987,-0.674 -1.217,-1.196c1.471,-0.7 2.488,-2.2 2.488,-3.938c0,-2.408 -1.951,-4.359 -4.359,-4.359c-2.407,0 -4.359,1.951 -4.359,4.359c0,1.738 1.017,3.238 2.489,3.938c-0.23,0.522 -0.706,0.922 -1.218,1.196Z"
          style="fill-rule:nonzero;"/>
    <path d="M88.967,81.342l0,-1.855l11.959,0l0,1.855l-11.959,0Zm19.382,-5.153l-19.382,0l0,1.855l19.382,0l0,-1.855Zm-7.423,-3.297l-11.959,0l0,1.855l11.959,0l0,-1.855Zm7.423,-3.298l-19.382,0l0,1.855l19.382,0l0,-1.855Z"
          style="fill-rule:nonzero;"/>
    <path d="M116.708,81.342l0,-1.855l7.172,0l0,1.855l-7.172,0Zm11.624,-5.153l-11.624,0l0,1.855l11.624,0l0,-1.855Zm-4.452,-3.297l-7.172,0l0,1.855l7.172,0l0,-1.855Zm4.452,-3.298l-11.624,0l0,1.855l11.624,0l0,-1.855Z"
          style="fill-rule:nonzero;"/>
    <circle cx="83.644" cy="57.463" r="3.844" style="fill:#b1b1b1;"/>
    <text x="88.559px" y="59.216px"
          style="font-family:'ArialMT', 'Arial', sans-serif;font-size:4.906px;">About Me</text>
    <defs><linearGradient id="_Linear1" x1="0" y1="0" x2="1" y2="0" gradientUnits="userSpaceOnUse" gradientTransform="matrix(1.35691e-15,-22.1601,94.0452,5.75861e-15,97.7888,50.4393)"><stop offset="0" style="stop-color:#550051;stop-opacity:1"/><stop
            offset="1" style="stop-color:#170606;stop-opacity:1"/></linearGradient></defs></svg>