<?xml version="1.0" encoding="UTF-8" standalone="no"?><!DOCTYPE svg PUBLIC "-//W3C//DTD SVG 1.1//EN" "http://www.w3.org/Graphics/SVG/1.1/DTD/svg11.dtd"><svg width="100%" height="100%" viewBox="0 0 195 135" version="1.1" xmlns="http://www.w3.org/2000/svg" xmlns:xlink="http://www.w3.org/1999/xlink" xml:space="preserve" xmlns:serif="http://www.serif.com/" style="fill-rule:evenodd;clip-rule:evenodd;stroke-linejoin:round;stroke-miterlimit:1.41421;"><rect x="0" y="0" width="195" height="135" style="fill:#4e4e4e;"/><g><rect x="82.604" y="95.244" width="29.787" height="24.092" style="fill:#d2d2d2;"/><path d="M75.386,118.747c0,0 7.207,0.494 22.113,0.494c14.812,0 22.112,-0.494 22.112,-0.494c0.207,0.11 0.379,0.377 0.379,0.59c0,0.212 -0.379,0.59 -0.379,0.59c0,0 -29.481,-0.141 -44.226,0c0,0 -0.378,-0.378 -0.378,-0.59c0,-0.213 0.172,-0.48 0.378,-0.59l0.001,0Z" style="fill:#f4f4f4;fill-rule:nonzero;"/><path d="M163.32,20.123c0,-2.786 -2.262,-5.048 -5.048,-5.048l-121.544,0c-2.786,0 -5.048,2.262 -5.048,5.048l0,77.663c0,2.786 2.262,5.048 5.048,5.048l121.544,0c2.786,0 5.048,-2.262 5.048,-5.048l0,-77.663Z"/><path d="M36.484,15.075c-2.662,0 -4.804,2.142 -4.804,4.803l0,67.455l131.64,0l0,-67.455c0,-2.661 -2.143,-4.803 -4.805,-4.803l-122.029,0l-0.002,0Z" style="fill:#2b2b2b;fill-rule:nonzero;"/><path d="M36.484,15.075c-2.662,0 -4.804,2.142 -4.804,4.803l0,67.455l131.64,0l0,-67.455c0,-2.661 -2.143,-4.803 -4.805,-4.803l-122.029,0l-0.002,0Z" style="fill:#b3b3b3;fill-rule:nonzero;"/><circle cx="97.5" cy="95.085" r="3.844" style="fill:#b1b1b1;"/><path d="M36.484,15.075c-2.662,0 -4.804,2.142 -4.804,4.803l0,67.455l129.79,-71.244c-0.814,-0.635 -1.836,-1.016 -2.953,-1.016l-122.03,0l-0.003,0.002Z" style="fill:#1c1c1c;fill-opacity:0.0745098;fill-rule:nonzero;"/><rect x="34.733" y="17.92" width="125.296" height="66.682" style="fill:#4a2c64;"/></g><g><rect x="50.519" y="18.111" width="94.49" height="65.387" style="fill:#f9f9f9;"/><rect x="70.181" y="18.111" width="0.995" height="65.387" style="fill:#90caf9;"/><rect x="124.978" y="18.111" width="0.995" height="65.387" style="fill:#90caf9;"/><rect x="75.838" y="60.953" width="43.151" height="21.751" style="fill:#bbdefb;"/><rect x="50.519" y="18.111" width="94.49" height="12.298" style="fill:#147dcd;"/><rect x="52.324" y="34.12" width="16.223" height="6.459" style="fill:#bbdefb;"/><rect x="52.324" y="34.12" width="16.223" height="2.713" style="fill:#64b5f6;"/><rect x="52.324" y="42.59" width="16.223" height="7.843" style="fill:#bbdefb;"/><rect x="52.324" y="42.183" width="16.223" height="2.713" style="fill:#64b5f6;"/><rect x="52.324" y="53.257" width="16.223" height="11.182" style="fill:#bbdefb;"/><rect x="52.324" y="52.144" width="16.223" height="2.713" style="fill:#64b5f6;"/><rect x="52.324" y="67.59" width="16.223" height="11.182" style="fill:#bbdefb;"/><rect x="52.324" y="66.135" width="16.223" height="2.713" style="fill:#64b5f6;"/><rect x="127.317" y="34.336" width="16.269" height="12.223" style="fill:#bbdefb;"/><rect x="75.838" y="34.006" width="43.151" height="23.926" style="fill:#bbdefb;"/><rect x="73.995" y="36.08" width="41.143" height="4.095" style="fill:#64b5f6;"/><rect x="73.995" y="63.027" width="41.143" height="4.095" style="fill:#64b5f6;"/><rect x="119.838" y="34.52" width="2.183" height="2.073" style="fill:#5c6bc0;"/><rect x="119.838" y="37.139" width="2.183" height="2.073" style="fill:#4dd0e1;"/><rect x="119.838" y="39.673" width="2.183" height="2.073" style="fill:#ff7043;"/><rect x="119.838" y="61.8" width="2.183" height="2.073" style="fill:#5c6bc0;"/><rect x="119.838" y="64.42" width="2.183" height="2.073" style="fill:#4dd0e1;"/><rect x="119.838" y="66.954" width="2.183" height="2.073" style="fill:#ff7043;"/><path d="M140.329,37.836l-6.656,3.565l-3.106,-2.037l-3.254,2.387l0,4.811l16.27,0l0,-6.359l-3.254,-2.367l0,0Z" style="fill:#64b5f6;"/><rect x="93.666" y="42.627" width="23.542" height="1.33" style="fill:#64b5f6;"/><rect x="93.666" y="44.953" width="23.542" height="1.33" style="fill:#64b5f6;"/><rect x="93.666" y="47.137" width="23.542" height="1.33" style="fill:#64b5f6;"/><rect x="93.666" y="49.468" width="17.331" height="1.33" style="fill:#64b5f6;"/><rect x="77.623" y="69.26" width="14.199" height="10.667" style="fill:#e3f2fd;"/><path d="M88.978,72.312l-5.809,3.111l-2.711,-1.778l-2.839,2.083l0,4.199l14.199,0l0,-5.55l-2.84,-2.065l0,0Z" style="fill:#64b5f6;"/><rect x="93.666" y="69.399" width="23.542" height="1.33" style="fill:#64b5f6;"/><rect x="93.666" y="71.729" width="23.542" height="1.33" style="fill:#64b5f6;"/><rect x="93.666" y="73.913" width="23.542" height="1.33" style="fill:#64b5f6;"/><rect x="93.666" y="76.239" width="17.331" height="1.33" style="fill:#64b5f6;"/><rect x="127.317" y="48.453" width="16.269" height="30.266" style="fill:#bbdefb;"/><rect x="127.317" y="48.453" width="16.269" height="2.177" style="fill:#64b5f6;"/><rect x="127.317" y="48.453" width="8.53" height="2.177" style="fill:#1e88e5;"/><rect x="128.154" y="51.59" width="14.805" height="4.646" style="fill:#64b5f6;"/><rect x="128.796" y="52.381" width="5.325" height="3.246" style="fill:#42a5f5;"/><path d="M133.078,53.31l-2.191,0.954l-1.022,-0.545l-1.071,0.639l0,1.288l5.355,0l0,-1.703l-1.071,-0.633l0,0Z" style="fill:#bbdefb;"/><rect x="135.07" y="52.328" width="7.181" height="0.905" style="fill:#42a5f5;"/><rect x="135.07" y="53.668" width="5.952" height="0.905" style="fill:#42a5f5;"/><rect x="128.154" y="57.412" width="14.805" height="4.646" style="fill:#64b5f6;"/><rect x="128.796" y="58.203" width="5.325" height="3.246" style="fill:#42a5f5;"/><path d="M133.078,59.132l-2.191,0.954l-1.022,-0.545l-1.071,0.639l0,1.288l5.355,0l0,-1.703l-1.071,-0.633l0,0Z" style="fill:#bbdefb;"/><rect x="135.07" y="58.15" width="7.181" height="0.905" style="fill:#42a5f5;"/><rect x="135.07" y="59.486" width="5.952" height="0.905" style="fill:#42a5f5;"/><rect x="128.154" y="63.084" width="14.805" height="4.646" style="fill:#64b5f6;"/><rect x="128.796" y="63.874" width="5.325" height="3.246" style="fill:#42a5f5;"/><path d="M133.078,64.803l-2.191,0.955l-1.022,-0.546l-1.071,0.639l0,1.289l5.355,0l0,-1.703l-1.071,-0.634l0,0Z" style="fill:#bbdefb;"/><rect x="135.07" y="63.825" width="7.181" height="0.905" style="fill:#42a5f5;"/><rect x="135.07" y="65.161" width="5.952" height="0.905" style="fill:#42a5f5;"/><rect x="128.154" y="69.052" width="14.805" height="4.646" style="fill:#64b5f6;"/><rect x="128.796" y="69.843" width="5.325" height="3.246" style="fill:#42a5f5;"/><path d="M133.078,70.772l-2.191,0.954l-1.022,-0.545l-1.071,0.639l0,1.288l5.355,0l0,-1.703l-1.071,-0.633l0,0Z" style="fill:#bbdefb;"/><rect x="135.07" y="69.79" width="7.181" height="0.905" style="fill:#42a5f5;"/><rect x="135.07" y="71.126" width="5.952" height="0.905" style="fill:#42a5f5;"/></g><g><path d="M65.553,63.224l-0.136,-0.683c-0.054,-0.271 -0.266,-0.483 -0.537,-0.536l-0.184,-0.037c-0.106,-0.02 -0.189,-0.103 -0.211,-0.209l-0.035,-0.169c-0.011,-0.054 0.009,-0.11 0.051,-0.145c0.166,-0.138 0.318,-0.341 0.407,-0.58c0.122,-0.022 0.234,-0.139 0.27,-0.301c0.044,-0.201 -0.044,-0.391 -0.197,-0.425c-0.002,0 -0.004,0 -0.006,0c-0.046,-0.521 -0.247,-0.907 -0.914,-0.907c-0.655,0 -0.864,0.386 -0.913,0.906c-0.002,0.001 -0.004,0.001 -0.006,0.001c-0.153,0.034 -0.241,0.224 -0.197,0.425c0.036,0.162 0.147,0.279 0.27,0.301c0.088,0.24 0.24,0.442 0.406,0.58c0.043,0.035 0.063,0.091 0.052,0.145l-0.036,0.169c-0.022,0.106 -0.105,0.188 -0.211,0.21l-0.184,0.036c-0.271,0.053 -0.482,0.265 -0.536,0.536l-0.136,0.683c-0.023,0.115 0.007,0.234 0.081,0.324c0.074,0.091 0.185,0.143 0.302,0.143l2.217,0c0.117,0 0.228,-0.052 0.302,-0.143c0.074,-0.09 0.104,-0.209 0.081,-0.324Z" style="fill-rule:nonzero;"/><path d="M59.909,62.541c-0.054,-0.271 -0.266,-0.483 -0.537,-0.536l-0.184,-0.037c-0.106,-0.02 -0.189,-0.103 -0.211,-0.209l-0.035,-0.169c-0.011,-0.054 0.008,-0.11 0.051,-0.145c0.166,-0.138 0.318,-0.341 0.407,-0.58c0.122,-0.022 0.234,-0.139 0.27,-0.301c0.044,-0.201 -0.045,-0.391 -0.198,-0.425c-0.002,0 -0.004,0 -0.005,0c-0.046,-0.521 -0.247,-0.907 -0.914,-0.907c-0.656,0 -0.864,0.386 -0.913,0.906c-0.002,0.001 -0.004,0.001 -0.006,0.001c-0.154,0.034 -0.242,0.224 -0.197,0.425c0.036,0.162 0.147,0.279 0.269,0.301c0.089,0.24 0.241,0.442 0.407,0.58c0.043,0.035 0.062,0.091 0.051,0.145l-0.035,0.169c-0.022,0.106 -0.105,0.188 -0.211,0.21l-0.184,0.036c-0.271,0.053 -0.483,0.265 -0.537,0.536l-0.136,0.683c-0.022,0.115 0.007,0.234 0.081,0.324c0.075,0.091 0.185,0.143 0.302,0.143l2.218,0c0.117,0 0.227,-0.052 0.302,-0.143c0.074,-0.09 0.103,-0.209 0.081,-0.324l-0.136,-0.683Z" style="fill-rule:nonzero;"/><path d="M62.93,59.628c0.031,-0.03 0.036,-0.076 0.013,-0.112l-0.311,-0.636l0.432,0c0.224,0 0.404,-0.181 0.404,-0.404l0,-1.83c0,-0.223 -0.18,-0.403 -0.404,-0.403l-1.005,0l0,1.164c0,0.423 -0.345,0.767 -0.768,0.767l-1.196,0l-0.31,0.208l0,0.094c0,0.223 0.181,0.404 0.404,0.404l1.306,0l1.323,0.759c0.035,0.023 0.082,0.019 0.112,-0.011Z" style="fill-rule:nonzero;"/><path d="M58.416,57.811l0.432,0l-0.319,0.64c-0.023,0.036 -0.017,0.083 0.013,0.112c0.017,0.017 0.04,0.026 0.063,0.026c0.017,0 0.034,-0.005 0.05,-0.015l1.33,-0.763l1.306,0c0.223,0 0.404,-0.181 0.404,-0.404l0,-1.83c0,-0.223 -0.181,-0.404 -0.404,-0.404l-2.875,0c-0.224,0 -0.404,0.181 -0.404,0.404l0,1.83c0,0.223 0.18,0.404 0.404,0.404Zm2.243,-1.621c0.166,0 0.302,0.135 0.302,0.302c0,0.167 -0.136,0.302 -0.302,0.302c-0.167,0 -0.302,-0.135 -0.302,-0.302c0,-0.167 0.135,-0.302 0.302,-0.302Zm-0.806,0c0.167,0 0.302,0.135 0.302,0.302c0,0.167 -0.135,0.302 -0.302,0.302c-0.166,0 -0.302,-0.135 -0.302,-0.302c0,-0.167 0.136,-0.302 0.302,-0.302Zm-0.805,0c0.167,0 0.302,0.135 0.302,0.302c0,0.167 -0.135,0.302 -0.302,0.302c-0.167,0 -0.302,-0.135 -0.302,-0.302c0,-0.167 0.135,-0.302 0.302,-0.302Z" style="fill-rule:nonzero;"/></g><path d="M90.765,51.103l-0.916,-0.786l0,0.56l-3.244,0l0,-2.674l0.538,0l0,1.287l1.156,0l0,0.561l0.916,-0.713l-0.916,-0.788l0,0.561l-0.792,0l0,-0.908l1.146,0c1.09,0 1.973,-0.883 1.973,-1.972c0,-1.09 -0.883,-1.973 -1.973,-1.973c-0.003,0 -0.006,0.001 -0.008,0.001c0.005,-0.058 0.009,-0.116 0.009,-0.176c-0.001,-1.089 -0.883,-1.972 -1.973,-1.972c-0.738,0 -1.381,0.406 -1.719,1.006c-0.227,-0.091 -0.474,-0.143 -0.733,-0.143c-0.849,0 -1.571,0.538 -1.849,1.291c-0.045,-0.003 -0.089,-0.007 -0.135,-0.007c-1.089,0 -1.973,0.883 -1.973,1.973c0,1.089 0.883,1.972 1.973,1.972l1.147,0l0,0.908l-0.793,0l0,-0.561l-0.915,0.788l0.915,0.713l0,-0.561l1.156,0l0,-1.287l0.539,0l0,2.674l-3.245,0l0,-0.56l-0.915,0.786l0.915,0.714l0,-0.56l3.609,0l0,-3.054l0.602,0l0,5.156l-0.561,0l0.75,0.916l0.75,-0.916l-0.56,0l0,-5.156l0.602,0l0,3.053l3.608,0l0,0.56l0.916,-0.713Z" style="fill:#fff;fill-rule:nonzero;"/><clipPath id="_clip1"><rect x="128.504" y="17.526" width="12.477" height="12.477"/></clipPath><g clip-path="url(#_clip1)"><g><path d="M139.931,23.153c-0.281,0 -0.536,0.112 -0.725,0.292l-2.391,-2.097c0.082,-0.149 0.129,-0.321 0.129,-0.503c0,-0.579 -0.471,-1.05 -1.05,-1.05c-0.579,0 -1.051,0.471 -1.051,1.05c0,0.425 0.254,0.791 0.618,0.956l-1.501,3.975c-0.145,-0.076 -0.31,-0.12 -0.485,-0.12c-0.334,0 -0.632,0.157 -0.824,0.401l-2.206,-1.301c0.1,-0.161 0.159,-0.35 0.159,-0.553c0,-0.579 -0.471,-1.05 -1.05,-1.05c-0.579,0 -1.05,0.471 -1.05,1.05c0,0.579 0.471,1.05 1.05,1.05c0.31,0 0.588,-0.136 0.78,-0.35l2.216,1.307c-0.08,0.148 -0.126,0.317 -0.126,0.496c0,0.579 0.472,1.05 1.051,1.05c0.578,0 1.05,-0.471 1.05,-1.05c0,-0.337 -0.16,-0.636 -0.408,-0.828l1.516,-4.017c0.084,0.022 0.171,0.034 0.261,0.034c0.331,0 0.626,-0.154 0.818,-0.394l2.374,2.081c-0.129,0.174 -0.206,0.389 -0.206,0.621c0,0.579 0.471,1.05 1.051,1.05c0.579,0 1.05,-0.471 1.05,-1.05c0,-0.579 -0.471,-1.05 -1.05,-1.05Zm-10.377,1.553c-0.277,0 -0.502,-0.226 -0.502,-0.503c0,-0.277 0.225,-0.502 0.502,-0.502c0.277,0 0.502,0.225 0.502,0.502c0,0.277 -0.225,0.503 -0.502,0.503Zm3.921,2.502c-0.277,0 -0.503,-0.225 -0.503,-0.502c0,-0.277 0.226,-0.502 0.503,-0.502c0.276,0 0.502,0.225 0.502,0.502c0,0.277 -0.226,0.502 -0.502,0.502Zm2.419,-5.86c-0.277,0 -0.503,-0.226 -0.503,-0.503c0,-0.277 0.226,-0.502 0.503,-0.502c0.276,0 0.502,0.225 0.502,0.502c0,0.277 -0.225,0.503 -0.502,0.503Zm4.037,3.358c-0.277,0 -0.503,-0.226 -0.503,-0.503c0,-0.277 0.225,-0.502 0.503,-0.502c0.277,0 0.502,0.225 0.502,0.502c0,0.277 -0.225,0.503 -0.502,0.503Z" style="fill:#fff;fill-rule:nonzero;"/><path d="M130.488,23.394c0.188,-2.152 1.999,-3.845 4.198,-3.845c0.263,0 0.52,0.025 0.769,0.071c0.121,-0.038 0.249,-0.059 0.383,-0.059c0.473,0 0.887,0.261 1.106,0.646c0.922,0.587 1.601,1.522 1.852,2.62l0.36,0.316c0.077,-0.053 0.158,-0.096 0.243,-0.131c-0.362,-2.275 -2.337,-4.02 -4.713,-4.02c-2.375,0 -4.351,1.745 -4.712,4.02c0.202,0.082 0.378,0.214 0.514,0.382Z" style="fill:#fff;fill-rule:nonzero;"/><path d="M138.768,24.819c-0.469,1.816 -2.121,3.161 -4.082,3.161c-0.29,0 -0.573,-0.029 -0.847,-0.085c-0.132,0.046 -0.273,0.073 -0.42,0.073c-0.521,0 -0.969,-0.315 -1.166,-0.764c-0.614,-0.436 -1.106,-1.031 -1.417,-1.725l-0.525,-0.31c-0.048,0.04 -0.098,0.075 -0.151,0.107c0.634,1.893 2.423,3.261 4.526,3.261c2.104,0 3.892,-1.368 4.526,-3.26c-0.184,-0.113 -0.337,-0.27 -0.444,-0.458Z" style="fill:#fff;fill-rule:nonzero;"/></g></g><clipPath id="_clip2"><rect x="53.838" y="19.067" width="10.35" height="10.35"/></clipPath><g clip-path="url(#_clip2)"><path d="M63.462,23.424c-0.338,0 -0.62,0.233 -0.701,0.545l-2.766,0c-0.02,-0.12 -0.059,-0.234 -0.115,-0.338l1.896,-1.895c0.071,0.034 0.149,0.054 0.233,0.054c0.301,0 0.545,-0.244 0.545,-0.545c0,-0.3 -0.244,-0.544 -0.545,-0.544c-0.3,0 -0.545,0.244 -0.545,0.544c0,0.084 0.021,0.163 0.055,0.234l-1.866,1.866c-0.151,-0.137 -0.34,-0.232 -0.549,-0.267l0,-2.585c0.312,-0.081 0.545,-0.363 0.545,-0.7c0,-0.401 -0.326,-0.726 -0.727,-0.726c-0.4,0 -0.726,0.325 -0.726,0.726c0,0.337 0.232,0.619 0.545,0.7l0,2.585c-0.165,0.028 -0.318,0.092 -0.449,0.186l-1.785,-1.785c0.034,-0.071 0.055,-0.15 0.055,-0.234c0,-0.3 -0.244,-0.544 -0.545,-0.544c-0.3,0 -0.545,0.244 -0.545,0.544c0,0.301 0.245,0.545 0.545,0.545c0.084,0 0.163,-0.02 0.234,-0.054l1.784,1.784c-0.093,0.132 -0.158,0.284 -0.186,0.449l-2.584,0c-0.081,-0.312 -0.363,-0.545 -0.7,-0.545c-0.401,0 -0.727,0.326 -0.727,0.727c0,0.4 0.326,0.726 0.727,0.726c0.337,0 0.619,-0.232 0.7,-0.545l2.584,0c0.036,0.21 0.131,0.398 0.268,0.549l-1.866,1.866c-0.071,-0.034 -0.15,-0.054 -0.234,-0.054c-0.3,0 -0.545,0.244 -0.545,0.544c0,0.301 0.245,0.545 0.545,0.545c0.301,0 0.545,-0.244 0.545,-0.545c0,-0.083 -0.021,-0.162 -0.055,-0.233l1.896,-1.896c0.104,0.057 0.218,0.095 0.338,0.116l0,2.766c-0.313,0.081 -0.545,0.363 -0.545,0.7c0,0.401 0.326,0.726 0.726,0.726c0.401,0 0.727,-0.325 0.727,-0.726c0,-0.337 -0.233,-0.619 -0.545,-0.7l0,-2.766c0.165,-0.028 0.318,-0.093 0.449,-0.186l1.966,1.966c-0.034,0.071 -0.055,0.15 -0.055,0.233c0,0.301 0.245,0.545 0.545,0.545c0.301,0 0.545,-0.244 0.545,-0.545c0,-0.3 -0.244,-0.544 -0.545,-0.544c-0.084,0 -0.162,0.02 -0.233,0.054l-1.967,-1.966c0.094,-0.131 0.159,-0.284 0.186,-0.449l2.766,0c0.081,0.313 0.363,0.545 0.701,0.545c0.4,0 0.726,-0.326 0.726,-0.726c0,-0.401 -0.326,-0.727 -0.726,-0.727Zm-1.453,-2.36c0.1,0 0.182,0.081 0.182,0.181c0,0.101 -0.082,0.182 -0.182,0.182c-0.1,0 -0.181,-0.081 -0.181,-0.182c0,-0.1 0.081,-0.181 0.181,-0.181Zm-5.992,0.363c-0.1,0 -0.181,-0.081 -0.181,-0.182c0,-0.1 0.081,-0.181 0.181,-0.181c0.1,0 0.182,0.081 0.182,0.181c0,0.101 -0.082,0.182 -0.182,0.182Zm-1.452,3.087c-0.201,0 -0.364,-0.163 -0.364,-0.363c0,-0.201 0.163,-0.363 0.364,-0.363c0.2,0 0.363,0.162 0.363,0.363c0,0.2 -0.163,0.363 -0.363,0.363Zm1.452,2.905c-0.1,0 -0.181,-0.081 -0.181,-0.182c0,-0.1 0.081,-0.181 0.181,-0.181c0.1,0 0.182,0.081 0.182,0.181c0,0.101 -0.082,0.182 -0.182,0.182Zm2.542,-7.626c0,-0.2 0.163,-0.363 0.363,-0.363c0.201,0 0.364,0.163 0.364,0.363c0,0.2 -0.163,0.363 -0.364,0.363c-0.2,0 -0.363,-0.163 -0.363,-0.363Zm0.727,8.897c0,0.2 -0.163,0.363 -0.364,0.363c-0.2,0 -0.363,-0.163 -0.363,-0.363c0,-0.2 0.163,-0.363 0.363,-0.363c0.201,0 0.364,0.163 0.364,0.363Zm-0.364,-3.813c-0.4,0 -0.726,-0.326 -0.726,-0.726c0,-0.168 0.059,-0.32 0.154,-0.443l0.13,-0.129c0.123,-0.096 0.275,-0.155 0.442,-0.155c0.401,0 0.727,0.326 0.727,0.727c0,0.4 -0.326,0.726 -0.727,0.726Zm3.087,2.179c0.1,0 0.182,0.081 0.182,0.181c0,0.101 -0.082,0.182 -0.182,0.182c-0.1,0 -0.181,-0.081 -0.181,-0.182c0,-0.1 0.081,-0.181 0.181,-0.181Zm1.453,-2.542c-0.201,0 -0.363,-0.163 -0.363,-0.363c0,-0.201 0.162,-0.363 0.363,-0.363c0.2,0 0.363,0.162 0.363,0.363c0,0.2 -0.163,0.363 -0.363,0.363Z" style="fill:#fff;fill-rule:nonzero;"/></g><text x="66.731px" y="28.257px" style="font-family:'ArialMT', 'Arial', sans-serif;font-size:12px;fill:#fff;">IoT</text></svg>