<?xml version="1.0" encoding="UTF-8" standalone="no"?><!DOCTYPE svg PUBLIC "-//W3C//DTD SVG 1.1//EN"
        "http://www.w3.org/Graphics/SVG/1.1/DTD/svg11.dtd">
<svg width="100%" height="100%" viewBox="0 0 195 135" version="1.1" xmlns="http://www.w3.org/2000/svg"
     xmlns:xlink="http://www.w3.org/1999/xlink" xml:space="preserve" xmlns:serif="http://www.serif.com/"
     style="fill-rule:evenodd;clip-rule:evenodd;"><rect x="0" y="0" width="195" height="135" style="fill:#4e4e4e;"/>
    <rect x="82.604" y="95.244" width="29.787" height="24.092" style="fill:#d2d2d2;"/>
    <path d="M75.386,118.747c0,0 7.207,0.494 22.113,0.494c14.812,0 22.112,-0.494 22.112,-0.494c0.207,0.11 0.379,0.377 0.379,0.59c0,0.212 -0.379,0.59 -0.379,0.59c0,0 -29.481,-0.141 -44.226,0c0,0 -0.378,-0.378 -0.378,-0.59c0,-0.213 0.172,-0.48 0.378,-0.59l0.001,0Z"
          style="fill:#f4f4f4;fill-rule:nonzero;"/>
    <path d="M163.32,20.123c0,-2.786 -2.262,-5.048 -5.048,-5.048l-121.544,0c-2.786,0 -5.048,2.262 -5.048,5.048l0,77.663c0,2.786 2.262,5.048 5.048,5.048l121.544,0c2.786,0 5.048,-2.262 5.048,-5.048l0,-77.663Z"/>
    <path d="M36.484,15.075c-2.662,0 -4.804,2.142 -4.804,4.803l0,67.455l131.64,0l0,-67.455c0,-2.661 -2.143,-4.803 -4.805,-4.803l-122.029,0l-0.002,0Z"
          style="fill:#2b2b2b;fill-rule:nonzero;"/>
    <path d="M36.484,15.075c-2.662,0 -4.804,2.142 -4.804,4.803l0,67.455l131.64,0l0,-67.455c0,-2.661 -2.143,-4.803 -4.805,-4.803l-122.029,0l-0.002,0Z"
          style="fill:#b3b3b3;fill-rule:nonzero;"/>
    <circle cx="97.5" cy="95.085" r="3.844" style="fill:#b1b1b1;"/>
    <path d="M36.484,15.075c-2.662,0 -4.804,2.142 -4.804,4.803l0,67.455l129.79,-71.244c-0.814,-0.635 -1.836,-1.016 -2.953,-1.016l-122.03,0l-0.003,0.002Z"
          style="fill:#1c1c1c;fill-opacity:0.0745098;fill-rule:nonzero;"/>
    <rect x="34.733" y="17.92" width="125.296" height="66.682" style="fill:#232323;"/>
    <path d="M157.501,17.718l-122.803,0.188l0,66.821l125.662,-66.067c-0.788,-0.588 -1.778,-0.942 -2.859,-0.942Z"
          style="fill:#4d4d4d;fill-rule:nonzero;"/>
    <clipPath id="_clip1"><rect x="88.022" y="34.736" width="18.956" height="23.253"/></clipPath>
    <g clip-path="url(#_clip1)"><g><path d="M106.346,42.616l0.007,0.005l0,0.047l-0.007,0.005l-0.005,0.007l-0.42,0.314c-0.279,0.208 -0.524,0.422 -0.737,0.642c-0.212,0.221 -0.401,0.461 -0.566,0.72c-0.166,0.26 -0.3,0.52 -0.402,0.779c-0.102,0.26 -0.181,0.524 -0.236,0.791c-0.055,0.268 -0.083,0.638 -0.083,1.11c0,0.472 0.032,0.857 0.095,1.156c0.063,0.299 0.153,0.591 0.271,0.874c0.118,0.283 0.26,0.551 0.425,0.802c0.166,0.252 0.339,0.473 0.52,0.661c0.181,0.189 0.368,0.364 0.562,0.525c0.192,0.162 0.413,0.317 0.665,0.467c0.252,0.149 0.39,0.228 0.413,0.236l0.036,0.012l0.047,0.023l0.024,0.008l0.023,0.004l0,0.047l-0.311,0.78c-0.21,0.519 -0.427,0.985 -0.652,1.397c-0.223,0.414 -0.485,0.837 -0.784,1.27c-0.299,0.433 -0.568,0.793 -0.807,1.081c-0.241,0.287 -0.461,0.523 -0.661,0.708c-0.202,0.185 -0.408,0.34 -0.621,0.466c-0.212,0.125 -0.425,0.22 -0.637,0.283c-0.213,0.063 -0.35,0.098 -0.413,0.106l-0.095,0.012l-0.023,0.007l-0.024,0.005l-0.189,-0.005c-0.126,-0.005 -0.315,-0.031 -0.567,-0.078c-0.251,-0.047 -0.633,-0.161 -1.144,-0.342c-0.512,-0.181 -0.913,-0.303 -1.204,-0.366c-0.292,-0.063 -0.591,-0.095 -0.897,-0.095c-0.307,0 -0.583,0.024 -0.827,0.071c-0.244,0.047 -0.598,0.154 -1.062,0.319c-0.464,0.165 -0.842,0.287 -1.133,0.366l-0.437,0.118l-0.094,0.012l-0.095,0.011l0,0.012l-0.472,0l0,-0.012l-0.083,-0.011l-0.082,-0.012l-0.047,-0.012c-0.032,-0.008 -0.087,-0.024 -0.166,-0.047c-0.078,-0.024 -0.216,-0.083 -0.413,-0.177c-0.196,-0.095 -0.409,-0.232 -0.637,-0.413c-0.228,-0.181 -0.441,-0.378 -0.637,-0.59c-0.197,-0.213 -0.459,-0.537 -0.787,-0.973c-0.325,-0.438 -0.604,-0.844 -0.835,-1.218c-0.233,-0.373 -0.458,-0.786 -0.675,-1.237c-0.216,-0.453 -0.414,-0.932 -0.595,-1.436c-0.181,-0.503 -0.335,-1.015 -0.461,-1.534c-0.126,-0.519 -0.222,-1.054 -0.29,-1.605l-0.099,-0.826l0,-1.063l0.012,0l0.07,-0.614c0.048,-0.409 0.118,-0.794 0.213,-1.156c0.094,-0.362 0.208,-0.697 0.342,-1.004c0.134,-0.307 0.287,-0.602 0.461,-0.885c0.173,-0.283 0.348,-0.529 0.526,-0.736c0.176,-0.21 0.363,-0.405 0.559,-0.586c0.197,-0.181 0.445,-0.366 0.744,-0.555c0.299,-0.189 0.602,-0.346 0.909,-0.472c0.307,-0.126 0.614,-0.22 0.921,-0.283c0.306,-0.063 0.641,-0.094 1.003,-0.094c0.362,0 0.732,0.047 1.109,0.141c0.378,0.095 0.854,0.244 1.429,0.449c0.574,0.204 0.912,0.318 1.015,0.342c0.102,0.024 0.224,0.031 0.366,0.024c0.141,-0.008 0.617,-0.15 1.428,-0.425c0.81,-0.276 1.373,-0.445 1.688,-0.508c0.315,-0.063 0.649,-0.094 1.003,-0.094c0.354,0 0.728,0.039 1.121,0.118c0.394,0.078 0.732,0.173 1.016,0.283c0.283,0.11 0.549,0.238 0.797,0.385c0.248,0.145 0.477,0.307 0.69,0.488c0.212,0.181 0.405,0.374 0.578,0.579c0.173,0.204 0.27,0.321 0.29,0.349c0.019,0.027 0.03,0.043 0.034,0.047Z"/><g><path d="M88.022,40.78l0,-6.044l13.952,0l0,0.005c0,0.005 -0.091,0.023 -0.272,0.054c-0.181,0.032 -0.417,0.099 -0.708,0.201c-0.291,0.102 -0.567,0.224 -0.826,0.366c-0.26,0.142 -0.504,0.299 -0.732,0.472c-0.228,0.173 -0.433,0.362 -0.614,0.567c-0.181,0.204 -0.35,0.421 -0.508,0.649c-0.157,0.228 -0.297,0.47 -0.42,0.727c-0.121,0.255 -0.217,0.524 -0.288,0.807c-0.071,0.284 -0.112,0.606 -0.123,0.968l-0.018,0.543l0.389,-0.005c0.26,-0.004 0.531,-0.042 0.815,-0.113c0.283,-0.071 0.541,-0.167 0.774,-0.288c0.231,-0.123 0.463,-0.277 0.694,-0.463c0.233,-0.184 0.445,-0.384 0.637,-0.599c0.194,-0.217 0.377,-0.464 0.55,-0.739c0.173,-0.275 0.315,-0.543 0.425,-0.803c0.11,-0.259 0.197,-0.519 0.26,-0.779c0.063,-0.259 0.102,-0.543 0.118,-0.85c0.016,-0.306 0.021,-0.503 0.016,-0.59l-0.004,-0.13l4.839,0l0,17.068l-0.023,-0.004l-0.024,-0.008l-0.024,-0.011l-0.023,-0.012l-0.036,-0.012c-0.023,-0.008 -0.161,-0.087 -0.413,-0.236c-0.252,-0.15 -0.473,-0.305 -0.665,-0.467c-0.194,-0.161 -0.381,-0.336 -0.562,-0.525c-0.181,-0.188 -0.354,-0.409 -0.52,-0.661c-0.165,-0.251 -0.307,-0.519 -0.425,-0.802c-0.118,-0.283 -0.208,-0.575 -0.271,-0.874c-0.063,-0.299 -0.095,-0.684 -0.095,-1.156c0,-0.472 0.028,-0.842 0.083,-1.11c0.055,-0.267 0.134,-0.531 0.236,-0.791c0.102,-0.259 0.236,-0.519 0.402,-0.779c0.165,-0.259 0.354,-0.499 0.566,-0.72c0.213,-0.22 0.458,-0.434 0.737,-0.642l0.42,-0.314l0.005,-0.007l0.007,-0.005l0,-0.047l-0.007,-0.005c-0.004,-0.004 -0.015,-0.02 -0.034,-0.047c-0.02,-0.028 -0.117,-0.145 -0.29,-0.349c-0.173,-0.205 -0.366,-0.398 -0.578,-0.579c-0.213,-0.181 -0.442,-0.343 -0.69,-0.488c-0.248,-0.147 -0.514,-0.275 -0.797,-0.385c-0.284,-0.11 -0.622,-0.205 -1.016,-0.283c-0.393,-0.079 -0.767,-0.118 -1.121,-0.118c-0.354,0 -0.688,0.031 -1.003,0.094c-0.315,0.063 -0.878,0.232 -1.688,0.508c-0.811,0.275 -1.287,0.417 -1.428,0.425c-0.142,0.007 -0.264,0 -0.366,-0.024c-0.103,-0.024 -0.441,-0.138 -1.015,-0.342c-0.575,-0.205 -1.051,-0.354 -1.429,-0.449c-0.377,-0.094 -0.747,-0.141 -1.109,-0.141c-0.362,0 -0.697,0.031 -1.003,0.094c-0.307,0.063 -0.614,0.157 -0.921,0.283c-0.307,0.126 -0.61,0.283 -0.909,0.472c-0.299,0.189 -0.547,0.374 -0.744,0.555c-0.196,0.181 -0.383,0.376 -0.559,0.586c-0.178,0.207 -0.353,0.453 -0.526,0.736c-0.174,0.283 -0.327,0.578 -0.461,0.885c-0.134,0.307 -0.248,0.642 -0.342,1.004c-0.095,0.362 -0.165,0.747 -0.213,1.156l-0.07,0.614l-0.012,0l0,-6.043l0,0Z" style="fill:none;stroke:#fff;stroke-width:0.01px;"/>
        <path d="M88.022,52.937l0,-5.051l0.099,0.826c0.068,0.551 0.164,1.086 0.29,1.605c0.126,0.519 0.28,1.031 0.461,1.534c0.181,0.504 0.379,0.983 0.595,1.436c0.217,0.451 0.442,0.864 0.675,1.237c0.231,0.374 0.51,0.78 0.835,1.218c0.328,0.436 0.59,0.76 0.787,0.973c0.196,0.212 0.409,0.409 0.637,0.59c0.228,0.181 0.441,0.318 0.637,0.413c0.197,0.094 0.335,0.153 0.413,0.177c0.079,0.023 0.134,0.039 0.166,0.047l0.047,0.012l0.165,0.023l0,0.012l-5.807,0l0,-5.052Z"
              style="fill:none;stroke:#fff;stroke-width:0.01px;"/></g><path
            d="M101.974,34.741l0,-0.005l0.165,0l0.004,0.13c0.005,0.087 0,0.284 -0.016,0.59c-0.016,0.307 -0.055,0.591 -0.118,0.85c-0.063,0.26 -0.15,0.52 -0.26,0.779c-0.11,0.26 -0.252,0.528 -0.425,0.803c-0.173,0.275 -0.356,0.522 -0.55,0.739c-0.192,0.215 -0.404,0.415 -0.637,0.599c-0.231,0.186 -0.463,0.34 -0.694,0.463c-0.233,0.121 -0.491,0.217 -0.774,0.288c-0.284,0.071 -0.555,0.109 -0.815,0.113l-0.389,0.005l0.018,-0.543c0.011,-0.362 0.052,-0.684 0.123,-0.968c0.071,-0.283 0.167,-0.552 0.288,-0.807c0.123,-0.257 0.263,-0.499 0.42,-0.727c0.158,-0.228 0.327,-0.445 0.508,-0.649c0.181,-0.205 0.386,-0.394 0.614,-0.567c0.228,-0.173 0.472,-0.33 0.732,-0.472c0.259,-0.142 0.535,-0.264 0.826,-0.366c0.291,-0.102 0.527,-0.169 0.708,-0.201c0.181,-0.031 0.272,-0.049 0.272,-0.054l0,0Z"/><g><path d="M106.667,52.631l0.311,-0.78l0,6.138l-5.028,0l0,-0.023l0.024,-0.005l0.023,-0.007l0.095,-0.012c0.063,-0.008 0.2,-0.043 0.413,-0.106c0.212,-0.063 0.425,-0.158 0.637,-0.283c0.213,-0.126 0.419,-0.281 0.621,-0.466c0.2,-0.185 0.42,-0.421 0.661,-0.708c0.239,-0.288 0.508,-0.648 0.807,-1.081c0.299,-0.433 0.561,-0.856 0.784,-1.27c0.225,-0.412 0.442,-0.878 0.652,-1.397Z" style="fill:none;stroke:#fff;stroke-width:0.01px;"/>
        <path d="M101.761,57.961l0.189,0.005l0,0.023l-7.649,0l0,-0.012l0.095,-0.011l0.094,-0.012l0.437,-0.118c0.291,-0.079 0.669,-0.201 1.133,-0.366c0.464,-0.165 0.818,-0.272 1.062,-0.319c0.244,-0.047 0.52,-0.071 0.827,-0.071c0.306,0 0.605,0.032 0.897,0.095c0.291,0.063 0.692,0.185 1.204,0.366c0.511,0.181 0.893,0.295 1.144,0.342c0.252,0.047 0.441,0.073 0.567,0.078Z"
              style="fill:none;stroke:#fefefe;stroke-width:0.01px;"/></g></g></g>
    <path d="M108.527,46.197l-2.171,25.403l-20.473,-13.687l22.644,-11.716Z" style="fill:#232323;"/></svg>