<?xml version="1.0" encoding="UTF-8" standalone="no"?><!DOCTYPE svg PUBLIC "-//W3C//DTD SVG 1.1//EN"
        "http://www.w3.org/Graphics/SVG/1.1/DTD/svg11.dtd">
<svg width="100%" height="100%" viewBox="0 0 195 135" version="1.1" xmlns="http://www.w3.org/2000/svg"
     xmlns:xlink="http://www.w3.org/1999/xlink" xml:space="preserve" xmlns:serif="http://www.serif.com/"
     style="fill-rule:evenodd;clip-rule:evenodd;stroke-linejoin:round;stroke-miterlimit:1.41421;"><rect x="0" y="0" width="195" height="135" style="fill:#4e4e4e;"/>
    <rect x="82.604" y="95.244" width="29.787" height="24.092" style="fill:#d2d2d2;"/>
    <path d="M75.386,118.747c0,0 7.207,0.494 22.113,0.494c14.812,0 22.112,-0.494 22.112,-0.494c0.207,0.11 0.379,0.377 0.379,0.59c0,0.212 -0.379,0.59 -0.379,0.59c0,0 -29.481,-0.141 -44.226,0c0,0 -0.378,-0.378 -0.378,-0.59c0,-0.213 0.172,-0.48 0.378,-0.59l0.001,0Z"
          style="fill:#f4f4f4;fill-rule:nonzero;"/>
    <path d="M163.32,19.912c0,-2.67 -2.168,-4.837 -4.838,-4.837l-121.964,0c-2.67,0 -4.838,2.167 -4.838,4.837l0,78.085c0,2.67 2.168,4.837 4.838,4.837l121.964,0c2.67,0 4.838,-2.167 4.838,-4.837l0,-78.085Z"/>
    <path d="M36.484,15.075c-2.662,0 -4.804,2.142 -4.804,4.803l0,67.455l131.64,0l0,-67.455c0,-2.661 -2.143,-4.803 -4.805,-4.803l-122.029,0l-0.002,0Z"
          style="fill:#2b2b2b;fill-rule:nonzero;"/>
    <path d="M36.484,15.075c-2.662,0 -4.804,2.142 -4.804,4.803l0,67.455l131.64,0l0,-67.455c0,-2.661 -2.143,-4.803 -4.805,-4.803l-122.029,0l-0.002,0Z"
          style="fill:#b3b3b3;fill-rule:nonzero;"/>
    <circle cx="97.5" cy="95.085" r="3.844" style="fill:#b1b1b1;"/>
    <path d="M36.484,15.075c-1.137,0 -2.18,0.391 -3.001,1.046c-1.1,0.879 -1.803,2.233 -1.803,3.757l0,67.455l129.79,-71.244c-0.814,-0.635 -1.836,-1.016 -2.953,-1.016l-122.03,0l-0.003,0.002Z"
          style="fill:#1c1c1c;fill-opacity:0.0745098;fill-rule:nonzero;"/>
    <path d="M103.923,48.037l-1.626,25.444l-20.762,-13.245l22.388,-12.199Z" style="fill:#b3b3b3;"/>
    <rect x="34.733" y="17.92" width="125.296" height="66.682" style="fill:#232323;"/>
    <g><path id="XMLID_1099_" d="M77.122,44.874l0,-7.346l-8.571,0l0,-13.469l8.571,0l0,-4.898l-12.244,0l0,25.713l12.244,0Z" style="fill:#a3a3a3;fill-rule:nonzero;"/>
        <path id="XMLID_1100_"
              d="M75.286,55.894l-3.061,0l0,15.918l4.897,0l0,-12.737c-1.097,-0.635 -1.836,-1.821 -1.836,-3.181Z"
              style="fill:#a3a3a3;fill-rule:nonzero;"/>
        <rect id="XMLID_1101_" x="64.878" y="55.894" width="3.673" height="15.918" style="fill:#a3a3a3;"/>
        <path id="XMLID_1102_"
              d="M86.305,55.894l-3.673,0c0,2.029 -1.644,3.674 -3.673,3.674c-0.669,0 -1.296,-0.18 -1.837,-0.493l0,12.737l12.245,0l0,-12.296c-1.738,-0.292 -3.062,-1.802 -3.062,-3.622Z"
              style="fill:#8f8f8f;fill-rule:nonzero;"/>
        <path id="XMLID_1103_"
              d="M85.693,24.059l0,13.469l-8.571,0l0,7.346l12.245,0l0,-25.713l-12.245,0l0,4.898l8.571,0Z"
              style="fill:#8f8f8f;fill-rule:nonzero;"/>
        <path id="XMLID_1104_"
              d="M85.693,24.059l-8.571,0l0,13.469l8.571,0l0,-13.469Zm-5.51,8.571c-1.014,0 -1.836,-0.822 -1.836,-1.836c0,-1.015 0.822,-1.837 1.836,-1.837c1.015,0 1.837,0.822 1.837,1.837c0,1.014 -0.822,1.836 -1.837,1.836Z"
              style="fill:#e8e8e8;fill-rule:nonzero;"/>
        <path id="XMLID_1107_"
              d="M68.551,24.059l0,13.469l8.571,0l0,-13.469l-8.571,0Zm5.51,8.571c-1.014,0 -1.836,-0.822 -1.836,-1.836c0,-1.015 0.822,-1.837 1.836,-1.837c1.015,0 1.837,0.822 1.837,1.837c0,1.014 -0.822,1.836 -1.837,1.836Z"
              style="fill:#fff;fill-rule:nonzero;"/>
        <rect id="XMLID_1110_" x="102.835" y="41.201" width="4.898" height="3.673" style="fill:#8f8f8f;"/>
        <rect id="XMLID_1111_" x="94.264" y="22.835" width="11.02" height="3.673" style="fill:#e8e8e8;"/>
        <rect id="XMLID_1112_" x="105.284" y="22.835" width="11.02" height="3.673" style="fill:#bfbfbf;"/>
        <path id="XMLID_1113_" d="M105.284,41.201l2.449,0l8.571,-14.693l-11.02,0l0,14.693Z"
              style="fill:#a3a3a3;fill-rule:nonzero;"/>
        <path id="XMLID_1114_" d="M105.284,26.508l-11.02,0l8.571,14.693l2.449,0l0,-14.693Z"
              style="fill:#bfbfbf;fill-rule:nonzero;"/>
        <rect id="XMLID_1115_" x="68.551" y="55.894" width="3.673" height="15.918" style="fill:#606060;"/>
        <rect id="XMLID_1116_" x="107.733" y="55.894" width="9.795" height="15.918" style="fill:#606060;"/>
        <rect id="XMLID_1117_" x="64.878" y="71.812" width="52.65" height="3.673" style="fill:#404040;"/>
        <path id="XMLID_1118_"
              d="M77.122,59.075c0.541,0.313 1.168,0.493 1.837,0.493l0,-3.674l-3.673,0c0,1.36 0.739,2.546 1.836,3.181Z"
              style="fill:#606060;fill-rule:nonzero;"/>
        <path id="XMLID_1119_" d="M82.632,55.894l-3.673,0l0,3.674c2.029,0 3.673,-1.645 3.673,-3.674Z"
              style="fill:#404040;fill-rule:nonzero;"/>
        <path id="XMLID_1120_" d="M93.652,55.894l-3.673,0l0,3.674c2.029,0 3.673,-1.645 3.673,-3.674Z"
              style="fill:#404040;fill-rule:nonzero;"/>
        <path id="XMLID_1121_"
              d="M89.367,59.516c0.199,0.033 0.403,0.052 0.612,0.052l0,-3.674l-3.674,0c0,1.82 1.324,3.33 3.062,3.622Z"
              style="fill:#606060;fill-rule:nonzero;"/>
        <path id="XMLID_1122_" d="M104.672,55.894l-3.673,0l0,3.674c2.028,0 3.673,-1.645 3.673,-3.674Z"
              style="fill:#404040;fill-rule:nonzero;"/>
        <path id="XMLID_1123_" d="M100.999,59.568l0,-3.674l-3.674,0c0,2.029 1.645,3.674 3.674,3.674Z"
              style="fill:#606060;fill-rule:nonzero;"/>
        <rect id="XMLID_1124_" x="68.551" y="50.384" width="39.182" height="5.51" style="fill:#bfbfbf;"/>
        <path id="XMLID_1125_" d="M68.551,44.874l-3.673,0l0,3.674l-3.673,0l0,3.673l3.673,0l0,3.673l3.673,0l0,-11.02Z"
              style="fill:#606060;fill-rule:nonzero;"/>
        <path id="XMLID_1126_" d="M68.551,44.874l0,5.51l39.182,0l0,5.51l9.795,0l0,-11.02l-48.977,0Z"
              style="fill:#e8e8e8;fill-rule:nonzero;"/>
        <circle id="XMLID_1127_" cx="80.183" cy="30.794" r="1.837" style="fill:#ff3d0d;"/>
        <circle id="XMLID_1128_" cx="74.061" cy="30.794" r="1.837" style="fill:#8f8f8f;"/></g>
    <g><path d="M132.923,40.007c0.601,-0.375 1.144,-0.833 1.616,-1.357l1.699,0.981l1.547,-2.68l-1.696,-0.979c0.216,-0.658 0.343,-1.356 0.367,-2.08l1.929,-0.34l-0.538,-3.048l-1.929,0.341c-0.266,-0.661 -0.624,-1.275 -1.058,-1.827l1.261,-1.503l-2.37,-1.989l-1.26,1.501c-0.615,-0.329 -1.281,-0.576 -1.984,-0.724l0,-1.957l-3.094,0l0,1.957c-0.702,0.148 -1.369,0.395 -1.984,0.724l-1.26,-1.501l-2.37,1.989l1.261,1.503c-0.434,0.552 -0.792,1.166 -1.058,1.827l-1.929,-0.34l-0.537,3.047l1.929,0.34c0.023,0.724 0.15,1.422 0.366,2.08l-1.696,0.979l1.547,2.68l1.699,-0.981c0.472,0.524 1.016,0.982 1.616,1.357l-0.671,1.843l2.908,1.058l0.67,-1.84c0.345,0.049 0.698,0.075 1.056,0.075c0.359,0 0.711,-0.026 1.056,-0.075l0.67,1.84l2.908,-1.058l-0.671,-1.843Zm-3.963,-2.413c-2.179,0 -3.952,-1.772 -3.952,-3.951c0,-2.179 1.773,-3.952 3.952,-3.952c2.179,0 3.952,1.773 3.952,3.952c0,2.179 -1.773,3.951 -3.952,3.951Z" style="fill:#5353bf;fill-rule:nonzero;"/>
        <path d="M146.223,42.331l-1.334,0.431c-0.254,-0.442 -0.568,-0.842 -0.93,-1.191l0.745,-1.189l-1.877,-1.176l-0.745,1.189c-0.469,-0.173 -0.965,-0.282 -1.478,-0.318l-0.193,-1.388l-2.194,0.306l0.193,1.388c-0.483,0.174 -0.931,0.415 -1.335,0.709l-1.041,-0.939l-1.484,1.644l1.042,0.941c-0.253,0.434 -0.446,0.905 -0.569,1.4l-1.402,-0.051l-0.08,2.213l1.402,0.051c0.088,0.511 0.247,0.993 0.465,1.439l-1.106,0.862l1.362,1.747l1.108,-0.864c0.386,0.325 0.817,0.596 1.279,0.803l-0.293,1.373l2.166,0.463l0.293,-1.371c0.25,0.001 0.502,-0.016 0.756,-0.052c0.254,-0.035 0.502,-0.088 0.741,-0.157l0.657,1.239l1.957,-1.038l-0.657,-1.24c0.389,-0.326 0.729,-0.704 1.011,-1.122l1.302,0.527l0.832,-2.052l-1.299,-0.527c0.087,-0.488 0.108,-0.996 0.054,-1.511l1.334,-0.432l-0.682,-2.107Zm-5.6,5.904c-1.545,0.215 -2.977,-0.866 -3.192,-2.411c-0.216,-1.545 0.866,-2.977 2.411,-3.192c1.545,-0.216 2.976,0.866 3.192,2.411c0.215,1.545 -0.866,2.977 -2.411,3.192Z"
              style="fill:#5353bf;fill-rule:nonzero;"/>
        <path d="M149.211,34.655l0.052,-1.748l-1.106,-0.033c-0.069,-0.385 -0.193,-0.767 -0.375,-1.133l0.869,-0.687l-1.084,-1.372l-0.869,0.686c-0.309,-0.257 -0.652,-0.467 -1.016,-0.625l0.225,-1.085l-1.712,-0.355l-0.225,1.084c-0.395,0.001 -0.792,0.057 -1.181,0.172l-0.525,-0.975l-1.539,0.83l0.524,0.974c-0.309,0.262 -0.575,0.563 -0.793,0.892l-1.029,-0.41l-0.646,1.625l1.029,0.41c-0.067,0.391 -0.081,0.792 -0.036,1.192l-1.051,0.348l0.549,1.66l1.051,-0.347c0.205,0.354 0.456,0.667 0.739,0.937l-0.581,0.941l1.488,0.919l0.583,-0.943c0.375,0.134 0.768,0.216 1.167,0.242l0.16,1.097l1.73,-0.253l-0.159,-1.095c0.185,-0.068 0.367,-0.15 0.545,-0.246c0.179,-0.096 0.347,-0.204 0.506,-0.32l0.827,0.736l1.163,-1.306l-0.828,-0.737c0.199,-0.347 0.346,-0.721 0.441,-1.108l1.107,0.033Zm-4.166,0.936c-1.085,0.584 -2.442,0.177 -3.025,-0.907c-0.585,-1.084 -0.177,-2.442 0.907,-3.025c1.084,-0.584 2.441,-0.177 3.025,0.907c0.584,1.085 0.177,2.441 -0.907,3.025Z"
              style="fill:#5353bf;fill-rule:nonzero;"/></g>
    <path d="M54.63,52.225l-13.64,25.357l27.28,0l-13.64,-25.357Zm0.198,22.525l-1.661,-2.735l1.112,0l0.666,-4.554l-2.706,0l0.778,-5.435l2.686,0l-0.758,4.147l2.076,0l-1.508,5.842l0.983,0l-1.668,2.735Z"
          style="fill:#b03636;fill-rule:nonzero;"/>
    <g><g><path d="M147.368,67.036l-2.601,0l0,-1.093c0,-0.374 -0.303,-0.677 -0.677,-0.677l-1.129,0c-0.206,-0.866 -0.541,-1.686 -1,-2.448l0.81,-0.823c0.259,-0.264 0.259,-0.687 0,-0.95l-1.897,-1.93c-0.128,-0.129 -0.302,-0.202 -0.483,-0.202c-0.182,0 -0.356,0.073 -0.483,0.202l-0.798,0.811c-0.745,-0.461 -1.546,-0.798 -2.392,-1.006l0,-1.162c0,-0.374 -0.303,-0.677 -0.678,-0.677l-2.683,0c-0.374,0 -0.677,0.303 -0.677,0.677l0,1.162c-0.846,0.208 -1.648,0.545 -2.393,1.006l-0.797,-0.81c-0.127,-0.129 -0.301,-0.202 -0.483,-0.202l0,0c-0.181,0 -0.355,0.073 -0.483,0.202l-1.897,1.929c-0.26,0.263 -0.26,0.686 0,0.95l0.809,0.823c-0.458,0.762 -0.793,1.582 -0.999,2.448l-1.129,0c-0.374,0 -0.678,0.303 -0.678,0.677l0,1.093l-2.6,0c-0.375,0 -0.678,0.304 -0.678,0.678l0,11.924c0,0.374 0.303,0.677 0.678,0.677l25.338,0c0.374,0 0.678,-0.303 0.678,-0.677l0,-11.924c0,-0.374 -0.304,-0.678 -0.678,-0.678Zm-21.383,-0.415l1.005,0c0.33,0 0.612,-0.238 0.668,-0.564c0.181,-1.065 0.585,-2.055 1.199,-2.942c0.185,-0.267 0.154,-0.629 -0.074,-0.86l-0.723,-0.735l0.947,-0.963l0.707,0.719c0.234,0.237 0.606,0.27 0.877,0.075c0.87,-0.622 1.84,-1.031 2.884,-1.215c0.324,-0.057 0.56,-0.338 0.56,-0.667l0,-1.033l1.328,0l0,1.033c0,0.329 0.236,0.61 0.56,0.667c1.044,0.184 2.014,0.593 2.883,1.215c0.271,0.194 0.644,0.162 0.878,-0.076l0.707,-0.718l0.947,0.963l-0.723,0.735c-0.228,0.231 -0.259,0.593 -0.074,0.86c0.614,0.887 1.018,1.877 1.199,2.942c0.055,0.326 0.337,0.564 0.668,0.564l1.004,0l0,0.416l-5.112,0c-0.138,-1.893 -1.7,-3.391 -3.601,-3.391c-1.902,0 -3.463,1.498 -3.601,3.391l-5.113,0l0,-0.416Zm6.473,0.415c0.132,-1.144 1.086,-2.035 2.241,-2.035c1.155,0 2.109,0.891 2.24,2.035l-4.481,0Zm14.233,11.924l-23.984,0l0,-10.569l23.984,0l0,10.569Z" style="fill:#fff;fill-rule:nonzero;"/><path
            d="M125.011,71.372l1.49,0c0.374,0 0.678,-0.303 0.678,-0.677c0,-0.374 -0.304,-0.678 -0.678,-0.678l-1.49,0c-0.375,0 -0.678,0.304 -0.678,0.678c0,0.374 0.303,0.677 0.678,0.677Z"
            style="fill:#fff;fill-rule:nonzero;"/><path
            d="M129.482,71.372l1.491,0c0.374,0 0.677,-0.303 0.677,-0.677c0,-0.374 -0.303,-0.678 -0.677,-0.678l-1.491,0c-0.374,0 -0.677,0.304 -0.677,0.678c0,0.374 0.303,0.677 0.677,0.677Z"
            style="fill:#fff;fill-rule:nonzero;"/><path
            d="M133.954,71.372l1.49,0c0.374,0 0.678,-0.303 0.678,-0.677c0,-0.374 -0.304,-0.678 -0.678,-0.678l-1.49,0c-0.375,0 -0.678,0.304 -0.678,0.678c0,0.374 0.303,0.677 0.678,0.677Z"
            style="fill:#fff;fill-rule:nonzero;"/><path
            d="M138.425,71.372l1.491,0c0.374,0 0.677,-0.303 0.677,-0.677c0,-0.374 -0.303,-0.678 -0.677,-0.678l-1.491,0c-0.374,0 -0.677,0.304 -0.677,0.678c0,0.374 0.303,0.677 0.677,0.677Z"
            style="fill:#fff;fill-rule:nonzero;"/><path
            d="M142.897,71.372l1.49,0c0.374,0 0.678,-0.303 0.678,-0.677c0,-0.374 -0.304,-0.678 -0.678,-0.678l-1.49,0c-0.375,0 -0.678,0.304 -0.678,0.678c0,0.374 0.303,0.677 0.678,0.677Z"
            style="fill:#fff;fill-rule:nonzero;"/><path
            d="M125.011,77.334l1.49,0c0.374,0 0.678,-0.303 0.678,-0.677c0,-0.374 -0.304,-0.678 -0.678,-0.678l-1.49,0c-0.375,0 -0.678,0.304 -0.678,0.678c0,0.374 0.303,0.677 0.678,0.677Z"
            style="fill:#fff;fill-rule:nonzero;"/><path
            d="M139.916,75.979l-10.456,0c-0.375,0 -0.678,0.304 -0.678,0.678c0,0.374 0.303,0.677 0.678,0.677l10.456,0c0.374,0 0.677,-0.303 0.677,-0.677c0,-0.374 -0.303,-0.678 -0.677,-0.678Z"
            style="fill:#fff;fill-rule:nonzero;"/><path
            d="M144.387,75.979l-1.49,0c-0.375,0 -0.678,0.304 -0.678,0.678c0,0.374 0.303,0.677 0.678,0.677l1.49,0c0.374,0 0.678,-0.303 0.678,-0.677c0,-0.374 -0.304,-0.678 -0.678,-0.678Z"
            style="fill:#fff;fill-rule:nonzero;"/><path
            d="M126.569,73.676c0,0.374 0.303,0.677 0.677,0.677l1.491,0c0.374,0 0.677,-0.303 0.677,-0.677c0,-0.374 -0.303,-0.678 -0.677,-0.678l-1.491,0c-0.374,0 -0.677,0.304 -0.677,0.678Z"
            style="fill:#fff;fill-rule:nonzero;"/><path
            d="M131.04,73.676c0,0.374 0.304,0.677 0.678,0.677l1.49,0c0.375,0 0.678,-0.303 0.678,-0.677c0,-0.374 -0.303,-0.678 -0.678,-0.678l-1.49,0c-0.374,0 -0.678,0.304 -0.678,0.678Z"
            style="fill:#fff;fill-rule:nonzero;"/><path
            d="M135.512,73.676c0,0.374 0.303,0.677 0.677,0.677l1.491,0c0.374,0 0.677,-0.303 0.677,-0.677c0,-0.374 -0.303,-0.678 -0.677,-0.678l-1.491,0c-0.374,0 -0.677,0.304 -0.677,0.678Z"
            style="fill:#fff;fill-rule:nonzero;"/><path
            d="M139.983,73.676c0,0.374 0.304,0.677 0.678,0.677l1.49,0c0.375,0 0.678,-0.303 0.678,-0.677c0,-0.374 -0.303,-0.678 -0.678,-0.678l-1.49,0c-0.374,0 -0.678,0.304 -0.678,0.678Z"
            style="fill:#fff;fill-rule:nonzero;"/></g></g></svg>